SplineFontDB: 3.0
FontName: Coval-LightItalic
FullName: Coval Light Italic
FamilyName: Coval
Weight: Light
Copyright: Copyright \\(c\\) 2015 by Context Ltd. All rights reserved.
Version: 001.001
ItalicAngle: -12
UnderlinePosition: -125
UnderlineWidth: 50
Ascent: 800
Descent: 200
InvalidEm: 0
sfntRevision: 0x00010000
LayerCount: 2
Layer: 0 0 "Back" 1
Layer: 1 0 "Fore" 0
XUID: [1021 1017 285194369 30906]
StyleMap: 0x0001
FSType: 0
OS2Version: 3
OS2_WeightWidthSlopeOnly: 0
OS2_UseTypoMetrics: 0
CreationTime: 1426740055
ModificationTime: 1514899779
PfmFamily: 17
TTFWeight: 300
TTFWidth: 5
LineGap: 25
VLineGap: 0
Panose: 2 0 5 3 4 0 0 9 0 3
OS2TypoAscent: 696
OS2TypoAOffset: 0
OS2TypoDescent: -167
OS2TypoDOffset: 0
OS2TypoLinegap: 49
OS2WinAscent: 919
OS2WinAOffset: 0
OS2WinDescent: 265
OS2WinDOffset: 0
HheadAscent: 919
HheadAOffset: 0
HheadDescent: -265
HheadDOffset: 0
OS2SubXSize: 650
OS2SubYSize: 600
OS2SubXOff: 0
OS2SubYOff: 75
OS2SupXSize: 650
OS2SupYSize: 600
OS2SupXOff: 0
OS2SupYOff: 350
OS2StrikeYSize: 50
OS2StrikeYPos: 250
OS2CapHeight: 695
OS2XHeight: 473
OS2Vendor: 'CNTX'
OS2CodePages: 2000011f.00000000
OS2UnicodeRanges: e10002ff.5001e9eb.00000004.00000000
Lookup: 1 0 0 "'aalt' Access All Alternates lookup 0" { "'aalt' Access All Alternates lookup 0 subtable"  } ['aalt' ('cyrl' <'BGR ' 'MKD ' 'RUS ' 'SRB ' 'dflt' > 'grek' <'dflt' > 'latn' <'AZE ' 'NLD ' 'TRK ' 'VIT ' 'dflt' > 'thai' <'dflt' > ) ]
Lookup: 3 0 0 "'aalt' Access All Alternates lookup 1" { "'aalt' Access All Alternates lookup 1 subtable"  } ['aalt' ('cyrl' <'BGR ' 'MKD ' 'RUS ' 'SRB ' 'dflt' > 'grek' <'dflt' > 'latn' <'AZE ' 'NLD ' 'TRK ' 'VIT ' 'dflt' > 'thai' <'dflt' > ) ]
Lookup: 1 0 0 "'locl' Localized Forms in Greek lookup 2" { "'locl' Localized Forms in Greek lookup 2 subtable"  } ['locl' ('grek' <'dflt' > ) ]
Lookup: 1 0 0 "'locl' Localized Forms in Cyrillic lookup 3" { "'locl' Localized Forms in Cyrillic lookup 3 subtable"  } ['locl' ('cyrl' <'MKD ' 'SRB ' 'dflt' > ) ]

StartChar: .notdef
Encoding: 256 -1 0
Width: 760
Flags: MW
HStem: 10 59<120 668 120 752> 704 61<265 265 265 815>
VStem: 12 915<10 765>
LayerCount: 2
Fore
SplineSet
12 10 m 1
 187 765 l 1
 927 765 l 1
 752 10 l 1
 12 10 l 1
96 112 m 1
 435 387 l 1
 397 437 260 612 223 663 c 1
 96 112 l 1
120 69 m 1
 668 69 l 1
 458 345 l 1
 395 294 182 120 120 69 c 1
265 704 m 1
 475 428 l 1
 815 704 l 1
 265 704 l 1
500 387 m 1
 711 112 l 1
 838 663 l 1
 775 612 562 438 500 387 c 1
EndSplineSet
EndChar

StartChar: exclam
Encoding: 33 33 2
Width: 325
Flags: MW
HStem: 0 78<123 219 141 201> 675 20G<283 361 361 361>
VStem: 123 238
LayerCount: 2
Fore
SplineSet
283 695 m 1
 361 695 l 1
 234 177 l 1
 172 177 l 1
 283 695 l 1
123 0 m 1
 141 78 l 1
 219 78 l 1
 201 0 l 1
 123 0 l 1
EndSplineSet
EndChar

StartChar: quotedbl
Encoding: 34 34 3
Width: 525
Flags: MW
HStem: 675 20G<302 367 367 367 477 542 542 542>
VStem: 238 304
LayerCount: 2
Fore
SplineSet
477 695 m 1
 542 695 l 1
 464 386 l 1
 413 386 l 1
 477 695 l 1
302 695 m 1
 367 695 l 1
 289 386 l 1
 238 386 l 1
 302 695 l 1
EndSplineSet
EndChar

StartChar: numbersign
Encoding: 35 35 4
Width: 875
Flags: MW
HStem: -169 21G<387 408.5> -167 21G<153 174.5> 128 51<593 779 567 791> 132 45<111.5 151 126 151 151 283> 339 51<169.5 412 200 387 200 439 200 624>
VStem: 86 809 550 57 788 57
LayerCount: 2
Fore
SplineSet
95 157 m 1x5c
 92 155 89 153 86 151 c 1
 90 168 103 177 126 177 c 0
 134 177 143 177 151 177 c 2
 302 177 l 1
 387 339 l 1
 189 339 l 2
 150 339 129 339 134 364 c 0
 139 389 161 390 200 390 c 2
 412 390 l 1
 492 544 l 2
 511 581 531 617 550 654 c 1
 550 673 575 689 587 689 c 0
 604 689 609 673 607 664 c 0
 561 573 512 482 465 391 c 1
 650 391 l 1
 730 545 l 2
 749 582 769 618 788 655 c 1
 788 674 813 690 825 690 c 0
 842 690 847 674 845 665 c 0
 819 612 792 561 765 509 c 2
 704 392 l 1
 865 392 l 2
 888 392 898 384 895 368 c 0
 889 341 869 341 830 341 c 2
 678 341 l 1
 593 179 l 1
 791 179 l 2
 830 179 851 179 846 155 c 0
 840 128 817 128 779 128 c 2
 567 128 l 1
 485 -32 l 2
 462 -77 443 -112 431 -136 c 1
 431 -132 422 -169 395 -169 c 0
 379 -169 374 -152 376 -143 c 2
 423 -51 l 2
 431 -35 441 -18 451 1 c 2
 518 130 l 1
 333 130 l 1xab
 251 -30 l 2
 228 -75 209 -110 197 -134 c 1
 197 -130 188 -167 161 -167 c 0
 145 -167 140 -150 142 -141 c 2
 149 -126 l 2
 164 -95 183 -64 198 -32 c 2
 283 132 l 1
 123 132 l 2
 100 132 91 140 95 157 c 1x5c
354 177 m 1x6c
 539 177 l 1
 624 339 l 1
 439 339 l 1
 354 177 l 1x6c
EndSplineSet
EndChar

StartChar: dollar
Encoding: 36 36 5
Width: 525
Flags: MW
HStem: -55 99<246 246 246 274 223 246> -7 21G<234 234> -7 51<234 246> 647 53<436 448> 647 101<436 436> 680 20G<448 448>
VStem: 175 58 450 64
LayerCount: 2
Fore
SplineSet
60 61 m 1x47
 81 116 l 1
 137 66 170 52 246 44 c 1
 311 329 l 1
 219 350 183 399 175 446 c 0
 172 463 171 476 172 486 c 0
 181 580 263 683 397 699 c 1
 408 748 l 1
 459 748 l 1x2b
 448 700 l 1
 501 697 550 679 596 645 c 1
 574 590 l 1
 548 609 l 2
 517 631 480 644 436 647 c 1
 376 389 l 1
 495 362 519 275 514 222 c 0
 503 112 402 7 286 -6 c 1
 274 -55 l 1
 223 -55 l 1x93
 234 -7 l 1
 169 -4 111 19 60 61 c 1x47
236 522 m 0
 236 513 233 505 233 495 c 0
 233 459 253 418 327 400 c 1
 346 482 365 563 384 645 c 1
 302 631 248 576 236 522 c 0
296 42 m 2
 297 41 297 41 298 40 c 0
 367 52 431 107 447 177 c 0
 461 239 435 294 359 314 c 1
 296 42 l 2
EndSplineSet
EndChar

StartChar: percent
Encoding: 37 37 6
Width: 875
Flags: MW
HStem: -57 52<643 696 643 706> 296 48<714 754> 347 49<271.5 325 271.5 326.5> 696 53<341 379>
VStem: 178 61 427 60 552 60 802 57
LayerCount: 2
Fore
SplineSet
185 549 m 1
 186 548 187 548 188 547 c 1
 213 657 301 749 381 749 c 0
 453 749 507 664 480 547 c 0
 455 439 366 347 287 347 c 0
 209 347 159 432 185 549 c 1
249 547 m 0
 226 446 243 396 300 396 c 0
 350 396 402 467 420 547 c 0
 430 590 430 626 419 654 c 0
 408 682 391 696 367 696 c 0
 312 696 269 632 249 547 c 0
181 -37 m 1
 180 -37 180 -36 179 -36 c 1
 180 -33 185 -26 194 -14 c 0
 202 -5 210 5 219 15 c 2
 824 734 l 1xdf
 824 734 824 734 824 734 c 1
 833 743 841 747 848 747 c 0xbf
 858 747 865 737 863 728 c 0
 861 725 856 714 842 698 c 2xdf
 217 -46 l 2
 209 -53 202 -57 196 -57 c 0
 185 -57 179 -47 181 -37 c 1
559 145 m 0xbf
 560 145 560 144 561 144 c 0
 586 252 674 344 754 344 c 0
 817 344 868 281 859 185 c 0
 850 59 751 -57 661 -57 c 0
 583 -57 533 28 559 145 c 0xbf
623 144 m 1
 623 145 622 145 622 146 c 1
 599 45 615 -5 671 -5 c 0
 721 -5 777 66 795 146 c 0
 805 190 805 226 794 254 c 0
 783 282 766 296 742 296 c 0
 672 296 638 207 623 144 c 1
EndSplineSet
EndChar

StartChar: ampersand
Encoding: 38 38 7
Width: 783
Flags: MW
HStem: -18 49<205 270.5 205 271.5> -18 53<605 610 610 610 610 610> 655 51<443.5 479>
VStem: 72 67 296 51 511 64
LayerCount: 2
Fore
SplineSet
76 143 m 1xbc
 77 141 78 140 79 138 c 1
 87 174 107 206 139 235 c 0xbc
 143 238 194 274 296 350 c 1
 291 395 290 436 294 472 c 0
 307 599 384 706 480 706 c 0
 553 706 588 632 571 561 c 0
 558 506 489 434 364 345 c 1
 373 310 385 275 399 247 c 2
 418 208 l 2
 433 177 466 128 481 113 c 1
 589 184 678 289 748 429 c 1
 797 415 l 1
 767 356 730 297 694 253 c 0
 593 129 551 110 510 77 c 1
 560 38 587 35 623 35 c 0
 678 35 735 56 737 56 c 2
 724 0 l 1
 683 -12 645 -18 610 -18 c 1x7c
 610 -18 610 -18 610 -18 c 1
 610 -18 610 -18 610 -18 c 1
 553 -18 501 3 454 44 c 1
 384 3 310 -18 233 -18 c 0
 120 -18 56 53 76 143 c 1xbc
145 144 m 0
 144 144 143 143 142 143 c 0
 128 86 166 31 244 31 c 0
 297 31 356 46 422 76 c 1
 363 158 333 209 304 302 c 1
 293 293 258 268 240 254 c 2
 227 244 l 2
 200 223 159 202 145 144 c 0
359 551 m 1
 359 552 358 552 358 553 c 1
 347 504 344 451 350 394 c 1
 477 482 511 537 511 599 c 0
 511 624 496 655 462 655 c 0
 425 655 375 621 359 551 c 1
EndSplineSet
EndChar

StartChar: quotesingle
Encoding: 39 39 8
Width: 292
Flags: MW
HStem: 675 20G<273 338 338 338>
VStem: 209 129
LayerCount: 2
Fore
SplineSet
273 695 m 1
 338 695 l 1
 260 386 l 1
 209 386 l 1
 273 695 l 1
EndSplineSet
EndChar

StartChar: parenleft
Encoding: 40 40 9
Width: 408
Flags: MW
HStem: -222 969<248 522 248 522>
VStem: 130 63
LayerCount: 2
Fore
SplineSet
152 264 m 1
 152 263 152 262 152 261 c 1
 201 474 308 636 472 747 c 1
 522 747 l 1
 503 733 488 722 477 713 c 0
 430 674 276 533 217 264 c 0
 168 53 195 -109 298 -222 c 1
 248 -222 l 1
 135 -111 103 51 152 264 c 1
EndSplineSet
EndChar

StartChar: parenright
Encoding: 41 41 10
Width: 408
Flags: MW
HStem: -222 972<5 280 5 280 7 280>
VStem: 335 63
LayerCount: 2
Fore
SplineSet
7 -222 m 1
 5 -222 l 1
 24 -208 39 -196 50 -187 c 0
 109 -138 250 -1 312 264 c 0
 356 453 338 605 257 716 c 1
 257 716 257 716 257 716 c 1
 248 729 239 740 230 750 c 1
 280 750 l 1
 393 639 425 477 376 264 c 0
 327 51 221 -111 57 -222 c 1
 7 -222 l 1
EndSplineSet
EndChar

StartChar: asterisk
Encoding: 42 42 11
Width: 525
Flags: MW
HStem: 319 431<327.5 440.5>
VStem: 172 417
LayerCount: 2
Fore
SplineSet
179 441 m 1
 177 441 174 440 172 440 c 1
 173 443 174 445 175 447 c 0
 176 449 178 451 181 453 c 2
 190 459 l 2
 227 484 259 489 312 514 c 2
 357 535 l 1
 288 573 l 2
 253 592 232 605 226 610 c 0
 220 615 218 621 220 628 c 0
 222 641 239 656 253 656 c 0
 256 656 259 655 262 653 c 0
 268 649 290 631 374 559 c 1
 389 647 387 750 432 750 c 0
 449 750 454 737 448 710 c 0
 432 662 416 612 401 559 c 1
 485 609 551 649 563 655 c 0
 565 656 566 656 567 656 c 0
 584 656 589 642 589 629 c 0
 584 599 532 588 470 560 c 2
 410 533 l 1
 478 495 l 2
 552 453 549 455 547 440 c 0
 545 426 529 414 516 414 c 0
 514 414 510 416 505 419 c 0
 492 427 425 481 393 510 c 1
 365 325 366 319 336 319 c 0
 319 319 313 332 319 359 c 0
 320 365 332 395 336 409 c 2
 367 510 l 1
 201 409 206 414 201 414 c 0
 193 414 187 417 183 423 c 0
 179 429 178 435 179 441 c 1
EndSplineSet
EndChar

StartChar: plus
Encoding: 43 43 12
Width: 642
Flags: MW
HStem: 239 51<163 167 167 352 415 584 163 403>
VStem: 119 527
LayerCount: 2
Fore
SplineSet
120 264 m 0
 121 264 122 264 123 264 c 0
 127 281 140 290 163 290 c 2
 365 290 l 1
 411 491 l 2
 416 514 427 526 444 526 c 0
 461 526 467 515 462 492 c 2
 415 290 l 1
 600 290 l 2
 606 290 611 290 617 290 c 1
 617 290 617 290 617 290 c 1
 640 290 649 281 645 264 c 0
 639 239 619 239 584 239 c 2
 403 239 l 1
 364 71 l 1
 364 33 347 2 323 2 c 0
 306 2 299 13 305 36 c 2
 313 70 l 1
 313 70 313 70 313 70 c 1
 352 239 l 1
 167 239 l 2
 122 239 116 242 120 264 c 0
EndSplineSet
EndChar

StartChar: comma
Encoding: 44 44 13
Width: 292
Flags: MW
HStem: 0 78<106 202 123 130>
VStem: 80 122
LayerCount: 2
Fore
SplineSet
106 0 m 1
 123 78 l 1
 202 78 l 1
 191 29 l 2
 190 26 189 21 187 15 c 2
 183 1 l 1
 161 -34 130 -93 120 -111 c 1
 80 -111 l 1
 130 0 l 1
 106 0 l 1
EndSplineSet
EndChar

StartChar: hyphen
Encoding: 45 45 14
Width: 350
Flags: MW
HStem: 211 50<60 351 71 340>
VStem: 60 291<211 261>
LayerCount: 2
Fore
SplineSet
60 211 m 1
 71 261 l 1
 351 261 l 1
 340 211 l 1
 60 211 l 1
EndSplineSet
EndChar

StartChar: period
Encoding: 46 46 15
Width: 292
Flags: MW
HStem: 0 78<106 202 124 184>
VStem: 106 96<0 78>
LayerCount: 2
Fore
SplineSet
106 0 m 1
 124 78 l 1
 202 78 l 1
 184 0 l 1
 106 0 l 1
EndSplineSet
EndChar

StartChar: slash
Encoding: 47 47 16
Width: 525
Flags: MW
HStem: -222 968<24.5 621.5>
VStem: 13 622
LayerCount: 2
Fore
SplineSet
14 -197 m 1
 14 -198 14 -200 14 -201 c 1
 15 -199 18 -192 23 -180 c 2
 577 714 l 2
 578 715 578 717 579 718 c 0
 584 725 596 746 615 746 c 0
 628 746 638 737 634 723 c 0
 632 714 620 699 618 694 c 2
 73 -187 l 2
 56 -215 49 -222 33 -222 c 0
 16 -222 10 -211 14 -197 c 1
EndSplineSet
EndChar

StartChar: zero
Encoding: 48 48 17
Width: 525
Flags: MW
HStem: -17 50<259 328> 622 50<356.5 410>
VStem: 107 57 508 59
LayerCount: 2
Fore
SplineSet
130 337 m 1
 128 337 l 1
 132 356 137 374 142 391 c 0
 158 446 224 672 415 672 c 0
 541 672 574 571 567 461 c 0
 564 416 560 386 554 357 c 2
 547 325 l 2
 494 97 398 -17 258 -17 c 0
 118 -17 75 101 130 337 c 1
193 336 m 2
 173 255 164 226 164 158 c 0
 164 126 168 101 177 83 c 1
 177 83 177 83 177 83 c 1
 189 61 207 46 229 39 c 0
 240 35 252 33 266 33 c 0
 410 33 454 211 484 338 c 2
 493 376 l 2
 527 519 506 600 437 618 c 0
 427 621 416 622 404 622 c 0
 309 622 238 540 202 377 c 2
 193 336 l 2
EndSplineSet
Substitution2: "'onum' Oldstyle Figures in Latin lookup 19 subtable" uniF730
Substitution2: "'onum' Oldstyle Figures in Cyrillic lookup 18 subtable" uniF730
Substitution2: "'onum' Oldstyle Figures in Greek lookup 17 subtable" uniF730
Substitution2: "'aalt' Access All Alternates lookup 0 subtable" uniF730
EndChar

StartChar: one
Encoding: 49 49 18
Width: 525
Flags: MW
HStem: 0 50<123 254 319 438 111 254> 556 51<245 259.5>
VStem: 111 351
LayerCount: 2
Fore
SplineSet
233 556 m 1
 245 607 l 1
 324 607 391 629 446 672 c 1
 462 672 l 1
 319 50 l 1
 450 50 l 1
 438 0 l 1
 111 0 l 1
 123 50 l 1
 254 50 l 1
 377 585 l 1
 334 566 286 556 233 556 c 1
EndSplineSet
Substitution2: "'onum' Oldstyle Figures in Latin lookup 19 subtable" uniF731
Substitution2: "'onum' Oldstyle Figures in Cyrillic lookup 18 subtable" uniF731
Substitution2: "'onum' Oldstyle Figures in Greek lookup 17 subtable" uniF731
Substitution2: "'aalt' Access All Alternates lookup 0 subtable" uniF731
EndChar

StartChar: two
Encoding: 50 50 19
Width: 525
Flags: MW
HStem: -1 56<121 471> 620 50<364.5 422>
VStem: 517 67
LayerCount: 2
Fore
SplineSet
159 504 m 1
 159 503 159 503 159 502 c 1
 218 614 299 670 402 670 c 0
 531 670 606 583 579 465 c 0
 560 380 499 325 377 241 c 1
 377 241 377 241 377 241 c 1
 322 203 237 141 121 55 c 1
 242 55 363 55 484 55 c 1
 471 -1 l 1
 51 -1 l 1
 63 52 l 1
 181 143 266 207 318 244 c 1
 318 244 318 244 318 244 c 1
 433 326 494 383 513 466 c 0
 535 561 467 620 377 620 c 0
 352 620 329 615 307 604 c 0
 233 567 187 459 186 459 c 0
 171 482 162 497 159 504 c 1
EndSplineSet
Substitution2: "'onum' Oldstyle Figures in Latin lookup 19 subtable" uniF732
Substitution2: "'onum' Oldstyle Figures in Cyrillic lookup 18 subtable" uniF732
Substitution2: "'onum' Oldstyle Figures in Greek lookup 17 subtable" uniF732
Substitution2: "'aalt' Access All Alternates lookup 0 subtable" uniF732
EndChar

StartChar: three
Encoding: 51 51 20
Width: 525
Flags: MW
HStem: -17 46<255 326 255 330> 325 51 620 50<376.5 448.5>
VStem: 459 66 510 65
LayerCount: 2
Fore
SplineSet
68 102 m 1xe8
 89 140 l 1
 139 36 237 29 273 29 c 0
 379 29 450 112 459 213 c 0xf0
 464 293 399 325 321 325 c 2
 252 325 l 1
 263 375 l 1
 297 377 l 2
 293 376 472 372 507 522 c 0
 520 580 485 620 412 620 c 0
 335 620 269 582 208 507 c 1
 187 551 l 1
 254 630 332 670 421 670 c 0xe8
 520 670 592 607 572 523 c 0
 556 459 505 392 411 353 c 1
 491 329 530 271 525 207 c 0xf0
 513 97 401 -17 259 -17 c 0
 137 -17 64 75 68 102 c 1xe8
EndSplineSet
Substitution2: "'onum' Oldstyle Figures in Latin lookup 19 subtable" uniF733
Substitution2: "'onum' Oldstyle Figures in Cyrillic lookup 18 subtable" uniF733
Substitution2: "'onum' Oldstyle Figures in Greek lookup 17 subtable" uniF733
Substitution2: "'aalt' Access All Alternates lookup 0 subtable" uniF733
EndChar

StartChar: four
Encoding: 52 52 21
Width: 525
Flags: MW
HStem: 0 21G<318 381 318 318> 181 53<148 360 148 423 435 537> 607 57<461 461>
VStem: 71 478<181 234>
LayerCount: 2
Fore
SplineSet
71 181 m 1
 83 235 l 1
 458 664 l 1
 534 664 l 1
 435 234 l 1
 549 234 l 1
 537 181 l 1
 423 181 l 1
 381 0 l 1
 318 0 l 1
 360 181 l 1
 71 181 l 1
148 234 m 1
 375 234 l 1
 461 607 l 1
 444 579 358 476 204 298 c 2
 148 234 l 1
EndSplineSet
Substitution2: "'onum' Oldstyle Figures in Latin lookup 19 subtable" uniF734
Substitution2: "'onum' Oldstyle Figures in Cyrillic lookup 18 subtable" uniF734
Substitution2: "'onum' Oldstyle Figures in Greek lookup 17 subtable" uniF734
Substitution2: "'aalt' Access All Alternates lookup 0 subtable" uniF734
EndChar

StartChar: five
Encoding: 53 53 22
Width: 525
Flags: MW
HStem: -17 52<254 254 254 263 254 304> 371 51<351 378.5> 602 53<290 575 290 290>
VStem: 456 69
LayerCount: 2
Fore
SplineSet
66 81 m 1
 105 128 l 1
 134 66 184 35 254 35 c 1
 254 35 254 35 254 35 c 1
 254 35 254 35 254 35 c 1
 272 35 290 37 308 42 c 0
 326 47 343 55 358 64 c 0
 403 92 432 139 447 205 c 0
 461 266 459 309 440 334 c 0
 421 359 395 371 362 371 c 0
 302 371 255 346 215 297 c 1
 159 297 l 1
 241 655 l 1
 587 655 l 1
 575 602 l 1
 290 602 l 1
 237 372 l 1
 282 405 328 422 374 422 c 0
 480 422 546 323 519 204 c 0
 491 83 366 -17 242 -17 c 0
 163 -17 104 16 66 81 c 1
EndSplineSet
Substitution2: "'onum' Oldstyle Figures in Latin lookup 19 subtable" uniF735
Substitution2: "'onum' Oldstyle Figures in Cyrillic lookup 18 subtable" uniF735
Substitution2: "'onum' Oldstyle Figures in Greek lookup 17 subtable" uniF735
Substitution2: "'aalt' Access All Alternates lookup 0 subtable" uniF735
EndChar

StartChar: six
Encoding: 54 54 23
Width: 525
Flags: MW
HStem: -18 52<245 324 245 331.5> 402 50<368.5 392> 623 50<407 485.5>
VStem: 110 65 467 55
LayerCount: 2
Fore
SplineSet
128 319 m 0
 129 319 129 320 130 320 c 0
 175 521 332 673 482 673 c 0
 517 673 553 667 590 654 c 1
 578 602 l 1
 540 616 503 623 468 623 c 0
 306 623 212 434 198 333 c 1
 243 398 328 452 409 452 c 0
 483 452 523 389 529 323 c 0
 532 289 530 255 522 220 c 0
 497 115 402 -18 261 -18 c 0
 205 -18 119 8 110 151 c 0
 107 198 113 254 128 319 c 0
183 244 m 1
 183 241 l 1
 178 220 175 200 173 180 c 0
 171 160 172 138 175 114 c 0
 181 66 216 34 274 34 c 0
 374 34 458 120 467 289 c 0
 468 308 466 327 461 345 c 0
 451 381 419 402 365 402 c 0
 281 402 202 328 183 244 c 1
EndSplineSet
Substitution2: "'onum' Oldstyle Figures in Latin lookup 19 subtable" uniF736
Substitution2: "'onum' Oldstyle Figures in Cyrillic lookup 18 subtable" uniF736
Substitution2: "'onum' Oldstyle Figures in Greek lookup 17 subtable" uniF736
Substitution2: "'aalt' Access All Alternates lookup 0 subtable" uniF736
EndChar

StartChar: seven
Encoding: 55 55 24
Width: 525
Flags: MW
HStem: -8 21G<168 235 168 168> 600 55<193 247.5 193 576>
VStem: 168 462
LayerCount: 2
Fore
SplineSet
182 600 m 1
 193 655 l 1
 630 655 l 1
 618 602 l 1
 446 458 292 237 235 -8 c 1
 168 -8 l 1
 220 216 366 439 576 600 c 1
 445 600 313 600 182 600 c 1
EndSplineSet
Substitution2: "'onum' Oldstyle Figures in Latin lookup 19 subtable" uniF737
Substitution2: "'onum' Oldstyle Figures in Cyrillic lookup 18 subtable" uniF737
Substitution2: "'onum' Oldstyle Figures in Greek lookup 17 subtable" uniF737
Substitution2: "'aalt' Access All Alternates lookup 0 subtable" uniF737
EndChar

StartChar: eight
Encoding: 56 56 25
Width: 525
Flags: MW
HStem: -17 54<219 310.5 219 315.5> 331 48<295 356> 623 48<352.5 427>
VStem: 80 61 168 57 457 68 519 66
LayerCount: 2
Fore
SplineSet
85 181 m 0xf4
 84 182 83 182 82 183 c 0xf4
 100 256 165 324 275 354 c 1
 226 368 170 409 168 464 c 0
 159 565 289 671 416 671 c 0xfa
 528 671 602 594 581 501 c 0
 564 429 494 376 409 353 c 1
 484 333 541 268 521 180 c 0
 497 75 375 -17 256 -17 c 0
 140 -17 59 69 85 181 c 0xf4
148 183 m 0
 147 183 147 182 146 182 c 0
 124 87 174 37 264 37 c 0
 357 37 429 91 452 185 c 0
 463 232 457 268 434 293 c 0
 411 318 378 331 334 331 c 0
 256 331 172 285 148 183 c 0
229 502 m 1
 229 502 229 501 229 501 c 1
 213 436 245 379 343 379 c 0
 430 379 498 426 516 502 c 0
 523 533 519 561 503 586 c 0xfa
 487 611 453 623 401 623 c 0
 285 623 241 553 229 502 c 1
EndSplineSet
Substitution2: "'onum' Oldstyle Figures in Latin lookup 19 subtable" uniF738
Substitution2: "'onum' Oldstyle Figures in Cyrillic lookup 18 subtable" uniF738
Substitution2: "'onum' Oldstyle Figures in Greek lookup 17 subtable" uniF738
Substitution2: "'aalt' Access All Alternates lookup 0 subtable" uniF738
EndChar

StartChar: nine
Encoding: 57 57 26
Width: 525
Flags: MW
HStem: -18 52<196.5 303> 204 48<306.5 308.5> 619 51<364.5 434.5>
VStem: 146 63 504 64
LayerCount: 2
Fore
SplineSet
155 438 m 1
 155 437 156 436 156 435 c 1
 186 568 308 670 421 670 c 0
 500 670 568 629 568 476 c 0
 568 221 393 -18 213 -18 c 0
 164 -18 121 -3 84 28 c 1
 120 74 l 1
 132 62 167 34 226 34 c 0
 397 34 467 249 480 323 c 1
 433 258 350 204 267 204 c 0
 222 204 189 225 168 267 c 1
 168 267 168 267 168 267 c 1
 144 314 140 371 155 438 c 1
220 424 m 0
 219 424 219 424 218 424 c 0
 195 325 215 269 278 255 c 0
 288 253 300 252 313 252 c 0
 433 252 499 369 504 480 c 0
 505 502 503 524 499 546 c 0
 491 590 459 619 410 619 c 0
 313 619 250 554 220 424 c 0
EndSplineSet
Substitution2: "'onum' Oldstyle Figures in Latin lookup 19 subtable" uniF739
Substitution2: "'onum' Oldstyle Figures in Cyrillic lookup 18 subtable" uniF739
Substitution2: "'onum' Oldstyle Figures in Greek lookup 17 subtable" uniF739
Substitution2: "'aalt' Access All Alternates lookup 0 subtable" uniF739
EndChar

StartChar: colon
Encoding: 58 58 27
Width: 292
Flags: MW
HStem: 0 78<106 202 124 184> 394 78<197 293 215 275>
VStem: 106 187
LayerCount: 2
Fore
SplineSet
106 0 m 1
 124 78 l 1
 202 78 l 1
 184 0 l 1
 106 0 l 1
197 394 m 1
 215 472 l 1
 293 472 l 1
 275 394 l 1
 197 394 l 1
EndSplineSet
EndChar

StartChar: semicolon
Encoding: 59 59 28
Width: 292
Flags: MW
HStem: 0 78<106 202 123 130> 394 78<197 293 215 275>
VStem: 80 213
LayerCount: 2
Fore
SplineSet
197 394 m 1
 215 472 l 1
 293 472 l 1
 275 394 l 1
 197 394 l 1
106 0 m 1
 123 78 l 1
 202 78 l 1
 191 29 l 2
 190 26 189 21 187 15 c 2
 183 1 l 1
 161 -34 130 -93 120 -111 c 1
 80 -111 l 1
 130 0 l 1
 106 0 l 1
EndSplineSet
EndChar

StartChar: less
Encoding: 60 60 29
Width: 642
Flags: MW
HStem: -32 588<517.5 658.5>
VStem: 146 527
LayerCount: 2
Fore
SplineSet
149 264 m 1
 148 263 147 262 146 261 c 1
 151 274 152 278 179 293 c 2
 634 549 l 2
 643 554 650 556 655 556 c 0
 662 556 667 554 670 549 c 0
 673 544 674 538 673 531 c 0
 671 522 660 512 641 501 c 2
 284 300 l 2
 251 280 229 268 218 263 c 1
 247 240 268 224 282 213 c 2
 532 23 l 2
 546 12 552 2 550 -7 c 0
 548 -21 533 -32 520 -32 c 0
 515 -32 505 -26 490 -15 c 2
 166 231 l 1
 145 252 149 255 149 264 c 1
EndSplineSet
EndChar

StartChar: equal
Encoding: 61 61 30
Width: 642
Flags: MW
HStem: 142 50<113.5 596 136 582> 336 50<231 627>
VStem: 96 570
LayerCount: 2
Fore
SplineSet
97 166 m 0
 101 183 114 192 136 192 c 2
 596 192 l 2
 616 192 624 183 620 166 c 0
 616 150 603 142 582 142 c 2
 125 142 l 2
 102 142 93 150 97 166 c 0
142 360 m 1
 142 360 141 360 141 360 c 1
 147 384 163 386 231 386 c 2
 641 386 l 2
 661 386 669 377 665 360 c 0
 661 344 648 336 627 336 c 2
 170 336 l 2
 147 336 138 344 142 360 c 1
EndSplineSet
EndChar

StartChar: greater
Encoding: 62 62 31
Width: 642
Flags: MW
HStem: -31 25 -31 588<98 246.5>
VStem: 87 528
LayerCount: 2
Fore
SplineSet
87 -5 m 1xa0
 88 -6 89 -6 90 -7 c 1
 95 14 162 45 254 98 c 2
 410 188 l 2
 457 215 502 239 544 261 c 1
 539 265 513 285 470 318 c 2
 230 501 l 2
 216 512 210 522 212 531 c 0
 214 544 229 557 242 557 c 0
 251 557 269 543 284 532 c 2
 596 294 l 2
 608 285 615 276 615 272 c 0
 615 249 610 248 581 232 c 2
 127 -24 l 2
 116 -29 109 -31 105 -31 c 0
 91 -31 85 -18 87 -5 c 1xa0
EndSplineSet
EndChar

StartChar: question
Encoding: 63 63 32
Width: 496
Flags: MW
HStem: 5 78<192 288 210 270> 652 56<365 432.5>
VStem: 504 62
LayerCount: 2
Fore
SplineSet
208 650 m 1
 206 655 l 1
 269 690 333 708 397 708 c 0
 525 708 560 652 566 606 c 0
 575 532 525 474 490 448 c 2
 472 435 l 2
 385 373 331 304 311 213 c 2
 303 177 l 1
 241 177 l 1
 273 306 318 396 436 473 c 0
 446 478 457 486 472 501 c 0
 476 505 480 510 484 515 c 0
 488 520 491 526 494 533 c 0
 497 540 499 547 500 554 c 0
 518 630 472 652 393 652 c 0
 333 652 274 634 215 597 c 1
 208 650 l 1
192 5 m 1
 210 83 l 1
 288 83 l 1
 270 5 l 1
 192 5 l 1
EndSplineSet
EndChar

StartChar: at
Encoding: 64 64 33
Width: 700
Flags: MW
HStem: -7 49<377.5 441 377.5 452> 123 50<453.5 506.5 453.5 527> 520 50<533 585.5> 652 51<482 593>
VStem: 129 60 334 60 663 81
LayerCount: 2
Fore
SplineSet
138 347 m 1
 137 347 137 347 136 347 c 1
 181 542 380 703 568 703 c 0
 715 703 780 607 723 353 c 0
 691 212 575 123 479 123 c 0
 375 123 312 223 340 346 c 0
 367 466 477 570 582 570 c 0
 619 570 652 557 681 531 c 1
 672 612 630 652 556 652 c 0
 408 652 238 519 198 347 c 0
 179 266 190 195 231 134 c 0
 272 73 335 42 420 42 c 0
 462 42 516 51 545 61 c 0
 560 66 574 71 586 76 c 0
 614 88 602 84 627 84 c 2
 660 84 l 1
 581 23 497 -7 407 -7 c 0
 216 -7 92 147 138 347 c 1
400 348 m 0
 400 347 399 347 399 346 c 0
 377 248 418 173 489 173 c 0
 524 173 558 190 591 223 c 1
 591 223 591 223 591 223 c 1
 624 256 646 297 657 346 c 0
 668 394 665 435 647 469 c 0
 629 503 603 520 568 520 c 0
 498 520 421 442 400 348 c 0
EndSplineSet
EndChar

StartChar: A
Encoding: 65 65 34
Width: 675
Flags: MW
HStem: 0 21G<29 29 29 94 572 572 572 645> 210 52 629 74<478 479.5> 683 20G<461 537 537 537>
VStem: 29 616<0 0>
LayerCount: 2
Fore
SplineSet
29 0 m 1xd8
 461 703 l 1
 537 703 l 1
 645 0 l 1
 572 0 l 1
 539 210 l 1
 222 210 l 1
 94 0 l 1
 29 0 l 1xd8
256 263 m 1
 533 261 l 1
 513 396 481 629 478 629 c 0xe8
 432 554 358 432 256 263 c 1
EndSplineSet
EndChar

StartChar: B
Encoding: 66 66 35
Width: 687
Flags: MW
HStem: 0 50<316 350> 334 48<349 366> 638 55<320 449 449 462 320 320>
VStem: 613 64
LayerCount: 2
Fore
SplineSet
99 0 m 1
 264 693 l 1
 449 693 l 2
 481 693 505 693 521 692 c 0
 634 686 747 615 725 517 c 0
 713 472 660 397 504 363 c 1
 613 349 696 279 674 188 c 0
 653 102 544 0 350 0 c 2
 99 0 l 1
183 51 m 1
 227 51 272 50 316 50 c 2
 352 50 l 2
 494 50 594 118 610 186 c 0
 619 224 606 257 572 284 c 1
 572 284 572 284 572 284 c 1
 521 324 474 334 366 334 c 2
 249 334 l 1
 183 51 l 1
260 383 m 1
 296 383 331 382 367 382 c 0
 411 382 449 385 480 390 c 0
 554 402 646 456 659 516 c 0
 675 586 581 638 462 638 c 2
 320 638 l 1
 260 383 l 1
EndSplineSet
EndChar

StartChar: C
Encoding: 67 67 36
Width: 671
Flags: MW
HStem: -17 51<382 435 382 465.5> 658 52<488.5 604 475 605>
VStem: 150 69
LayerCount: 2
Fore
SplineSet
161 347 m 1
 159 347 157 346 155 346 c 1
 200 537 377 710 573 710 c 0
 635 710 697 699 758 676 c 1
 729 607 l 1
 682 635 649 658 561 658 c 0
 416 658 269 519 229 346 c 0
 209 262 218 188 253 127 c 0
 288 65 344 34 420 34 c 0
 450 34 480 37 506 43 c 0
 563 57 569 61 622 90 c 2
 633 96 l 1
 625 38 l 1
 561 5 522 -17 409 -17 c 0
 281 -17 188 60 160 170 c 0
 146 225 146 284 161 347 c 1
EndSplineSet
EndChar

StartChar: D
Encoding: 68 68 37
Width: 746
Flags: MW
HStem: 0 53<177 302 302 344 344 348> 641 54<313 481 313 313>
VStem: 705 70
LayerCount: 2
Fore
SplineSet
98 0 m 1
 256 695 l 1
 504 695 l 2
 690 695 813 549 765 341 c 0
 719 144 537 0 348 0 c 2
 98 0 l 1
177 53 m 1
 302 53 l 2
 316 53 330 53 344 53 c 0
 591 53 699 260 705 418 c 0
 709 529 655 641 481 641 c 2
 313 641 l 1
 177 53 l 1
EndSplineSet
EndChar

StartChar: E
Encoding: 69 69 38
Width: 625
Flags: MW
HStem: 0 56<181 581> 334 53<257 614 245 626> 640 53<316 714 316 316>
VStem: 98 628
LayerCount: 2
Fore
SplineSet
98 0 m 1
 258 693 l 1
 726 693 l 1
 714 640 l 1
 316 640 l 1
 257 387 l 1
 626 387 l 1
 614 334 l 1
 245 334 l 1
 181 56 l 1
 594 56 l 1
 581 0 l 1
 98 0 l 1
EndSplineSet
EndChar

StartChar: F
Encoding: 70 70 39
Width: 596
Flags: MW
HStem: 0 21G<98 98 98 168> 320 53<254 582 242 594> 640 53<316 700 316 316>
VStem: 98 614
LayerCount: 2
Fore
SplineSet
98 0 m 1
 258 693 l 1
 712 693 l 1
 700 640 l 1
 316 640 l 1
 254 373 l 1
 594 373 l 1
 582 320 l 1
 242 320 l 1
 168 0 l 1
 98 0 l 1
EndSplineSet
EndChar

StartChar: G
Encoding: 71 71 40
Width: 700
Flags: MW
HStem: -18 53<346.5 443.5> 274 53<483 627 470 705> 657 53<488.5 599.5>
VStem: 151 71
LayerCount: 2
Fore
SplineSet
161 347 m 1
 161 347 160 346 160 346 c 1
 205 537 381 710 576 710 c 0
 645 710 711 694 773 662 c 1
 745 593 l 1
 693 636 633 657 566 657 c 0
 411 657 268 511 231 346 c 0
 192 173 275 35 418 35 c 0
 504 35 573 59 579 62 c 1
 627 274 l 1
 470 274 l 1
 483 327 l 1
 705 327 l 1
 636 31 l 1
 556 -2 480 -18 407 -18 c 0
 221 -18 115 147 161 347 c 1
EndSplineSet
EndChar

StartChar: H
Encoding: 72 72 41
Width: 708
Flags: MW
HStem: 0 21G<98 98 98 168 539 539 539 609> 335 53<258 616 245 629> 675 20G<258 328 328 328 699 769 769 769>
VStem: 98 671
LayerCount: 2
Fore
SplineSet
98 0 m 1
 258 695 l 1
 328 695 l 1
 258 388 l 1
 629 388 l 1
 699 695 l 1
 769 695 l 1
 609 0 l 1
 539 0 l 1
 616 335 l 1
 245 335 l 1
 168 0 l 1
 98 0 l 1
EndSplineSet
EndChar

StartChar: I
Encoding: 73 73 42
Width: 267
Flags: MW
HStem: 0 21G<98 98 98 168> 675 20G<258 328 328 328>
VStem: 98 230
LayerCount: 2
Fore
SplineSet
98 0 m 1
 258 695 l 1
 328 695 l 1
 168 0 l 1
 98 0 l 1
EndSplineSet
EndChar

StartChar: J
Encoding: 74 74 43
Width: 483
Flags: MW
HStem: -17 50<188.5 251 183 261>
VStem: 49 517
LayerCount: 2
Fore
SplineSet
49 25 m 1
 73 86 l 1
 113 51 158 33 208 33 c 0
 294 33 354 75 373 155 c 2
 497 693 l 1
 566 693 l 1
 442 153 l 2
 409 12 303 -17 219 -17 c 0
 158 -17 101 -3 49 25 c 1
EndSplineSet
EndChar

StartChar: K
Encoding: 75 75 44
Width: 704
Flags: MW
HStem: 0 21G<100 100 100 166 584 584 584 660> 675 20G<260 326 326 326 724 805 805 805>
VStem: 100 705<0 695>
LayerCount: 2
Fore
SplineSet
100 0 m 1
 260 695 l 1
 326 695 l 1
 236 305 l 1
 724 695 l 1
 805 695 l 1
 462 420 l 1
 561 210 l 2
 594 140 627 70 660 0 c 1
 584 0 l 1
 407 375 l 1
 218 224 l 1
 166 0 l 1
 100 0 l 1
EndSplineSet
EndChar

StartChar: L
Encoding: 76 76 45
Width: 567
Flags: MW
HStem: 0 53<180 523> 675 20G<258 328 328 328>
VStem: 98 437<0 53>
LayerCount: 2
Fore
SplineSet
98 0 m 1
 258 695 l 1
 328 695 l 1
 180 53 l 1
 535 53 l 1
 523 0 l 1
 98 0 l 1
EndSplineSet
EndChar

StartChar: M
Encoding: 77 77 46
Width: 883
Flags: MW
HStem: 0 21G<101 101 101 164 717 717 717 780> 630 65<309 309 862 862>
VStem: 101 839<0 695>
LayerCount: 2
Fore
SplineSet
101 0 m 1
 261 695 l 1
 353 695 l 1
 441 199 l 1
 441 199 441 199 441 199 c 1
 447 160 454 120 460 81 c 1
 481 122 509 163 535 203 c 2
 847 695 l 1
 940 695 l 1
 780 0 l 1
 717 0 l 1
 862 630 l 1
 838 592 762 468 738 430 c 2
 474 17 l 1
 414 17 l 1
 323 534 l 1
 323 534 323 534 323 534 c 1
 318 566 314 598 309 630 c 1
 164 0 l 1
 101 0 l 1
EndSplineSet
EndChar

StartChar: N
Encoding: 78 78 47
Width: 708
Flags: MW
HStem: 0 58<510 558 558 558 558 608> 637 58<310 310>
VStem: 100 668
LayerCount: 2
Fore
SplineSet
100 0 m 1
 260 695 l 1
 358 695 l 1
 558 58 l 1
 705 695 l 1
 768 695 l 1
 608 0 l 1
 510 0 l 1
 310 637 l 1
 163 0 l 1
 100 0 l 1
EndSplineSet
EndChar

StartChar: O
Encoding: 79 79 48
Width: 783
Flags: MW
HStem: -18 52<360.5 472.5 360.5 476> 658 52<467 579.5>
VStem: 127 68 745 67
LayerCount: 2
Fore
SplineSet
138 347 m 1
 138 346 138 346 138 345 c 1
 185 549 374 710 554 710 c 0
 735 710 849 550 802 346 c 0
 755 143 566 -18 386 -18 c 0
 204 -18 90 142 138 347 c 1
208 345 m 1
 208 345 207 345 207 345 c 1
 185 255 195 183 231 126 c 0
 269 65 323 34 398 34 c 0
 547 34 694 178 733 345 c 0
 755 440 747 516 710 573 c 1
 710 573 710 573 710 573 c 1
 673 630 617 658 542 658 c 0
 392 658 252 534 208 345 c 1
EndSplineSet
EndChar

StartChar: P
Encoding: 80 80 49
Width: 658
Flags: MW
HStem: 0 21G<98 98 98 168> 295 52<247 383 383 410 236 383> 641 54<315 489 315 315>
VStem: 650 68
LayerCount: 2
Fore
SplineSet
98 0 m 1
 258 695 l 1
 496 695 l 2
 644 695 739 611 714 494 c 0
 693 407 584 295 410 295 c 2
 236 295 l 1
 168 0 l 1
 98 0 l 1
247 347 m 1
 383 347 l 2
 551 347 626 402 646 493 c 0
 666 581 606 641 489 641 c 2
 315 641 l 1
 247 347 l 1
EndSplineSet
EndChar

StartChar: Q
Encoding: 81 81 50
Width: 783
Flags: MW
HStem: -18 50<320 406> 657 52<463 578.5>
VStem: 128 64 744 69
LayerCount: 2
Fore
SplineSet
138 346 m 1
 138 345 137 344 137 343 c 1
 182 540 369 709 554 709 c 0
 735 709 849 549 803 345 c 0
 774 217 678 97 574 36 c 1
 668 -112 l 1
 586 -112 l 1
 514 7 l 1
 467 -10 425 -18 387 -18 c 0
 208 -18 90 141 138 346 c 1
206 344 m 0
 205 344 204 343 203 343 c 0
 161 165 245 32 395 32 c 0
 422 32 452 37 485 47 c 1
 397 192 l 1
 470 192 l 1
 545 75 l 1
 641 133 707 233 733 344 c 0
 754 434 746 509 709 568 c 0
 672 627 616 657 541 657 c 0
 385 657 245 515 206 344 c 0
EndSplineSet
EndChar

StartChar: R
Encoding: 82 82 51
Width: 671
Flags: MW
HStem: 0 21G<98 98 98 167 571 571 571 641> 322 50<250 396 396 429 241 396> 640 54<312 485 485 489 312 312>
VStem: 663 66
LayerCount: 2
Fore
SplineSet
98 0 m 1
 255 694 l 1
 485 694 l 2
 651 694 706 627 724 567 c 0
 730 546 731 526 726 506 c 0
 706 422 603 348 493 330 c 1
 519 269 614 61 641 0 c 1
 571 0 l 1
 429 322 l 1
 241 322 l 1
 167 0 l 1
 98 0 l 1
250 372 m 1
 396 372 l 2
 551 372 639 417 660 506 c 0
 678 586 609 640 489 640 c 2
 312 640 l 1
 250 372 l 1
EndSplineSet
EndChar

StartChar: S
Encoding: 83 83 52
Width: 583
Flags: MW
HStem: -17 52<256.5 346 256.5 363> 655 53<453 464>
VStem: 174 66 505 67
LayerCount: 2
Fore
SplineSet
58 53 m 1
 85 117 l 1
 147 62 217 35 296 35 c 0
 396 35 484 102 502 175 c 0
 508 201 505 226 493 249 c 0
 481 272 461 290 434 302 c 1
 434 302 434 302 434 302 c 1
 421 307 394 314 353 322 c 0
 272 338 216 364 186 425 c 1
 186 425 186 425 186 425 c 1
 172 455 171 486 178 518 c 0
 198 606 300 696 428 707 c 0
 438 708 448 708 458 708 c 0
 524 708 584 692 639 660 c 1
 611 591 l 2
 610 592 591 608 589 609 c 2
 577 617 l 2
 564 626 563 624 550 633 c 0
 527 648 484 655 444 655 c 0
 328 655 240 580 240 507 c 0
 240 465 273 425 327 410 c 0
 360 400 462 376 468 373 c 0
 527 349 577 292 572 219 c 0
 561 104 443 -17 283 -17 c 0
 199 -17 124 6 58 53 c 1
EndSplineSet
EndChar

StartChar: T
Encoding: 84 84 53
Width: 725
Flags: MW
HStem: 0 21G<327 397 327 327> 639 53<185 846 197 475 545 545 545 834>
VStem: 185 661<639 692>
LayerCount: 2
Fore
SplineSet
185 639 m 1
 197 692 l 1
 846 692 l 1
 834 639 l 1
 545 639 l 1
 397 0 l 1
 327 0 l 1
 475 639 l 1
 185 639 l 1
EndSplineSet
EndChar

StartChar: U
Encoding: 85 85 54
Width: 692
Flags: MW
HStem: -16 54<344.5 395.5 344.5 404.5> 676 20G<688 753 753 753> 677 20G<256 326 326 326>
VStem: 147 68
LayerCount: 2
Fore
SplineSet
155 247 m 2xb0
 256 697 l 1
 326 697 l 1xb0
 221 239 l 2
 212 201 210 168 215 140 c 0
 225 83 261 59 297 47 c 0
 315 41 334 38 355 38 c 0
 436 38 548 80 583 241 c 2
 688 696 l 1
 753 696 l 1xd0
 649 243 l 2
 612 81 466 -16 343 -16 c 0
 198 -16 121 98 155 247 c 2xb0
EndSplineSet
EndChar

StartChar: V
Encoding: 86 86 55
Width: 675
Flags: MW
HStem: -5 21G<297 375 297 297> -5 71<355 355 355 375 297 355> 675 20G<174 186 753 819 819 819> 676 20G<235 247>
VStem: 174 645<695 695>
LayerCount: 2
Fore
SplineSet
174 695 m 1x98
 198 695 223 696 247 696 c 1x98
 349 102 l 2
 350 98 351 92 352 84 c 0
 353 76 354 70 355 66 c 2
 447 213 l 2
 468 247 491 285 519 327 c 2
 545 368 l 1
 753 695 l 1
 819 695 l 1x68
 375 -5 l 1
 297 -5 l 1
 174 695 l 1x98
EndSplineSet
EndChar

StartChar: W
Encoding: 87 87 56
Width: 967
Flags: MW
HStem: -5 21G<225 295 225 225> -4 21G<666 738 666 666> -4 70 631 65 676 20G<609 679 679 679 1050 1111 1111 1111> 678 20G<240 240>
VStem: 174 937<695 696> 666 54
LayerCount: 2
Fore
SplineSet
174 695 m 1x46
 240 698 l 1x46
 268 263 281 125 279 68 c 1
 286 84 293 98 300 111 c 0
 311 132 326 163 349 204 c 0
 382 264 393 292 412 325 c 2
 434 363 l 1
 609 696 l 1
 679 696 l 1
 711 255 l 2
 716 170 719 107 720 66 c 1x29
 728 85 749 127 783 191 c 2
 1050 696 l 1
 1111 696 l 1
 738 -4 l 1
 666 -4 l 1
 656 108 647 231 639 367 c 0
 634 451 626 543 626 631 c 1x51
 598 557 555 486 518 416 c 2
 295 -5 l 1
 225 -5 l 1x86
 174 695 l 1x46
EndSplineSet
EndChar

StartChar: X
Encoding: 88 88 57
Width: 675
Flags: MW
HStem: -1 21G<574 659 574 574> 0 21G<14 14 14 95> 674 20G<694 774 774 774>
VStem: 14 760<0 694>
LayerCount: 2
Fore
SplineSet
14 0 m 1x70
 378 365 l 1
 341 427 l 2
 330 445 278 533 188 693 c 1
 273 693 l 1
 425 418 l 1
 476 469 644 642 694 694 c 1
 774 694 l 1
 731 649 l 2
 681 596 499 417 449 365 c 1
 481 311 l 2
 553 189 612 85 659 -1 c 1
 574 -1 l 1xb0
 402 317 l 1
 360 273 l 2
 346 258 328 239 306 217 c 2
 229 138 l 2
 170 77 125 31 95 0 c 1
 14 0 l 1x70
EndSplineSet
EndChar

StartChar: Y
Encoding: 89 89 58
Width: 675
Flags: MW
HStem: 0 21G<302 371 302 302> 675 20G<162 247 247 247 755 831 831 831>
VStem: 162 669<695 695>
LayerCount: 2
Fore
SplineSet
162 695 m 1
 247 695 l 1
 282 624 l 2
 285 616 291 604 299 589 c 0
 307 574 313 562 317 554 c 2
 368 448 l 2
 391 401 408 366 419 342 c 1
 440 364 552 482 755 695 c 1
 831 695 l 1
 435 278 l 1
 371 0 l 1
 302 0 l 1
 366 278 l 1
 162 695 l 1
EndSplineSet
EndChar

StartChar: Z
Encoding: 90 90 59
Width: 642
Flags: MW
HStem: 0 53<164 589> 643 52<233 637 221 743>
VStem: 58 685
LayerCount: 2
Fore
SplineSet
58 0 m 1
 66 36 l 1
 637 643 l 1
 221 643 l 1
 233 695 l 1
 743 695 l 1
 735 660 l 1
 164 53 l 1
 601 53 l 1
 589 0 l 1
 58 0 l 1
EndSplineSet
EndChar

StartChar: bracketleft
Encoding: 91 91 60
Width: 294
Flags: MW
HStem: -222 50<136 219> 700 50<338 432 338 338>
VStem: 62 381
LayerCount: 2
Fore
SplineSet
62 -222 m 1
 286 750 l 1
 443 750 l 1
 432 700 l 1
 338 700 l 1
 136 -172 l 1
 230 -172 l 1
 219 -222 l 1
 62 -222 l 1
EndSplineSet
EndChar

StartChar: backslash
Encoding: 92 92 61
Width: 525
Flags: MW
HStem: -225 969<254 393>
VStem: 225 196 226 50<723 727.5>
LayerCount: 2
Fore
SplineSet
226 724 m 1xa0
 226 722 227 721 227 719 c 1
 230 734 239 742 254 744 c 0
 262 744 268 739 271 739 c 0
 272 738 276 728 276 727 c 0
 276 726 277 723 278 718 c 0
 290 658 334 360 418 -172 c 0
 421 -184 422 -193 421 -200 c 0
 419 -209 415 -215 410 -219 c 0
 405 -223 397 -225 389 -225 c 0
 385 -224 382 -223 379 -221 c 0
 373 -217 372 -207 370 -203 c 0
 369 -201 368 -197 367 -191 c 0
 366 -185 366 -181 366 -179 c 2
 227 705 l 2
 225 712 225 718 226 724 c 1xa0
EndSplineSet
EndChar

StartChar: bracketright
Encoding: 93 93 62
Width: 294
Flags: MW
HStem: -222 50<-17 77 -17 129 -28 77> 700 50<196 279 185 353>
VStem: -28 381
LayerCount: 2
Fore
SplineSet
-17 -172 m 1
 77 -172 l 1
 279 700 l 1
 185 700 l 1
 196 750 l 1
 353 750 l 1
 129 -222 l 1
 -28 -222 l 1
 -17 -172 l 1
EndSplineSet
EndChar

StartChar: asciicircum
Encoding: 94 94 63
Width: 642
Flags: MW
HStem: 590 29<455 455>
VStem: 247 364<471 472>
LayerCount: 2
Fore
SplineSet
247 472 m 1
 437 619 l 1
 488 619 l 1
 611 471 l 1
 561 471 l 1
 455 590 l 1
 425 568 327 493 297 472 c 1
 247 472 l 1
EndSplineSet
EndChar

StartChar: underscore
Encoding: 95 95 64
Width: 817
Flags: MW
HStem: -264 37<45.5 637 87 611>
VStem: 27 645
LayerCount: 2
Fore
SplineSet
31 -244 m 1
 30 -245 28 -246 27 -247 c 1
 32 -226 54 -227 87 -227 c 2
 637 -227 l 2
 639 -227 640 -227 642 -227 c 0
 644 -227 645 -227 647 -227 c 0
 649 -227 650 -227 652 -227 c 0
 654 -227 656 -227 657 -227 c 0
 658 -227 659 -227 661 -227 c 0
 662 -227 672 -230 672 -238 c 0
 672 -266 648 -264 611 -264 c 2
 55 -264 l 2
 36 -264 28 -257 31 -244 c 1
EndSplineSet
EndChar

StartChar: grave
Encoding: 96 96 65
Width: 525
Flags: MW
HStem: 537 129<309 402 309 440> 537 130<255 402>
VStem: 255 185<537 667>
LayerCount: 2
Fore
SplineSet
336 589 m 2xa0
 255 667 l 1
 277 667 298 666 320 666 c 1
 440 537 l 1
 402 537 l 2
 385 537 395 532 336 589 c 2xa0
EndSplineSet
EndChar

StartChar: a
Encoding: 97 97 66
Width: 517
Flags: MW
HStem: -9 49<248.5 255> 0 21G<371 435 371 371> 430 47 452 20G<544 544>
LayerCount: 2
Fore
SplineSet
100 236 m 0xa0
 115 300 146 356 195 408 c 0
 233 446 274 469 315 477 c 0xa0
 325 479 335 480 346 480 c 0
 399 480 439 457 467 410 c 1
 478 457 l 1
 544 472 l 1
 435 0 l 1
 371 0 l 1x50
 382 45 383 50 387 72 c 1
 338 18 284 -9 226 -9 c 0
 128 -9 66 95 100 236 c 0xa0
165 236 m 0
 158 205 154 171 159 135 c 0
 170 61 226 40 271 40 c 0
 333 40 394 98 402 133 c 0
 419 206 435 278 452 351 c 0
 456 370 450 388 434 405 c 0
 418 422 397 430 370 430 c 0
 303 430 201 387 165 236 c 0
EndSplineSet
EndChar

StartChar: b
Encoding: 98 98 67
Width: 517
Flags: MW
HStem: -8 42<246 316 219.5 342> 0 21G<80 80 80 145> 426 52<374 390.5>
VStem: 468 64<245.5 339.5>
LayerCount: 2
Fore
SplineSet
80 0 m 1x70
 239 693 l 1
 302 693 l 1
 236 403 l 1
 289 453 345 478 403 478 c 0
 482 478 532 401 532 325 c 0
 532 166 412 -8 272 -8 c 0
 220 -8 183 17 160 66 c 1xb0
 145 0 l 1
 80 0 l 1x70
222 340 m 2
 173 129 l 1
 173 78 188 34 251 34 c 0
 381 34 468 175 468 300 c 0
 468 379 428 426 353 426 c 0
 282 426 229 373 222 340 c 2
EndSplineSet
EndChar

StartChar: c
Encoding: 99 99 68
Width: 467
Flags: MW
HStem: -9 51<252.5 288 252.5 292.5> 430 51<320 409>
VStem: 93 65
LayerCount: 2
Fore
SplineSet
101 237 m 0
 129 356 251 481 380 481 c 0
 452 481 478 473 534 438 c 1
 511 383 l 1
 467 411 451 430 367 430 c 0
 273 430 192 353 166 236 c 0
 153 179 157 132 177 96 c 0
 197 60 230 42 275 42 c 0
 301 42 329 47 356 56 c 0
 413 75 416 81 458 110 c 1
 450 54 l 1
 387 12 324 -9 261 -9 c 0
 138 -9 69 102 101 237 c 0
EndSplineSet
EndChar

StartChar: d
Encoding: 100 100 69
Width: 517
Flags: MW
HStem: -9 49<234 255> 0 21G<371 435 371 371> 430 50<305 372.5 267 383.5> 675 20G<532 595 595 595>
VStem: 91 65<129.5 219>
LayerCount: 2
Fore
SplineSet
91 155 m 0xb8
 91 283 188 480 346 480 c 0
 399 480 439 457 467 410 c 1
 532 695 l 1
 595 695 l 1
 435 0 l 1
 371 0 l 1x78
 387 72 l 1
 338 18 284 -9 226 -9 c 0
 148 -9 91 55 91 155 c 0xb8
360 430 m 0
 250 430 156 319 156 164 c 0
 156 95 197 40 271 40 c 0
 333 40 394 98 402 133 c 2
 455 366 l 1
 446 404 407 430 360 430 c 0
EndSplineSet
EndChar

StartChar: e
Encoding: 101 101 70
Width: 467
Flags: MW
HStem: -9 50<228 291> 249 39 432 51<310.5 382.5>
VStem: 90 59
LayerCount: 2
Fore
SplineSet
97 240 m 1
 96 240 95 239 94 239 c 1
 123 366 240 483 358 483 c 0
 427 483 492 455 499 349 c 0
 501 320 498 287 489 249 c 1
 158 249 l 2
 157 247 157 244 156 242 c 0
 130 127 183 41 273 41 c 0
 331 41 390 64 451 110 c 1
 443 55 l 1
 382 12 321 -9 261 -9 c 0
 138 -9 65 101 97 240 c 1
171 289 m 1
 442 287 l 1
 454 372 421 432 344 432 c 0
 277 432 204 369 171 289 c 1
EndSplineSet
EndChar

StartChar: f
Encoding: 102 102 71
Width: 321
Flags: MW
HStem: 0 21G<113 177 113 113> 422 50<274 409 284 397> 422 51<125 220 135 210> 653 51<420.5 440.5> 676 20G<522 522>
VStem: 113 409
LayerCount: 2
Fore
SplineSet
125 422 m 1xd4
 135 473 l 1
 220 473 l 1
 235 537 l 2
 239 554 243 567 246 576 c 0
 269 645 355 704 442 704 c 0xb4
 466 704 493 701 522 696 c 1xcc
 509 639 l 1
 480 648 453 653 428 653 c 0
 413 653 398 651 382 647 c 0
 330 633 313 610 301 544 c 2
 284 472 l 1
 409 472 l 1
 397 422 l 1
 274 422 l 1
 177 0 l 1
 113 0 l 1
 210 422 l 1
 125 422 l 1xd4
EndSplineSet
EndChar

StartChar: g
Encoding: 103 103 72
Width: 517
Flags: MW
HStem: -185 50<190 263.5> 16 47<228.5 271> 428 51<327.5 380 287.5 386.5>
VStem: 92 70 447 14
LayerCount: 2
Fore
SplineSet
236 16 m 0
 137 16 71 115 98 235 c 0
 123 347 222 479 353 479 c 0
 407 479 443 450 461 392 c 1
 481 479 l 1
 544 479 l 1
 435 8 l 2
 409 -109 313 -185 214 -185 c 0
 153 -185 95 -170 40 -140 c 1
 52 -86 l 1
 115 -121 154 -135 226 -135 c 0
 325 -135 360 -58 387 68 c 2
 399 125 l 1
 364 69 306 16 236 16 c 0
370 428 m 0
 285 428 181 338 166 233 c 1
 149 158 182 63 275 63 c 0
 363 63 406 167 429 247 c 1
 444 313 l 2
 450 338 447 363 436 389 c 0
 425 415 403 428 370 428 c 0
EndSplineSet
EndChar

StartChar: h
Encoding: 104 104 73
Width: 517
Flags: MW
HStem: -1 21G<370 434 370 370> 0 21G<80 80 80 145> 429 49<363 399.5> 675 20G<239 302 302 302>
VStem: 448 68
LayerCount: 2
Fore
SplineSet
80 0 m 1x78
 239 695 l 1
 302 695 l 1
 239 421 l 2
 238 416 237 409 235 399 c 2
 231 377 l 1
 264 426 324 478 402 478 c 0
 487 478 513 441 516 396 c 0
 518 360 513 348 507 314 c 2
 434 -1 l 1
 370 -1 l 1xb8
 442 310 l 2
 460 387 443 429 356 429 c 0
 264 429 228 337 214 300 c 1
 145 0 l 1
 80 0 l 1x78
EndSplineSet
EndChar

StartChar: i
Encoding: 105 105 74
Width: 225
Flags: MW
HStem: 0 21G<80 80 80 143> 452 20G<189 252 252 252> 631 63<226 303 240 289>
VStem: 80 223
LayerCount: 2
Fore
SplineSet
80 0 m 1
 189 472 l 1
 252 472 l 1
 143 0 l 1
 80 0 l 1
226 631 m 1
 240 694 l 1
 303 694 l 1
 289 631 l 1
 226 631 l 1
EndSplineSet
EndChar

StartChar: j
Encoding: 106 106 75
Width: 254
Flags: MW
HStem: -175 52<-14 20.5 -19.5 54> 452 20G<217 281 281 281> 630 63<254 331 268 317>
VStem: -110 441
LayerCount: 2
Fore
SplineSet
-110 -146 m 1
 -86 -96 l 1
 -60 -114 -33 -123 -6 -123 c 0
 47 -123 85 -98 95 -55 c 2
 217 472 l 1
 281 472 l 1
 162 -45 l 2
 149 -101 101 -175 7 -175 c 0
 -35 -175 -74 -165 -110 -146 c 1
254 630 m 1
 268 693 l 1
 331 693 l 1
 317 630 l 1
 254 630 l 1
EndSplineSet
EndChar

StartChar: k
Encoding: 107 107 76
Width: 487
Flags: MW
HStem: 0 21G<82 82 82 141 400 400 400 469> 452 20G<476 555 555 555>
LayerCount: 2
Fore
SplineSet
82 0 m 1
 243 696 l 1
 303 696 l 1
 200 246 l 1
 476 472 l 1
 555 472 l 1
 337 294 l 1
 469 0 l 1
 400 0 l 1
 286 252 l 1
 179 165 l 1
 141 0 l 1
 82 0 l 1
EndSplineSet
EndChar

StartChar: l
Encoding: 108 108 77
Width: 225
Flags: MW
HStem: 0 21G<80 80 80 143> 675 20G<240 303 303 303>
VStem: 80 223
LayerCount: 2
Fore
SplineSet
80 0 m 1
 240 695 l 1
 303 695 l 1
 143 0 l 1
 80 0 l 1
EndSplineSet
EndChar

StartChar: m
Encoding: 109 109 78
Width: 808
Flags: MW
HStem: -1 21G<661 725 661 661> 0 21G<80 80 80 145 370 370 370 435> 430 47<361.5 395.5> 430 48<658 686.5>
VStem: 448 68 739 68
LayerCount: 2
Fore
SplineSet
80 0 m 1x5c
 186 470 l 1
 248 470 l 1
 226 373 l 1
 259 422 322 477 401 477 c 0
 426 477 447 473 464 466 c 0x6c
 518 444 516 387 516 371 c 1
 564 442 623 478 693 478 c 0
 773 478 804 445 807 397 c 0
 809 351 801 326 789 275 c 2
 725 -1 l 1
 661 -1 l 1x9c
 733 310 l 2
 753 396 725 430 648 430 c 0
 576 430 519 365 497 270 c 2
 435 0 l 1
 370 0 l 1
 442 311 l 2
 462 399 434 430 357 430 c 0
 285 430 228 365 206 270 c 0
 205 267 205 264 205 262 c 2
 145 0 l 1
 80 0 l 1x5c
EndSplineSet
EndChar

StartChar: n
Encoding: 110 110 79
Width: 517
Flags: MW
HStem: -1 21G<370 434 370 370> 0 21G<80 80 80 145> 429 41 429 49<365 377.5>
VStem: 448 68
LayerCount: 2
Fore
SplineSet
80 0 m 1x58
 187 470 l 1
 249 470 l 1x68
 227 373 l 1
 266 432 328 478 402 478 c 0
 487 478 513 441 516 396 c 0
 518 353 511 327 499 279 c 0
 476 186 455 92 434 -1 c 1
 370 -1 l 1x98
 442 310 l 2
 445 323 447 335 448 346 c 0
 449 368 446 386 438 399 c 0
 426 419 399 429 356 429 c 0
 264 429 228 337 214 300 c 1
 145 0 l 1
 80 0 l 1x58
EndSplineSet
EndChar

StartChar: o
Encoding: 111 111 80
Width: 525
Flags: MW
HStem: -7 54<249.5 312 249.5 320.5> 436 50<324 382>
VStem: 87 68 485 60
LayerCount: 2
Fore
SplineSet
94 236 m 0
 94 237 94 237 94 238 c 0
 123 369 249 486 374 486 c 0
 493 486 571 376 537 237 c 0
 508 106 381 -7 260 -7 c 0
 143 -7 62 96 94 236 c 0
162 247 m 1
 163 247 163 248 164 248 c 1
 155 210 152 177 155 149 c 0
 163 72 226 47 273 47 c 0
 351 47 442 100 477 248 c 0
 492 315 487 363 461 392 c 0
 435 421 402 436 362 436 c 0
 286 436 192 384 162 247 c 1
EndSplineSet
EndChar

StartChar: p
Encoding: 112 112 81
Width: 517
Flags: MW
HStem: -167 21G<41 41 41 106> -8 48<237.5 297.5 237.5 325.5> 427 51<374.5 384>
VStem: 463 70
LayerCount: 2
Fore
SplineSet
41 -167 m 1
 187 470 l 1
 250 470 l 1
 234 402 l 1
 288 453 345 478 404 478 c 0
 503 478 554 368 524 237 c 0
 493 99 378 -8 273 -8 c 0
 202 -8 169 39 160 66 c 1
 106 -167 l 1
 41 -167 l 1
223 347 m 1
 223 347 222 348 222 348 c 2
 222 347 222 346 222 344 c 0
 222 342 222 341 222 340 c 2
 173 128 l 2
 168 107 173 87 188 68 c 0
 203 49 224 40 251 40 c 0
 344 40 473 157 463 285 c 1
 463 366 418 427 350 427 c 0
 297 427 231 381 223 347 c 1
EndSplineSet
EndChar

StartChar: q
Encoding: 113 113 82
Width: 517
Flags: MW
HStem: -167 21G<333 397 333 333> -7 46<179 303.5> 427 52<330.5 361.5 301.5 396>
VStem: 91 71
LayerCount: 2
Fore
SplineSet
100 235 m 1
 100 235 101 234 101 234 c 1
 133 375 250 479 353 479 c 0
 370 479 386 476 400 470 c 0
 437 454 465 393 464 393 c 2
 484 480 l 1
 547 480 l 1
 397 -167 l 1
 333 -167 l 1
 382 42 l 2
 383 46 384 52 385 60 c 2
 388 78 l 1
 340 21 287 -7 229 -7 c 0
 129 -7 68 98 100 235 c 1
166 234 m 1
 168 232 l 1
 146 139 182 59 246 42 c 0
 255 40 264 39 274 39 c 0
 333 39 396 95 408 146 c 2
 447 312 l 2
 449 322 449 331 449 340 c 0
 446 389 420 427 372 427 c 0
 289 427 192 347 166 234 c 1
EndSplineSet
EndChar

StartChar: r
Encoding: 114 114 83
Width: 346
Flags: MW
HStem: 0 21G<80 80 80 143> 460 20G<440 440>
VStem: 80 360
LayerCount: 2
Fore
SplineSet
80 0 m 1
 188 470 l 1
 248 470 l 1
 230 394 l 2
 229 389 227 381 225 371 c 2
 221 348 l 1
 264 410 336 476 440 480 c 1
 427 424 l 1
 306 422 219 332 197 236 c 2
 143 0 l 1
 80 0 l 1
EndSplineSet
EndChar

StartChar: s
Encoding: 115 115 84
Width: 402
Flags: MW
HStem: -8 50<187.5 261.5 187.5 269> 201 74 433 50<259.5 323.5>
VStem: 350 61
LayerCount: 2
Fore
SplineSet
38 39 m 1
 60 95 l 1
 60 95 60 95 60 95 c 1
 107 60 159 42 216 42 c 0
 307 42 350 93 350 143 c 0
 350 171 321 193 298 201 c 1
 259 201 142 222 117 293 c 0
 111 310 110 329 115 350 c 0
 127 410 187 483 317 483 c 0
 368 483 417 472 464 449 c 1
 441 394 l 1
 397 420 349 433 298 433 c 0
 221 433 183 394 175 357 c 0
 168 327 181 305 209 293 c 0
 269 267 440 271 407 132 c 0
 390 62 332 -8 206 -8 c 0
 144 -8 88 8 38 39 c 1
EndSplineSet
EndChar

StartChar: t
Encoding: 116 116 85
Width: 379
Flags: MW
HStem: -8 52<167.5 248> 422 50<116 223 127 211 127 272 284 427>
VStem: 135 66
LayerCount: 2
Fore
SplineSet
116 422 m 1
 127 472 l 1
 223 472 l 1
 254 607 l 1
 315 607 l 1
 284 472 l 1
 439 472 l 1
 427 422 l 1
 272 422 l 1
 207 138 l 2
 192 75 203 44 242 44 c 0
 254 44 266 45 278 48 c 0
 313 57 353 85 356 85 c 1
 356 69 357 52 357 36 c 1
 303 7 249 -8 195 -8 c 0
 140 -8 122 38 144 131 c 2
 211 422 l 1
 116 422 l 1
EndSplineSet
EndChar

StartChar: u
Encoding: 117 117 86
Width: 517
Flags: MW
HStem: -9 47<224 230> -1 21G<372 435 372 372>
VStem: 102 68
LayerCount: 2
Fore
SplineSet
111 133 m 2xa0
 190 469 l 1
 255 469 l 1
 175 121 l 2
 171 106 170 95 169 88 c 0
 167 81 168 71 172 64 c 0
 178 45 202 38 246 38 c 0xa0
 325 38 392 93 411 174 c 2
 480 471 l 1
 544 471 l 1
 435 -1 l 1
 372 -1 l 1x60
 392 85 l 1
 344 27 266 -9 194 -9 c 0
 129 -9 104 21 102 61 c 0
 100 94 104 101 111 133 c 2xa0
EndSplineSet
EndChar

StartChar: v
Encoding: 118 118 87
Width: 458
Flags: MW
HStem: -3 21G<190 264 190 190> 452 20G<123 187 187 187 489 552 552 552>
LayerCount: 2
Fore
SplineSet
123 472 m 1
 187 472 l 1
 244 65 l 1
 489 472 l 1
 552 472 l 1
 264 -3 l 1
 190 -3 l 1
 123 472 l 1
EndSplineSet
EndChar

StartChar: w
Encoding: 119 119 88
Width: 692
Flags: MW
HStem: -3 21G<158 223 158 158> 452 20G<123 123>
VStem: 123 61<470 472>
LayerCount: 2
Fore
SplineSet
123 472 m 1
 184 470 l 1
 199 266 207 130 209 63 c 1
 220 91 291 227 422 470 c 1
 480 470 l 1
 497 235 506 99 507 63 c 1
 537 122 l 2
 547 141 558 161 568 180 c 2
 722 470 l 1
 783 470 l 1
 528 -5 l 1
 456 -5 l 1
 439 238 431 375 433 406 c 1
 420 370 223 -4 223 -3 c 2
 158 -3 l 1
 123 472 l 1
EndSplineSet
EndChar

StartChar: x
Encoding: 120 120 89
Width: 458
Flags: MW
HStem: 0 21G<0 0 0 71 386 386 386 458> 452 20G<115 187 187 187 478 549 549 549>
LayerCount: 2
Fore
SplineSet
0 0 m 1
 253 243 l 1
 253 243 253 244 253 244 c 1
 115 472 l 1
 187 472 l 1
 293 289 l 1
 478 472 l 1
 549 472 l 1
 310 243 l 1
 359 162 409 81 458 0 c 1
 386 0 l 1
 274 207 l 1
 274 207 273 207 273 207 c 1
 71 0 l 1
 0 0 l 1
EndSplineSet
EndChar

StartChar: y
Encoding: 121 121 90
Width: 458
Flags: MW
HStem: -175 64 -36 20G<196 196 196 196> 452 20G<123 133.5 489 552 552 552>
LayerCount: 2
Fore
SplineSet
123 472 m 1
 144 472 166 471 187 471 c 1
 209 342 l 2
 240 161 248 99 249 64 c 1
 261 92 489 474 489 472 c 2
 552 472 l 1
 269 12 l 1
 189 -107 153 -175 66 -175 c 0
 42 -175 16 -173 -11 -168 c 1
 -3 -112 l 1
 27 -120 53 -124 77 -124 c 0
 93 -124 108 -120 122 -111 c 0
 140 -99 165 -67 196 -16 c 1
 196 -16 196 -16 196 -16 c 1
 201 -9 204 -3 205 1 c 0
 205 2 202 33 198 55 c 2
 123 472 l 1
EndSplineSet
EndChar

StartChar: z
Encoding: 122 122 91
Width: 450
Flags: MW
HStem: 0 50<129 423> 423 49<153 430 153 190>
VStem: 29 499<0 472>
LayerCount: 2
Fore
SplineSet
29 0 m 1
 37 34 l 1
 430 423 l 1
 334 423 238 423 142 423 c 1
 153 472 l 1
 528 472 l 1
 520 439 l 1
 129 50 l 1
 231 50 333 50 435 50 c 1
 423 0 l 1
 29 0 l 1
EndSplineSet
EndChar

StartChar: braceleft
Encoding: 123 123 92
Width: 525
Flags: MW
HStem: -221 50<349 374 374 411> 266 25 703 50<594 595 595 620>
VStem: 203 66 257 67
LayerCount: 2
Fore
SplineSet
117 239 m 1xf0
 123 291 l 1
 217 293 300 333 322 420 c 2
 370 629 l 2
 390 718 483 753 594 753 c 2
 631 753 l 1
 620 703 l 1
 595 703 l 2
 488 703 448 681 435 624 c 2
 394 445 l 2
 392 436 390 427 388 419 c 0
 360 306 236 266 183 266 c 1xe8
 244 262 347 230 320 114 c 2
 273 -91 l 2
 259 -153 276 -171 422 -171 c 1
 411 -221 l 1
 374 -221 l 2xf0
 234 -221 192 -165 206 -105 c 2
 255 111 l 2
 256 121 257 130 257 138 c 0
 257 154 255 167 252 176 c 0xe8
 237 215 192 236 117 239 c 1xf0
EndSplineSet
EndChar

StartChar: bar
Encoding: 124 124 93
Width: 292
Flags: MW
HStem: -221 970<87.5 325.5>
VStem: 79 254
LayerCount: 2
Fore
SplineSet
80 -193 m 2
 292 720 l 2
 297 739 306 749 319 749 c 0
 332 749 336 739 331 720 c 2
 120 -193 l 2
 116 -212 107 -221 94 -221 c 0
 81 -221 76 -212 80 -193 c 2
EndSplineSet
EndChar

StartChar: braceright
Encoding: 125 125 94
Width: 525
Flags: MW
HStem: -222 45<41 48 11 100> 239 50<517 529> 701 50<235 238>
VStem: 319 68 374 67
LayerCount: 2
Fore
SplineSet
22 -172 m 1xc8
 41 -177 l 1
 159 -177 187 -157 203 -97 c 2
 239 63 l 2
 242 78 246 93 250 108 c 0
 254 124 260 139 267 152 c 0
 300 213 345 231 384 246 c 0
 394 250 404 253 413 255 c 0
 422 257 430 258 437 259 c 0
 444 260 449 261 453 262 c 2
 459 262 l 2
 425 264 349 277 325 341 c 1
 325 341 325 341 325 341 c 1
 317 362 317 387 324 416 c 2xd0
 371 621 l 2
 373 630 374 639 374 647 c 0
 374 667 359 684 337 691 c 0
 280 710 252 701 224 701 c 1
 235 751 l 1
 272 751 l 2xe8
 402 751 457 708 437 621 c 2
 391 419 l 2
 385 394 385 376 387 365 c 0xd0
 399 317 457 291 529 289 c 1
 517 239 l 1
 468 238 425 227 388 206 c 0
 351 185 328 153 318 110 c 2
 281 -52 l 2
 277 -67 273 -83 270 -98 c 0
 251 -181 177 -222 48 -222 c 2
 11 -222 l 1
 22 -172 l 1xc8
EndSplineSet
EndChar

StartChar: asciitilde
Encoding: 126 126 95
Width: 642
Flags: MW
HStem: 590 50<558.5 579.5 550 592> 644 50<355.5 382>
VStem: 222 491<590 696>
LayerCount: 2
Fore
SplineSet
223 589 m 1
 223 589 222 590 222 590 c 1x60
 240 656 309 694 374 694 c 0
 420 694 529 640 571 640 c 0xa0
 588 640 645 645 662 696 c 1x60
 713 696 l 1
 693 626 622 590 562 590 c 0xa0
 555 590 548 591 540 592 c 0
 491 598 400 644 364 644 c 0
 347 644 290 640 273 589 c 1
 223 589 l 1
EndSplineSet
EndChar

StartChar: exclamdown
Encoding: 257 161 97
Width: 325
Flags: MW
HStem: -167 21G<84 84 84 162> 450 78<228 324 246 306>
VStem: 84 240
LayerCount: 2
Fore
SplineSet
84 -167 m 1
 200 298 l 1
 206 326 l 2
 209 338 211 346 212 350 c 1
 274 350 l 1
 162 -167 l 1
 84 -167 l 1
228 450 m 1
 246 528 l 1
 324 528 l 1
 306 450 l 1
 228 450 l 1
EndSplineSet
EndChar

StartChar: cent
Encoding: 258 162 98
Width: 525
Flags: MW
HStem: -8 52<264 275 275 314> 431 51<417 462.5>
VStem: 94 65
LayerCount: 2
Fore
SplineSet
100 236 m 1
 100 235 100 235 100 234 c 1
 128 354 241 467 378 481 c 1
 395 558 l 1
 445 558 l 1
 428 482 l 1
 497 482 526 472 591 441 c 1
 569 386 l 1
 502 421 483 429 417 431 c 1
 327 44 l 1
 402 50 442 66 517 110 c 1
 509 54 l 1
 444 16 379 -5 314 -8 c 1
 297 -84 l 1
 247 -84 l 1
 264 -8 l 1
 144 6 70 109 100 236 c 1
166 235 m 0
 165 235 165 236 164 236 c 0
 142 140 181 58 275 44 c 1
 365 430 l 1
 267 418 189 337 166 235 c 0
EndSplineSet
EndChar

StartChar: sterling
Encoding: 259 163 99
Width: 671
Flags: MW
HStem: -8 42<143.5 168.5 143.5 170> -8 49<495.5 518.5> 81 51<176.5 187.5> 317 51<402 504 390 516> 672 49<555 615>
VStem: 666 62
LayerCount: 2
Fore
SplineSet
71 57 m 1xbc
 69 55 67 52 65 50 c 1xbc
 75 98 140 132 213 132 c 0
 234 132 255 129 278 122 c 1
 285 139 293 168 302 209 c 2
 326 315 l 1
 241 315 l 1
 253 366 l 1
 338 366 l 1
 362 469 l 2
 365 481 367 492 370 504 c 0
 402 644 512 721 598 721 c 0
 670 721 717 669 729 610 c 0
 735 580 734 550 728 520 c 0
 721 486 703 487 689 485 c 1
 674 490 665 500 662 515 c 0
 663 523 665 530 666 537 c 0
 675 617 645 672 585 672 c 0
 510 672 459 616 433 500 c 1
 433 500 433 500 433 500 c 1
 402 368 l 1
 516 368 l 1
 504 317 l 1
 390 317 l 1
 367 215 l 2
 366 211 365 205 363 196 c 0
 361 187 360 181 359 178 c 2
 355 163 l 2
 350 144 345 126 333 106 c 1
 356 95 l 2
 378 84 395 69 420 64 c 0
 439 59 478 41 513 41 c 0
 560 41 593 85 606 139 c 1x7c
 670 139 l 1
 644 49 560 -8 477 -8 c 0
 469 -8 462 -8 455 -7 c 0
 420 -5 396 6 338 36 c 2
 295 58 l 1
 248 14 197 -8 143 -8 c 0
 94 -8 61 18 71 57 c 1xbc
128 52 m 0
 125 40 133 34 154 34 c 0
 183 34 218 49 232 61 c 2
 243 70 l 1
 216 77 195 81 180 81 c 0
 141 81 130 59 128 52 c 0
EndSplineSet
EndChar

StartChar: currency
Encoding: 260 164 100
Width: 803
Flags: MW
HStem: -8 42<358 436> 578 40<499.5 579.5 499.5 607.5>
VStem: 150 39 749 40
LayerCount: 2
Fore
SplineSet
46 -28 m 0
 46 -27 45 -26 45 -25 c 0
 47 -18 58 -6 78 11 c 0
 83 15 89 20 94 24 c 2
 188 100 l 1
 188 100 189 101 189 101 c 1
 150 158 140 226 158 305 c 0
 176 384 218 453 284 511 c 1
 267 534 248 559 227 586 c 0
 195 628 195 627 197 638 c 0
 199 648 211 658 221 658 c 0
 224 658 226 658 228 657 c 0
 232 655 236 648 242 642 c 2
 254 627 l 2
 265 612 271 602 290 578 c 2
 317 541 l 1
 386 592 460 618 539 618 c 0
 620 618 682 592 726 541 c 1
 813 612 860 649 866 652 c 0
 870 654 874 656 878 656 c 0
 888 656 895 647 893 634 c 0
 892 630 888 625 880 618 c 0
 876 615 788 544 750 511 c 1
 789 454 798 385 780 305 c 0
 762 229 721 161 655 100 c 1
 707 35 742 -14 741 -25 c 0
 738 -39 724 -45 715 -45 c 0
 714 -45 707 -44 691 -23 c 2
 664 12 l 2
 659 19 653 28 645 38 c 2
 620 70 l 1
 551 18 476 -8 396 -8 c 0
 320 -8 258 18 209 70 c 1
 158 28 l 2
 65 -49 70 -46 58 -45 c 0
 48 -45 44 -34 46 -28 c 0
198 307 m 0
 197 307 197 307 196 307 c 0
 162 160 256 34 406 34 c 0
 554 34 708 156 742 306 c 0
 775 454 681 578 534 578 c 0
 386 578 231 455 198 307 c 0
EndSplineSet
EndChar

StartChar: yen
Encoding: 261 165 101
Width: 675
Flags: MW
HStem: 0 21G<302 371 302 302> 200 52<62 63 63 348> 412 52<609 729 729 754> 676 20G<158 243 243 243 753 829 829 829>
VStem: 23 806
LayerCount: 2
Fore
SplineSet
31 225 m 0
 28 226 26 226 23 227 c 0
 27 244 40 252 62 252 c 2
 353 252 l 1
 355 260 357 271 359 280 c 1
 354 291 334 335 329 346 c 2
 296 413 l 1
 108 413 l 2
 81 413 70 421 74 438 c 0
 75 443 78 447 81 451 c 0
 91 461 107 464 152 464 c 2
 272 464 l 1
 250 507 180 653 158 696 c 1
 243 696 l 1
 357 464 l 1
 531 464 l 1
 753 696 l 1
 829 696 l 1
 609 464 l 1
 729 464 l 2
 782 464 799 459 795 437 c 0
 791 420 777 412 754 412 c 2
 561 412 l 1
 434 278 l 1
 428 250 l 1
 712 250 l 2
 739 250 750 242 746 225 c 0
 742 208 729 199 707 199 c 0
 706 199 705 199 704 200 c 2
 417 200 l 1
 371 0 l 1
 302 0 l 1
 348 200 l 1
 63 200 l 2
 60 200 60 199 58 199 c 0
 36 199 27 208 31 225 c 0
379 414 m 1
 413 344 l 1
 480 414 l 1
 379 414 l 1
EndSplineSet
EndChar

StartChar: brokenbar
Encoding: 262 166 102
Width: 175
Flags: MW
HStem: -220 969<29 264> 149 28
VStem: 99 42<150 150>
LayerCount: 2
Fore
SplineSet
101 149 m 2x60
 100 149 100 150 99 150 c 1
 103 169 112 178 126 178 c 0
 140 178 145 169 141 151 c 0
 139 143 137 135 135 127 c 2
 67 -168 l 2
 59 -202 55 -220 35 -220 c 0
 23 -220 19 -210 21 -202 c 0
 21 -200 22 -197 22 -195 c 0
 24 -187 26 -178 28 -170 c 2
 101 149 l 2x60
152 379 m 0
 172 468 193 556 214 645 c 0
 223 684 227 749 258 749 c 0
 270 749 274 738 272 731 c 0
 272 729 271 726 271 724 c 2
 209 457 l 2
 200 419 193 352 165 352 c 0
 148 352 152 367 152 379 c 0
EndSplineSet
EndChar

StartChar: section
Encoding: 253 167 103
Width: 467
Flags: MW
HStem: -174 47<148 192> 653 50<396 423.5>
VStem: 396 60
LayerCount: 2
Fore
SplineSet
22 -105 m 1
 48 -50 l 1
 53 -58 60 -66 63 -70 c 1
 58 -63 86 -127 199 -127 c 0
 206 -127 213 -126 220 -125 c 0
 275 -113 316 -72 327 -20 c 0
 339 37 293 75 248 94 c 0
 165 128 128 184 132 247 c 1
 142 316 176 367 249 406 c 1
 210 439 191 477 195 522 c 0
 206 601 277 692 376 702 c 0
 384 703 392 703 400 703 c 0
 455 703 502 684 541 647 c 1
 519 592 l 1
 488 623 459 653 388 653 c 0
 381 653 373 652 366 651 c 0
 312 639 245 574 261 511 c 0
 269 478 295 458 346 432 c 2
 364 423 l 2
 411 399 439 367 451 329 c 0
 454 319 456 308 456 296 c 0
 456 290 456 284 455 278 c 2
 452 259 l 2
 439 201 401 155 338 121 c 1
 377 89 396 51 392 6 c 0
 381 -73 311 -163 212 -173 c 0
 204 -174 196 -174 188 -174 c 0
 108 -174 64 -150 22 -105 c 1
200 268 m 1
 200 269 201 270 201 271 c 1
 181 187 288 156 294 156 c 0
 324 156 382 203 393 257 c 0
 416 348 299 371 301 371 c 1
 269 371 212 321 200 268 c 1
EndSplineSet
EndChar

StartChar: uniF24D
Encoding: 263 62029 104
AltUni2: 0000a8.ffffffff.0
Width: 525
Flags: MW
HStem: 593 63<265 342 279 328 483 532>
VStem: 265 281<593 656>
LayerCount: 2
Fore
SplineSet
469 593 m 1
 483 656 l 1
 546 656 l 1
 532 593 l 1
 469 593 l 1
265 593 m 1
 279 656 l 1
 342 656 l 1
 328 593 l 1
 265 593 l 1
EndSplineSet
EndChar

StartChar: copyright
Encoding: 264 169 105
Width: 1091
Flags: MW
HStem: -241 40<409.5 616 409.5 620.5> -17 53<549 620.5> 450 52<647.5 728> 458 20G<881 881> 727 40<591 787>
VStem: 104 38 328 72 1064 42
LayerCount: 2
Fore
SplineSet
333 243 m 1xdf
 332 243 332 242 331 242 c 1
 365 385 545 502 734 502 c 0xef
 785 502 834 494 881 478 c 1
 853 409 l 2
 852 410 848 413 841 417 c 0xdf
 811 434 797 444 751 449 c 0
 742 450 733 450 723 450 c 0xef
 572 450 430 353 404 243 c 0
 378 136 467 36 631 36 c 0
 719 36 735 47 798 80 c 1
 789 21 l 1
 727 -7 715 -12 642 -16 c 0
 634 -16 625 -17 616 -17 c 0
 420 -17 301 101 333 243 c 1xdf
117 262 m 1
 116 262 115 262 114 262 c 1
 178 541 453 767 719 767 c 0
 889 767 1029 674 1083 518 c 0
 1110 440 1113 355 1092 262 c 0
 1028 -14 754 -241 487 -241 c 0
 315 -241 180 -147 126 7 c 0
 99 84 96 169 117 262 c 1
154 262 m 0
 154 261 155 260 155 259 c 0
 140 194 138 132 150 74 c 0
 185 -96 323 -201 496 -201 c 0
 736 -201 991 4 1051 263 c 0
 1071 350 1068 430 1042 502 c 0
 990 646 863 727 711 727 c 0
 471 727 215 525 154 262 c 0
EndSplineSet
EndChar

StartChar: ordfeminine
Encoding: 265 170 106
Width: 467
Flags: MW
HStem: 284 51<119 473 170 456> 366 51<190 313.5> 485 29 693 20G<246 246 367 391> 713 47<368 391>
VStem: 102 400 425 65
LayerCount: 2
Fore
SplineSet
104 309 m 1xf4
 103 309 103 309 102 309 c 1
 108 334 128 335 170 335 c 2
 473 335 l 2
 496 335 505 326 501 309 c 0
 496 289 482 284 456 284 c 2
 128 284 l 2
 110 284 103 295 103 300 c 0
 103 303 103 306 104 309 c 1xf4
156 447 m 1
 156 447 156 446 156 446 c 1
 167 491 250 514 405 514 c 1
 419 573 l 2
 428 610 430 643 425 671 c 0
 420 699 404 713 378 713 c 0
 356 713 336 709 315 701 c 0
 271 685 271 681 238 657 c 1
 246 713 l 1
 295 744 344 760 392 760 c 0
 463 760 503 696 490 607 c 0
 488 592 484 575 480 559 c 2
 476 542 l 2
 463 486 451 430 438 374 c 1xea
 374 374 l 1
 384 418 l 1
 341 383 286 366 218 366 c 0
 162 366 148 414 156 447 c 1
219 445 m 0
 218 445 218 446 217 446 c 0
 216 427 237 417 280 417 c 0
 347 417 386 440 397 485 c 1
 216 481 220 452 219 445 c 0
EndSplineSet
EndChar

StartChar: guillemotleft
Encoding: 266 171 107
Width: 700
Flags: MW
HStem: 0 21G<363 419 363 363 538 538 538 594> 0 236<170 405 170 419 170 363> 236 236<345 528 405 528> 452 20G<472 528 528 528 647 703 703 703>
VStem: 170 533<236 472>
LayerCount: 2
Fore
SplineSet
170 236 m 1xa8
 472 472 l 1
 528 472 l 1
 230 236 l 1x58
 265 191 384 44 419 0 c 1
 363 0 l 1
 170 236 l 1xa8
345 236 m 1xa8
 647 472 l 1
 703 472 l 1
 405 236 l 1x58
 439 191 559 44 594 0 c 1
 538 0 l 1
 345 236 l 1xa8
EndSplineSet
Substitution2: "'salt' Stylistic Alternatives in Latin lookup 22 subtable" uniF100
Substitution2: "'salt' Stylistic Alternatives in Greek lookup 20 subtable" uniF13B
Substitution2: "'locl' Localized Forms in Latin lookup 5 subtable" uniF100
Substitution2: "'locl' Localized Forms in Greek lookup 2 subtable" uniF13B
AlternateSubs2: "'aalt' Access All Alternates lookup 1 subtable" uniF13B uniF100
EndChar

StartChar: logicalnot
Encoding: 267 172 108
Width: 642
Flags: MW
HStem: 320 40<152 172 165 172 172 203 203 617>
VStem: 132 528
LayerCount: 2
Fore
SplineSet
137 340 m 1
 135 340 134 339 132 339 c 1
 135 354 152 357 165 360 c 0
 167 360 170 360 172 360 c 0
 182 360 193 360 203 360 c 2
 635 360 l 2
 651 360 660 353 660 345 c 0
 660 341 659 336 658 330 c 2
 613 135 l 2
 608 114 599 104 586 104 c 0
 573 104 569 114 574 134 c 2
 617 320 l 1
 162 320 l 2
 142 320 134 327 137 340 c 1
EndSplineSet
EndChar

StartChar: uni00AD
Encoding: 173 173 109
Width: 175
Flags: MW
HStem: 211 50<60 351 71 340>
VStem: 60 291<211 261>
LayerCount: 2
Fore
SplineSet
60 211 m 1
 71 261 l 1
 351 261 l 1
 340 211 l 1
 60 211 l 1
EndSplineSet
EndChar

StartChar: registered
Encoding: 268 174 110
Width: 1091
Flags: MW
HStem: -247 39<411.5 618 411.5 618.5> -2 21G<775 845 775 775> 0 21G<315 315 315 384> 218 44<443 614 614 623 434 614> 426 53<481 637 481 481> 720 38<601.5 789>
VStem: 103 41 1066 38
LayerCount: 2
Fore
SplineSet
315 0 m 1xbf
 424 479 l 1
 649 479 l 2
 838 479 909 409 894 345 c 0
 886 311 840 247 685 220 c 1
 713 179 817 39 845 -2 c 1
 775 -2 l 1xdf
 623 218 l 1
 434 218 l 1
 384 0 l 1
 315 0 l 1xbf
443 262 m 1
 500 262 557 262 614 262 c 0
 675 262 723 270 761 283 c 0
 818 303 823 329 827 340 c 0
 827 341 828 343 828 344 c 0
 836 389 806 426 637 426 c 2
 481 426 l 1
 468 371 456 317 443 262 c 1
115 256 m 1
 115 256 116 255 116 255 c 1
 187 571 485 758 718 758 c 0
 910 758 1066 631 1097 454 c 0
 1108 391 1106 325 1090 256 c 0
 1025 -21 752 -247 485 -247 c 0
 195 -247 58 3 115 256 c 1
156 255 m 0
 156 254 157 253 157 252 c 0
 142 187 140 125 152 67 c 0
 187 -103 325 -208 498 -208 c 0
 738 -208 993 -3 1053 256 c 0
 1073 343 1070 423 1044 495 c 0
 992 639 865 720 713 720 c 0
 473 720 217 518 156 255 c 0
EndSplineSet
EndChar

StartChar: macron
Encoding: 269 175 111
Width: 525
Flags: MW
HStem: 620 54<215 607 228 594>
VStem: 215 392<620 674>
LayerCount: 2
Fore
SplineSet
215 620 m 1
 228 674 l 1
 607 674 l 1
 594 620 l 1
 215 620 l 1
EndSplineSet
EndChar

StartChar: degree
Encoding: 270 176 112
Width: 350
Flags: MW
HStem: 462 40<269 312 269 312> 655 40<306 348.5>
VStem: 188 43
LayerCount: 2
Fore
SplineSet
191 578 m 0
 204 641 271 695 333 695 c 0
 400 695 436 642 423 580 c 0
 409 515 343 462 281 462 c 0
 215 462 177 516 191 578 c 0
231 579 m 1
 231 579 232 578 232 578 c 1
 222 538 247 502 291 502 c 0
 333 502 375 537 385 578 c 0
 395 619 370 655 327 655 c 0
 285 655 241 620 231 579 c 1
EndSplineSet
EndChar

StartChar: plusminus
Encoding: 271 177 113
Width: 642
Flags: MW
HStem: 89 42<106 108 108 112 112 126 126 331> 332 40<424 592 592 604 415 592>
VStem: 84 577
LayerCount: 2
Fore
SplineSet
84 108 m 0
 84 109 84 110 84 111 c 0
 84 112 86 131 106 131 c 0
 109 131 111 131 112 131 c 0
 117 131 121 131 126 131 c 2
 331 131 l 1
 377 333 l 1
 166 333 l 2
 145 333 136 340 139 353 c 0
 142 366 153 373 172 373 c 0
 180 373 188 373 196 373 c 2
 386 373 l 1
 425 542 l 2
 434 570 428 615 459 615 c 0
 470 615 473 605 473 594 c 0
 473 582 462 545 462 540 c 2
 424 372 l 1
 592 372 l 2
 606 372 620 372 634 372 c 1
 634 372 634 372 634 372 c 1
 655 372 664 365 661 352 c 0
 656 332 638 332 604 332 c 2
 415 332 l 1
 369 130 l 1
 537 130 l 2
 566 130 613 138 604 107 c 0
 599 90 582 89 536 89 c 2
 108 89 l 2
 89 89 81 95 84 108 c 0
EndSplineSet
EndChar

StartChar: uni00B2
Encoding: 272 178 114
Width: 467
Flags: MW
HStem: 349 56<147 147 202 324 324 365 365 495 134 147> 715 53<349 399.5>
VStem: 493 68
LayerCount: 2
Fore
SplineSet
199 677 m 1
 200 677 200 678 201 678 c 0
 250 727 302 768 396 768 c 0
 511 768 577 712 558 626 c 0
 548 581 505 545 464 527 c 2
 434 514 l 2
 428 512 422 509 416 506 c 0
 377 490 412 510 317 464 c 2
 202 405 l 1
 324 405 l 2
 338 405 351 405 365 405 c 2
 508 405 l 1
 495 349 l 1
 134 349 l 1
 147 405 l 1
 214 440 263 467 294 482 c 0
 401 531 477 553 491 624 c 0
 493 632 493 640 493 647 c 0
 491 696 429 715 370 715 c 0
 282 715 254 670 233 644 c 2
 221 629 l 1
 210 653 l 2
 207 658 203 666 199 677 c 1
EndSplineSet
EndChar

StartChar: uni00B3
Encoding: 273 179 115
Width: 467
Flags: MW
HStem: 339 49<292 362> 535 50<305 305 305 344 294 305> 715 51<375 432>
VStem: 131 413
LayerCount: 2
Fore
SplineSet
131 382 m 1
 146 431 l 1
 205 402 263 388 321 388 c 0
 405 388 446 425 454 461 c 0
 466 516 407 535 344 535 c 2
 294 535 l 1
 305 585 l 1
 432 596 465 619 475 663 c 0
 480 687 465 715 399 715 c 0
 344 715 288 695 231 654 c 1
 214 701 l 1
 279 744 343 766 407 766 c 0
 490 766 556 724 542 663 c 0
 531 614 486 582 457 568 c 0
 451 565 447 563 444 562 c 2
 440 560 l 1
 495 543 524 517 527 481 c 1
 543 403 413 339 311 339 c 0
 250 339 190 353 131 382 c 1
EndSplineSet
EndChar

StartChar: acute
Encoding: 274 180 116
Width: 525
Flags: MW
HStem: 538 130
VStem: 331 245<538 668>
LayerCount: 2
Fore
SplineSet
331 538 m 1
 511 668 l 1
 576 668 l 1
 468 596 l 2
 377 535 388 538 369 538 c 2
 331 538 l 1
EndSplineSet
EndChar

StartChar: mu
Encoding: 275 181 117
Width: 517
Flags: MW
HStem: -167 21G<41 41 41 106> -8 47<215.5 230.5> 0 21G<145 145 373 436 373 373> 452 20G<481 545 545 545>
VStem: 41 504
LayerCount: 2
Fore
SplineSet
41 -167 m 1xd8
 188 471 l 1
 253 471 l 1
 173 123 l 2
 170 110 168 100 167 93 c 0
 162 58 184 39 247 39 c 0xd8
 326 39 393 94 412 175 c 2
 481 472 l 1
 545 472 l 1
 436 0 l 1
 373 0 l 1xb8
 393 86 l 1
 345 28 267 -8 194 -8 c 0xd8
 178 -8 162 -5 145 0 c 1xb8
 106 -167 l 1
 41 -167 l 1xd8
EndSplineSet
EndChar

StartChar: paragraph
Encoding: 276 182 118
Width: 642
Flags: MW
HStem: -168 21G<347.5 360.5 459.5 472.5> 653 40<563 636 563 563 675 735 675 675>
VStem: 162 604
LayerCount: 2
Fore
SplineSet
167 470 m 0
 192 572 303 693 492 693 c 2
 740 693 l 2
 760 693 769 686 766 672 c 0
 763 659 753 653 735 653 c 2
 675 653 l 1
 493 -138 l 2
 488 -158 479 -168 466 -168 c 0
 453 -168 449 -158 454 -138 c 2
 636 653 l 1
 563 653 l 1
 381 -137 l 2
 376 -158 367 -168 354 -168 c 0
 341 -168 336 -159 340 -140 c 2
 428 242 l 1
 285 246 131 316 167 470 c 0
EndSplineSet
EndChar

StartChar: periodcentered
Encoding: 277 183 119
Width: 258
Flags: MW
HStem: 218 63<147 225 162 210>
VStem: 147 78<218 281>
LayerCount: 2
Fore
SplineSet
147 218 m 1
 162 281 l 1
 225 281 l 1
 210 218 l 1
 147 218 l 1
EndSplineSet
EndChar

StartChar: cedilla
Encoding: 278 184 120
Width: 467
Flags: MW
HStem: -163 145<93 254 93 254>
VStem: 93 161<-163 -18>
LayerCount: 2
Fore
SplineSet
93 -163 m 1
 204 -18 l 1
 254 -18 l 1
 151 -163 l 1
 93 -163 l 1
EndSplineSet
EndChar

StartChar: uni00B9
Encoding: 279 185 121
Width: 467
Flags: MW
HStem: 347 51<178 305 370 473 166 305> 641 51<224 236>
VStem: 166 319<347 398>
LayerCount: 2
Fore
SplineSet
224 641 m 1
 236 692 l 1
 316 693 384 718 439 767 c 1
 455 767 l 1
 370 398 l 1
 485 398 l 1
 473 347 l 1
 166 347 l 1
 178 398 l 1
 305 398 l 1
 369 675 l 1
 324 653 276 642 224 641 c 1
EndSplineSet
EndChar

StartChar: ordmasculine
Encoding: 280 186 122
Width: 467
Flags: MW
HStem: 284 51<119 473 170 456> 367 49<308 357.5 308 369.5> 710 50<359.5 426.5>
VStem: 163 66 495 63
LayerCount: 2
Fore
SplineSet
104 309 m 1
 103 309 103 309 102 309 c 1
 109 334 129 335 170 335 c 2
 473 335 l 2
 496 335 505 326 501 309 c 0
 496 289 482 284 456 284 c 2
 128 284 l 2
 110 284 103 295 103 300 c 0
 103 303 103 306 104 309 c 1
168 561 m 1
 168 560 168 559 168 558 c 1
 193 666 298 760 407 760 c 0
 510 760 579 674 553 561 c 0
 529 456 423 367 316 367 c 0
 213 367 142 451 168 561 c 1
234 566 m 1
 234 566 235 565 235 565 c 1
 228 535 226 510 229 489 c 0
 237 433 289 416 327 416 c 0
 388 416 461 448 489 568 c 0
 513 673 459 710 394 710 c 0
 325 710 258 670 234 566 c 1
EndSplineSet
EndChar

StartChar: guillemotright
Encoding: 281 187 123
Width: 700
Flags: MW
HStem: 0 21G<105 105 105 161 280 336 280 280> 0 236<280 402 280 402> 452 20G<214 270 270 270 389 445 445 445>
VStem: 105 532<0 236>
LayerCount: 2
Fore
SplineSet
105 0 m 1xb0
 402 236 l 1
 214 472 l 1
 270 472 l 1
 462 236 l 1x70
 161 0 l 1
 105 0 l 1xb0
280 0 m 1
 577 236 l 1
 389 472 l 1
 445 472 l 1
 637 236 l 1
 336 0 l 1
 280 0 l 1
EndSplineSet
Substitution2: "'salt' Stylistic Alternatives in Latin lookup 22 subtable" uniF101
Substitution2: "'salt' Stylistic Alternatives in Greek lookup 20 subtable" uniF13C
Substitution2: "'locl' Localized Forms in Latin lookup 5 subtable" uniF101
Substitution2: "'locl' Localized Forms in Greek lookup 2 subtable" uniF13C
AlternateSubs2: "'aalt' Access All Alternates lookup 1 subtable" uniF13C uniF101
EndChar

StartChar: onequarter
Encoding: 282 188 124
Width: 467
Flags: MW
HStem: -168 143<220 257 94 283 220 220> -77 52<94 241 94 418 94 304> 182 57<304 304> 271 40<146 468> 351 50<179 306 371 474 167 306>
VStem: 10 514
LayerCount: 2
Fore
SplineSet
78 294 m 2x5c
 78 294 77 293 77 293 c 1
 86 308 102 313 119 313 c 0
 126 313 137 311 146 311 c 2
 479 311 l 2x7c
 526 311 516 303 524 295 c 1
 517 268 499 271 468 271 c 2x9c
 100 271 l 2
 83 271 77 277 77 284 c 0
 77 287 78 291 78 294 c 2x5c
23 -23 m 1
 295 239 l 1
 377 239 l 1
 317 -24 l 1
 431 -24 l 1
 418 -77 l 1
 304 -77 l 1
 283 -168 l 1
 220 -168 l 1
 241 -77 l 1
 10 -77 l 1
 23 -23 l 1
232 675 m 1
 244 725 l 1
 408 729 407 766 455 766 c 1
 371 401 l 1
 486 401 l 1
 474 351 l 1
 167 351 l 1
 179 401 l 1
 306 401 l 1
 373 692 l 1
 332 681 285 675 232 675 c 1
94 -25 m 1
 257 -25 l 1
 304 182 l 1
 239 116 l 1
 94 -25 l 1
EndSplineSet
Ligature2: "'frac' Diagonal Fractions in Latin lookup 16 subtable" one fraction four
Ligature2: "'frac' Diagonal Fractions in Latin lookup 16 subtable" one slash four
Ligature2: "'frac' Diagonal Fractions in Greek lookup 15 subtable" one fraction four
Ligature2: "'frac' Diagonal Fractions in Greek lookup 15 subtable" one slash four
Ligature2: "'frac' Diagonal Fractions in Thai lookup 14 subtable" one fraction four
Ligature2: "'frac' Diagonal Fractions in Thai lookup 14 subtable" one slash four
EndChar

StartChar: onehalf
Encoding: 283 189 125
Width: 467
Flags: MW
HStem: -170 53<86 187 187 237 237 376> 197 49<238.5 294> 271 40<146 468> 348 50<180 307 372 475 168 307>
VStem: 14 510
LayerCount: 2
Fore
SplineSet
78 294 m 2
 78 294 77 293 77 293 c 1
 86 308 102 313 119 313 c 0
 126 313 137 311 146 311 c 2
 479 311 l 2
 526 311 516 303 524 295 c 1
 517 268 499 271 468 271 c 2
 100 271 l 2
 83 271 77 277 77 284 c 0
 77 287 78 291 78 294 c 2
83 171 m 2xf8
 83 170 84 169 84 168 c 1
 150 224 200 246 277 246 c 0
 394 246 461 194 443 116 c 1
 430 32 323 13 214 -47 c 2
 86 -117 l 1
 187 -117 l 2
 204 -117 220 -117 237 -117 c 2
 389 -117 l 1
 376 -170 l 1
 14 -170 l 1
 26 -119 l 1
 172 -38 l 2
 260 11 358 36 373 118 c 0
 382 168 337 197 251 197 c 0
 194 197 150 174 130 151 c 2
 105 123 l 1
 83 171 l 2xf8
233 672 m 1
 245 722 l 1
 409 726 408 763 456 763 c 1
 372 398 l 1
 487 398 l 1
 475 348 l 1
 168 348 l 1
 180 398 l 1
 307 398 l 1
 374 689 l 1
 333 678 286 672 233 672 c 1
EndSplineSet
Ligature2: "'frac' Diagonal Fractions in Latin lookup 16 subtable" one fraction two
Ligature2: "'frac' Diagonal Fractions in Latin lookup 16 subtable" one slash two
Ligature2: "'frac' Diagonal Fractions in Greek lookup 15 subtable" one fraction two
Ligature2: "'frac' Diagonal Fractions in Greek lookup 15 subtable" one slash two
Ligature2: "'frac' Diagonal Fractions in Thai lookup 14 subtable" one fraction two
Ligature2: "'frac' Diagonal Fractions in Thai lookup 14 subtable" one slash two
EndChar

StartChar: threequarters
Encoding: 284 190 126
Width: 467
Flags: MW
HStem: -168 144<220 251 88 283 220 220> -77 53<88 241 317 418> 183 56<298 298> 271 40<146 468> 334 52<288.5 361> 536 51<305 305 305 342 293 305> 717 51<378.5 431.5>
VStem: 452 74
LayerCount: 2
Fore
SplineSet
78 294 m 2x57
 78 294 77 293 77 293 c 1
 86 308 102 313 119 313 c 0
 126 313 137 311 146 311 c 2
 479 311 l 2x77
 526 311 516 303 524 295 c 1
 517 268 499 271 468 271 c 2x97
 100 271 l 2
 83 271 77 277 77 284 c 0
 77 287 78 291 78 294 c 2x57
23 -23 m 1
 295 239 l 1
 377 239 l 1
 317 -24 l 1
 431 -24 l 1
 418 -77 l 1
 304 -77 l 1
 283 -168 l 1
 220 -168 l 1
 241 -77 l 1
 10 -77 l 1
 23 -23 l 1
128 369 m 1
 141 421 l 1
 199 398 258 386 319 386 c 0
 414 386 458 435 452 481 c 0
 448 508 422 536 342 536 c 2
 293 536 l 1
 305 587 l 1
 408 592 465 618 476 666 c 0
 482 693 465 717 398 717 c 0
 347 717 293 699 236 664 c 1
 218 711 l 1
 283 749 347 768 410 768 c 0
 499 768 555 723 542 664 c 0
 526 596 464 571 439 559 c 1x5f
 489 544 518 521 526 490 c 0
 529 481 529 471 526 460 c 0
 510 388 411 334 311 334 c 0
 249 334 188 346 128 369 c 1
88 -24 m 1
 251 -24 l 1
 298 183 l 1
 233 117 l 1
 88 -24 l 1
EndSplineSet
Ligature2: "'frac' Diagonal Fractions in Latin lookup 16 subtable" three fraction four
Ligature2: "'frac' Diagonal Fractions in Latin lookup 16 subtable" three slash four
Ligature2: "'frac' Diagonal Fractions in Greek lookup 15 subtable" three fraction four
Ligature2: "'frac' Diagonal Fractions in Greek lookup 15 subtable" three slash four
Ligature2: "'frac' Diagonal Fractions in Thai lookup 14 subtable" three fraction four
Ligature2: "'frac' Diagonal Fractions in Thai lookup 14 subtable" three slash four
EndChar

StartChar: questiondown
Encoding: 285 191 127
Width: 496
Flags: MW
HStem: -176 50<167 229.5> 445 78<298 394 316 376>
VStem: 52 61
LayerCount: 2
Fore
SplineSet
52 -25 m 1
 52 -30 l 1
 71 51 112 72 132 87 c 0
 140 93 145 97 147 98 c 0
 214 154 257 225 277 311 c 2
 285 346 l 1
 347 346 l 1
 343 329 l 2
 341 322 339 314 339 311 c 0
 309 175 240 111 187 67 c 0
 164 48 152 38 151 37 c 0
 134 20 123 -2 117 -29 c 0
 101 -101 130 -126 204 -126 c 0
 267 -126 331 -108 403 -70 c 1
 410 -123 l 1
 336 -158 264 -176 195 -176 c 0
 79 -176 51 -121 48 -74 c 0
 47 -58 48 -42 52 -25 c 1
298 445 m 1
 316 523 l 1
 394 523 l 1
 376 445 l 1
 298 445 l 1
EndSplineSet
EndChar

StartChar: Agrave
Encoding: 286 192 128
Width: 675
Flags: MW
HStem: 1 21G<30 30 30 95 573 573 573 646> 211 52 630 74<479 480.5> 684 20G<462 538 538 538> 761 90
VStem: 30 616<1 1>
LayerCount: 2
Fore
SplineSet
391 850 m 1xdc
 418 850 446 851 473 851 c 0
 481 851 545 814 634 761 c 1
 571 761 l 2
 568 761 485 803 433 829 c 2
 391 850 l 1xdc
30 1 m 1
 462 704 l 1
 538 704 l 1
 646 1 l 1
 573 1 l 1
 540 211 l 1
 223 211 l 1
 95 1 l 1
 30 1 l 1
257 264 m 1
 534 262 l 1
 514 397 482 630 479 630 c 0xec
 433 555 359 433 257 264 c 1
EndSplineSet
Substitution2: "'ss01' Style Set 1 in Latin lookup 24 subtable" uniF25E
Substitution2: "'salt' Stylistic Alternatives in Latin lookup 22 subtable" uniF25E
Substitution2: "'locl' Localized Forms in Latin lookup 6 subtable" uniF25E
Substitution2: "'aalt' Access All Alternates lookup 0 subtable" uniF25E
EndChar

StartChar: Aacute
Encoding: 287 193 129
Width: 675
Flags: MW
HStem: 1 21G<30 30 30 95 573 573 573 646> 211 52 630 74<479 480.5> 684 20G<462 538 538 538> 760 90
VStem: 30 646
LayerCount: 2
Fore
SplineSet
390 760 m 1xdc
 560 840 l 1
 585 850 l 1
 585 850 585 850 585 850 c 1
 591 850 l 1
 591 850 591 850 591 850 c 1
 599 850 l 1
 676 850 l 1
 468 762 451 760 449 760 c 0
 429 760 410 760 390 760 c 1xdc
30 1 m 1
 462 704 l 1xec
 538 704 l 1
 646 1 l 1
 573 1 l 1
 540 211 l 1
 223 211 l 1
 95 1 l 1
 30 1 l 1
257 264 m 1
 534 262 l 1
 514 397 482 630 479 630 c 0
 433 555 359 433 257 264 c 1
EndSplineSet
Substitution2: "'ss01' Style Set 1 in Latin lookup 24 subtable" uniF25F
Substitution2: "'salt' Stylistic Alternatives in Latin lookup 22 subtable" uniF25F
Substitution2: "'locl' Localized Forms in Latin lookup 6 subtable" uniF25F
Substitution2: "'aalt' Access All Alternates lookup 0 subtable" uniF25F
EndChar

StartChar: Acircumflex
Encoding: 288 194 130
Width: 675
Flags: MW
HStem: 0 21G<29 29 29 94 572 572 572 645> 210 52 629 74<478 479.5> 683 20G<461 537 537 537> 857 40<529 529>
VStem: 29 627
LayerCount: 2
Fore
SplineSet
343 727 m 1xdc
 513 897 l 1
 576 897 l 1
 656 727 l 1
 605 727 l 1
 529 857 l 1
 462 792 l 2
 432 763 409 741 394 727 c 1
 343 727 l 1xdc
29 0 m 1
 461 703 l 1
 537 703 l 1
 645 0 l 1
 572 0 l 1
 539 210 l 1
 222 210 l 1
 94 0 l 1
 29 0 l 1
256 263 m 1
 533 261 l 1
 513 396 481 629 478 629 c 0xec
 432 554 358 432 256 263 c 1
EndSplineSet
Substitution2: "'ss01' Style Set 1 in Latin lookup 24 subtable" uniF261
Substitution2: "'salt' Stylistic Alternatives in Latin lookup 22 subtable" uniF261
Substitution2: "'locl' Localized Forms in Latin lookup 6 subtable" uniF261
Substitution2: "'aalt' Access All Alternates lookup 0 subtable" uniF261
EndChar

StartChar: Atilde
Encoding: 289 195 131
Width: 675
Flags: MW
HStem: 0 21G<29 29 29 94 572 572 572 645> 210 52 629 74<478 479.5> 683 20G<461 537 537 537> 721 50<558.5 612> 835 50<451.5 489.5>
VStem: 29 689
LayerCount: 2
Fore
SplineSet
29 0 m 1xd6
 461 703 l 1
 537 703 l 1
 645 0 l 1
 572 0 l 1
 539 210 l 1
 222 210 l 1
 94 0 l 1
 29 0 l 1xd6
256 263 m 1
 533 261 l 1
 513 396 481 629 478 629 c 0xe6
 432 554 358 432 256 263 c 1
331 725 m 2
 331 724 330 723 330 722 c 1
 332 730 334 738 336 746 c 0
 364 829 411 885 466 885 c 0
 531 885 525 771 592 771 c 0
 645 771 657 852 668 883 c 1
 718 883 l 1
 696 789 642 721 582 721 c 0xde
 517 721 522 835 457 835 c 0
 446 835 436 832 427 826 c 0
 406 812 381 748 381 725 c 1
 331 725 l 2
EndSplineSet
Substitution2: "'ss01' Style Set 1 in Latin lookup 24 subtable" uniF260
Substitution2: "'salt' Stylistic Alternatives in Latin lookup 22 subtable" uniF260
Substitution2: "'locl' Localized Forms in Latin lookup 6 subtable" uniF260
Substitution2: "'aalt' Access All Alternates lookup 0 subtable" uniF260
EndChar

StartChar: Adieresis
Encoding: 290 196 132
Width: 675
Flags: MW
HStem: 0 21G<29 29 29 94 572 572 572 645> 210 52 629 74<478 479.5> 683 20G<461 537 537 537> 816 63<392 470 407 455 611 659>
VStem: 29 645
LayerCount: 2
Fore
SplineSet
392 816 m 1xdc
 407 879 l 1
 470 879 l 1
 455 816 l 1
 392 816 l 1xdc
596 816 m 1
 611 879 l 1
 674 879 l 1
 659 816 l 1
 596 816 l 1
29 0 m 1
 461 703 l 1
 537 703 l 1
 645 0 l 1
 572 0 l 1
 539 210 l 1
 222 210 l 1
 94 0 l 1xec
 29 0 l 1
256 263 m 1
 533 261 l 1
 513 396 481 629 478 629 c 0
 432 554 358 432 256 263 c 1
EndSplineSet
EndChar

StartChar: Aring
Encoding: 291 197 133
Width: 675
Flags: MW
HStem: 0 21G<29 29 29 94 572 572 572 645> 210 53 668 33<477.5 543> 681 20G<477.5 518> 843 52<510.5 548.5>
VStem: 393 55 576 54
LayerCount: 2
Fore
SplineSet
29 0 m 1xda
 440 664 l 1
 413 680 397 702 393 729 c 0
 382 802 451 895 536 895 c 0
 605 895 642 839 627 774 c 0
 617 730 580 686 543 668 c 1xee
 645 0 l 1
 572 0 l 1
 539 210 l 1
 222 210 l 1
 94 0 l 1
 29 0 l 1xda
259 264 m 1
 535 262 l 1
 529 297 520 351 511 423 c 2
 494 543 l 2
 492 559 489 572 487 584 c 2
 484 606 l 2
 483 615 482 623 481 630 c 1
 435 555 361 433 259 264 c 1
455 774 m 1
 453 772 l 1
 450 759 448 748 448 739 c 0
 448 721 460 701 495 701 c 0
 541 701 567 734 576 797 c 0
 580 824 567 843 530 843 c 0
 491 843 466 820 455 774 c 1
EndSplineSet
EndChar

StartChar: AE
Encoding: 292 198 134
Width: 892
Flags: MW
HStem: 0 56<510 773 773 848> 225 53<277 313 277 480 242 313> 335 53<587 881 574 894> 641 54<645 981 645 645>
VStem: 29 964<0 695>
LayerCount: 2
Fore
SplineSet
29 0 m 1
 485 695 l 1
 993 695 l 1
 981 641 l 1
 645 641 l 1
 587 388 l 1
 894 388 l 1
 881 335 l 1
 574 335 l 1
 510 56 l 1
 773 56 l 2
 802 56 832 56 861 56 c 1
 848 0 l 1
 428 0 l 1
 480 225 l 1
 242 225 l 1
 95 0 l 1
 29 0 l 1
277 278 m 1
 349 278 421 279 493 279 c 1
 577 642 l 1
 517 642 l 1
 473 575 321 344 277 278 c 1
EndSplineSet
EndChar

StartChar: Ccedilla
Encoding: 293 199 135
Width: 671
Flags: MW
HStem: -193 145<234 395 234 395> -15 51<345 420> 659 52<484.5 604 475 605>
VStem: 150 69
LayerCount: 2
Fore
SplineSet
161 347 m 1
 159 347 157 347 155 347 c 1
 200 538 377 711 573 711 c 0
 635 711 697 700 758 677 c 1
 729 608 l 1
 682 636 649 659 561 659 c 0
 408 659 266 511 229 348 c 0
 191 183 266 36 420 36 c 0
 450 36 480 39 506 45 c 0
 563 59 569 63 622 92 c 2
 633 98 l 1
 625 40 l 1
 563 8 547 -3 471 -11 c 0
 452 -13 431 -15 409 -15 c 0
 281 -15 191 60 161 170 c 0
 146 225 146 284 161 347 c 1
234 -193 m 1
 345 -48 l 1
 362 -48 378 -48 395 -48 c 1
 292 -193 l 1
 234 -193 l 1
EndSplineSet
EndChar

StartChar: Egrave
Encoding: 294 200 136
Width: 625
Flags: MW
HStem: 1 56<182 582> 335 53<258 615 246 627> 641 53<317 715 317 317> 641 210<413.5 431 413.5 715 317 431>
VStem: 99 628
LayerCount: 2
Fore
SplineSet
345 850 m 1xd8
 372 850 400 851 427 851 c 0
 435 851 499 814 588 761 c 1
 525 761 l 2
 522 761 439 803 387 829 c 2
 345 850 l 1xd8
99 1 m 1
 259 694 l 1
 727 694 l 1
 715 641 l 1
 317 641 l 1xe8
 258 388 l 1
 627 388 l 1
 615 335 l 1
 246 335 l 1
 182 57 l 1
 595 57 l 1
 582 1 l 1
 99 1 l 1
EndSplineSet
Substitution2: "'ss01' Style Set 1 in Latin lookup 24 subtable" uniF263
Substitution2: "'salt' Stylistic Alternatives in Latin lookup 22 subtable" uniF263
Substitution2: "'locl' Localized Forms in Latin lookup 6 subtable" uniF263
Substitution2: "'aalt' Access All Alternates lookup 0 subtable" uniF263
EndChar

StartChar: Eacute
Encoding: 295 201 137
Width: 625
Flags: MW
HStem: 1 56<182 582> 335 53<258 615 246 627> 641 53<317 715 317 317> 641 209<582 590 590 596 596 673 582 715>
VStem: 99 628
LayerCount: 2
Fore
SplineSet
387 760 m 1xd8
 557 840 l 1
 582 850 l 2
 584 850 587 850 590 850 c 2
 596 850 l 1
 673 850 l 1
 552 799 l 2
 491 773 456 760 446 760 c 2
 387 760 l 1xd8
99 1 m 1
 259 694 l 1
 727 694 l 1
 715 641 l 1
 317 641 l 1xe8
 258 388 l 1
 627 388 l 1
 615 335 l 1
 246 335 l 1
 182 57 l 1
 595 57 l 1
 582 1 l 1
 99 1 l 1
EndSplineSet
Substitution2: "'ss01' Style Set 1 in Latin lookup 24 subtable" uniF264
Substitution2: "'salt' Stylistic Alternatives in Latin lookup 22 subtable" uniF264
Substitution2: "'locl' Localized Forms in Latin lookup 6 subtable" uniF264
Substitution2: "'aalt' Access All Alternates lookup 0 subtable" uniF264
EndChar

StartChar: Ecircumflex
Encoding: 296 202 138
Width: 625
Flags: MW
HStem: 0 56<181 581> 334 53<257 614 245 626> 640 53<316 714 316 316> 857 40<489 489>
VStem: 98 628
LayerCount: 2
Fore
SplineSet
303 727 m 1
 473 897 l 1
 524 897 l 1
 616 727 l 1
 565 727 l 1
 489 857 l 1
 422 792 l 2
 392 763 369 741 354 727 c 1
 303 727 l 1
98 0 m 1
 258 693 l 1
 726 693 l 1
 714 640 l 1
 316 640 l 1
 257 387 l 1
 626 387 l 1
 614 334 l 1
 245 334 l 1
 181 56 l 1
 594 56 l 1
 581 0 l 1
 98 0 l 1
EndSplineSet
Substitution2: "'ss01' Style Set 1 in Latin lookup 24 subtable" uniF265
Substitution2: "'salt' Stylistic Alternatives in Latin lookup 22 subtable" uniF265
Substitution2: "'locl' Localized Forms in Latin lookup 6 subtable" uniF265
Substitution2: "'aalt' Access All Alternates lookup 0 subtable" uniF265
EndChar

StartChar: Edieresis
Encoding: 297 203 139
Width: 625
Flags: MW
HStem: 0 56<181 581> 334 53<257 614 245 626> 640 53<316 714 316 316> 815 63<346 424 361 409 565 613>
VStem: 98 628
LayerCount: 2
Fore
SplineSet
550 815 m 1
 565 878 l 1
 628 878 l 1
 613 815 l 1
 550 815 l 1
346 815 m 1
 361 878 l 1
 424 878 l 1
 409 815 l 1
 346 815 l 1
98 0 m 1
 258 693 l 1
 726 693 l 1
 714 640 l 1
 316 640 l 1
 257 387 l 1
 626 387 l 1
 614 334 l 1
 245 334 l 1
 181 56 l 1
 594 56 l 1
 581 0 l 1
 98 0 l 1
EndSplineSet
EndChar

StartChar: Igrave
Encoding: 298 204 140
Width: 267
Flags: MW
HStem: 1 21G<100 100 100 170> 676 20G<260 330 330 330> 761 90
VStem: 100 317
LayerCount: 2
Fore
SplineSet
173 850 m 1
 200 850 228 851 255 851 c 0
 258 851 334 813 417 761 c 1
 353 761 l 2
 350 761 267 803 215 829 c 2
 173 850 l 1
100 1 m 1
 260 696 l 1
 330 696 l 1
 170 1 l 1
 100 1 l 1
EndSplineSet
Substitution2: "'ss01' Style Set 1 in Latin lookup 24 subtable" uniF266
Substitution2: "'salt' Stylistic Alternatives in Latin lookup 22 subtable" uniF266
Substitution2: "'locl' Localized Forms in Latin lookup 6 subtable" uniF266
Substitution2: "'aalt' Access All Alternates lookup 0 subtable" uniF266
EndChar

StartChar: Iacute
Encoding: 299 205 141
Width: 267
Flags: MW
HStem: 677 20G<257 327 327 327> 760 91
VStem: 97 418
LayerCount: 2
Fore
SplineSet
229 760 m 2
 229 761 228 761 228 762 c 0
 456 867 418 851 435 851 c 2
 480 851 l 2
 496 851 507 851 515 850 c 1
 394 799 l 2
 333 773 298 760 288 760 c 2
 229 760 l 2
97 2 m 1
 257 697 l 1
 327 697 l 1
 167 2 l 1
 97 2 l 1
EndSplineSet
Substitution2: "'ss01' Style Set 1 in Latin lookup 24 subtable" uniF267
Substitution2: "'salt' Stylistic Alternatives in Latin lookup 22 subtable" uniF267
Substitution2: "'locl' Localized Forms in Latin lookup 6 subtable" uniF267
Substitution2: "'aalt' Access All Alternates lookup 0 subtable" uniF267
EndChar

StartChar: Icircumflex
Encoding: 300 206 142
Width: 267
Flags: MW
HStem: 0 21G<100 100 100 170> 675 20G<260 330 330 330> 857 40<333 333>
VStem: 100 360
LayerCount: 2
Fore
SplineSet
145 727 m 1
 317 897 l 1
 368 897 l 1
 460 727 l 1
 410 727 l 1
 333 857 l 1
 264 792 l 2
 233 763 210 741 195 727 c 1
 145 727 l 1
100 0 m 1
 260 695 l 1
 330 695 l 1
 170 0 l 1
 100 0 l 1
EndSplineSet
EndChar

StartChar: Idieresis
Encoding: 301 207 143
Width: 267
Flags: MW
HStem: 0 21G<99 99 99 169> 675 20G<259 329 329 329> 815 63<188 266 203 251 407 455>
VStem: 99 371
LayerCount: 2
Fore
SplineSet
392 815 m 1
 407 878 l 1
 470 878 l 1
 455 815 l 1
 392 815 l 1
188 815 m 1
 203 878 l 1
 266 878 l 1
 251 815 l 1
 188 815 l 1
99 0 m 1
 259 695 l 1
 329 695 l 1
 169 0 l 1
 99 0 l 1
EndSplineSet
EndChar

StartChar: Eth
Encoding: 302 208 144
Width: 746
Flags: MW
HStem: 0 53<180 306 306 348 348 349> 315 51<61 183 72 172 252 440> 641 54<316 484 316 316>
VStem: 707 69
LayerCount: 2
Fore
SplineSet
61 315 m 1
 72 366 l 1
 183 366 l 1
 259 695 l 1
 508 695 l 2
 517 695 526 695 535 695 c 0
 705 695 810 529 767 342 c 0
 721 144 538 0 349 0 c 2
 99 0 l 1
 172 315 l 1
 61 315 l 1
180 53 m 1
 306 53 l 1
 348 53 l 2
 433 53 511 81 561 121 c 0
 586 141 608 164 627 190 c 0
 685 269 709 359 707 442 c 0
 704 547 651 641 484 641 c 2
 316 641 l 1
 252 366 l 1
 451 366 l 1
 440 315 l 1
 241 315 l 1
 180 53 l 1
EndSplineSet
EndChar

StartChar: Ntilde
Encoding: 303 209 145
Width: 708
Flags: MW
HStem: 0 58<510 558 558 558 558 608> 637 58<310 310> 723 51<590.5 627.5> 837 47<459.5 491.5 451 505.5>
VStem: 100 668
LayerCount: 2
Fore
SplineSet
100 0 m 1
 260 695 l 1
 358 695 l 1
 558 58 l 1
 705 695 l 1
 768 695 l 1
 608 0 l 1
 510 0 l 1
 310 637 l 1
 163 0 l 1
 100 0 l 1
347 727 m 1
 345 721 l 1
 366 817 421 884 481 884 c 0
 502 884 522 869 530 856 c 0
 562 800 573 774 608 774 c 0
 662 774 673 857 684 886 c 1
 734 886 l 1
 712 790 657 723 598 723 c 0xf8
 533 723 538 837 473 837 c 0
 446 837 397 782 397 727 c 1
 347 727 l 1
EndSplineSet
EndChar

StartChar: Ograve
Encoding: 304 210 146
Width: 783
Flags: MW
HStem: -17 52<361.5 473.5 361.5 477> 659 52<468 580.5> 761 90
VStem: 128 68 746 67
LayerCount: 2
Fore
SplineSet
445 850 m 1
 472 850 500 851 527 851 c 0
 535 851 599 814 688 761 c 1
 625 761 l 2
 622 761 539 803 487 829 c 2
 445 850 l 1
139 348 m 1
 139 347 139 347 139 346 c 1
 186 550 375 711 555 711 c 0
 736 711 850 551 803 347 c 0
 756 144 567 -17 387 -17 c 0
 205 -17 91 143 139 348 c 1
209 346 m 1
 209 346 208 346 208 346 c 1
 186 256 196 184 232 127 c 0
 270 66 324 35 399 35 c 0
 548 35 695 179 734 346 c 0
 756 441 748 517 711 574 c 1
 711 574 711 574 711 574 c 1
 674 631 618 659 543 659 c 0
 393 659 253 535 209 346 c 1
EndSplineSet
Substitution2: "'ss01' Style Set 1 in Latin lookup 24 subtable" uniF272
Substitution2: "'salt' Stylistic Alternatives in Latin lookup 22 subtable" uniF272
Substitution2: "'locl' Localized Forms in Latin lookup 6 subtable" uniF272
Substitution2: "'aalt' Access All Alternates lookup 0 subtable" uniF272
EndChar

StartChar: Oacute
Encoding: 305 211 147
Width: 783
Flags: MW
HStem: -17 52<361.5 473.5 361.5 477> 659 52<468 580.5> 760 90
VStem: 128 68 746 67
LayerCount: 2
Fore
SplineSet
443 760 m 1
 613 840 l 1
 638 850 l 1
 642 850 l 1
 652 850 l 1
 729 850 l 1
 608 799 l 2
 547 773 512 760 502 760 c 0
 482 760 463 760 443 760 c 1
139 348 m 1
 139 347 139 347 139 346 c 1
 186 550 375 711 555 711 c 0
 736 711 850 551 803 347 c 0
 756 144 567 -17 387 -17 c 0
 205 -17 91 143 139 348 c 1
209 346 m 1
 209 346 208 346 208 346 c 1
 186 256 196 184 232 127 c 0
 270 66 324 35 399 35 c 0
 548 35 695 179 734 346 c 0
 756 441 748 517 711 574 c 1
 711 574 711 574 711 574 c 1
 674 631 618 659 543 659 c 0
 393 659 253 535 209 346 c 1
EndSplineSet
Substitution2: "'ss01' Style Set 1 in Latin lookup 24 subtable" uniF273
Substitution2: "'salt' Stylistic Alternatives in Latin lookup 22 subtable" uniF273
Substitution2: "'locl' Localized Forms in Latin lookup 6 subtable" uniF273
Substitution2: "'aalt' Access All Alternates lookup 0 subtable" uniF273
EndChar

StartChar: Ocircumflex
Encoding: 306 212 148
Width: 783
Flags: MW
HStem: -18 52<360.5 472.5 360.5 476> 658 52<467 579.5> 857 40<589 589>
VStem: 127 68 745 67
LayerCount: 2
Fore
SplineSet
403 727 m 1
 573 897 l 1
 624 897 l 1
 716 727 l 1
 665 727 l 1
 589 857 l 1
 522 792 l 2
 492 763 469 741 454 727 c 1
 403 727 l 1
138 347 m 1
 138 346 138 346 138 345 c 1
 185 549 374 710 554 710 c 0
 735 710 849 550 802 346 c 0
 755 143 566 -18 386 -18 c 0
 204 -18 90 142 138 347 c 1
208 345 m 1
 208 345 207 345 207 345 c 1
 185 255 195 183 231 126 c 0
 269 65 323 34 398 34 c 0
 547 34 694 178 733 345 c 0
 755 440 747 516 710 573 c 1
 710 573 710 573 710 573 c 1
 673 630 617 658 542 658 c 0
 392 658 252 534 208 345 c 1
EndSplineSet
Substitution2: "'ss01' Style Set 1 in Latin lookup 24 subtable" uniF275
Substitution2: "'salt' Stylistic Alternatives in Latin lookup 22 subtable" uniF275
Substitution2: "'locl' Localized Forms in Latin lookup 6 subtable" uniF275
Substitution2: "'aalt' Access All Alternates lookup 0 subtable" uniF275
EndChar

StartChar: Otilde
Encoding: 307 213 149
Width: 783
Flags: MW
HStem: -18 52<358.5 470.5 358.5 476> 658 52<465 577.5> 741 51<611.5 665.5> 855 51<502 546>
VStem: 127 66 743 70
LayerCount: 2
Fore
SplineSet
138 347 m 1
 137 346 137 346 136 345 c 1
 183 549 372 710 552 710 c 0
 735 710 850 550 802 346 c 0
 755 143 566 -18 386 -18 c 0
 204 -18 90 142 138 347 c 1
206 345 m 1
 206 345 205 345 205 345 c 1
 183 255 193 183 229 126 c 0
 267 65 321 34 396 34 c 0
 545 34 692 178 731 345 c 0
 753 440 745 516 708 573 c 1
 708 573 708 573 708 573 c 1
 671 630 615 658 540 658 c 0
 390 658 250 534 206 345 c 1
385 745 m 2
 385 744 385 744 385 743 c 1
 406 839 461 906 522 906 c 0
 589 906 577 792 646 792 c 0
 699 792 711 873 722 904 c 1
 772 904 l 1
 750 808 695 741 636 741 c 0
 573 741 579 855 513 855 c 0
 491 855 472 841 462 822 c 0
 452 803 440 750 435 745 c 1
 385 745 l 2
EndSplineSet
Substitution2: "'ss01' Style Set 1 in Latin lookup 24 subtable" uniF274
Substitution2: "'salt' Stylistic Alternatives in Latin lookup 22 subtable" uniF274
Substitution2: "'locl' Localized Forms in Latin lookup 6 subtable" uniF274
Substitution2: "'aalt' Access All Alternates lookup 0 subtable" uniF274
EndChar

StartChar: Odieresis
Encoding: 308 214 150
Width: 783
Flags: MW
HStem: -18 52<360.5 472.5 360.5 476> 658 52<467 579.5> 816 63<446 524 461 509 665 713>
VStem: 127 68 745 67
LayerCount: 2
Fore
SplineSet
650 816 m 1
 665 879 l 1
 728 879 l 1
 713 816 l 1
 650 816 l 1
446 816 m 1
 461 879 l 1
 524 879 l 1
 509 816 l 1
 446 816 l 1
138 347 m 1
 138 346 138 346 138 345 c 1
 185 549 374 710 554 710 c 0
 735 710 849 550 802 346 c 0
 755 143 566 -18 386 -18 c 0
 204 -18 90 142 138 347 c 1
208 345 m 1
 208 345 207 345 207 345 c 1
 185 255 195 183 231 126 c 0
 269 65 323 34 398 34 c 0
 547 34 694 178 733 345 c 0
 755 440 747 516 710 573 c 1
 710 573 710 573 710 573 c 1
 673 630 617 658 542 658 c 0
 392 658 252 534 208 345 c 1
EndSplineSet
EndChar

StartChar: multiply
Encoding: 309 215 151
Width: 642
Flags: MW
HStem: 74 377<163.5 258.5 246 509.5>
VStem: 147 463<87 434.5>
LayerCount: 2
Fore
SplineSet
151 93 m 1
 150 91 148 89 147 87 c 1
 147 88 149 91 153 97 c 0
 242 169 307 223 349 259 c 1
 332 281 313 304 297 327 c 2
 286 340 l 2
 251 385 231 412 227 421 c 0
 222 439 241 451 251 451 c 0
 266 451 342 345 386 288 c 1
 434 327 524 402 565 433 c 0
 579 444 588 449 591 450 c 0
 612 450 610 435 610 434 c 0
 610 431 477 326 408 262 c 1
 428 235 449 203 471 181 c 1
 500 143 518 120 524 112 c 0
 530 104 532 98 531 93 c 0
 527 75 512 74 507 74 c 0
 496 74 418 179 373 236 c 1
 280 160 l 2
 259 139 203 92 185 81 c 0
 180 78 175 75 171 74 c 0
 156 74 149 80 151 93 c 1
EndSplineSet
EndChar

StartChar: Oslash
Encoding: 310 216 152
Width: 817
Flags: MW
HStem: -17 51<386.5 496.5 386.5 515.5> 660 51<477 585.5>
VStem: 127 64 779 68
LayerCount: 2
Fore
SplineSet
138 346 m 1
 138 346 137 346 137 346 c 1
 184 550 383 711 571 711 c 0
 634 711 691 693 741 658 c 1
 825 750 l 1
 861 721 l 1
 776 628 l 1
 809 592 830 549 840 499 c 0
 894 229 628 -17 403 -17 c 0
 338 -17 281 1 233 36 c 1
 224 25 210 10 192 -10 c 2
 150 -56 l 1
 114 -27 l 1
 199 67 l 1
 170 96 149 135 136 184 c 0
 123 233 124 287 138 346 c 1
203 347 m 0
 203 346 202 346 202 345 c 0
 179 244 191 165 238 108 c 1
 289 164 366 248 469 361 c 2
 700 616 l 1
 659 645 612 660 559 660 c 0
 391 660 244 527 203 347 c 0
271 75 m 2
 271 76 270 76 270 77 c 1
 312 48 360 34 413 34 c 0
 580 34 727 165 769 345 c 0
 791 441 779 520 734 583 c 1
 683 527 606 443 503 330 c 2
 271 75 l 2
EndSplineSet
EndChar

StartChar: Ugrave
Encoding: 311 217 153
Width: 692
Flags: MW
HStem: -15 54<343.5 394.5 343.5 403.5> 677 20G<687 752 752 752> 678 20G<255 325 325 325> 761 90
VStem: 146 68
LayerCount: 2
Fore
SplineSet
399 850 m 1xb8
 426 850 453 851 480 851 c 0
 487 851 585 798 642 761 c 1
 579 761 l 2
 576 761 493 803 441 829 c 2
 399 850 l 1xb8
154 248 m 2
 255 698 l 1
 325 698 l 1xb8
 220 240 l 2
 211 202 209 169 214 141 c 0
 224 84 260 60 296 48 c 0
 314 42 333 39 354 39 c 0
 435 39 547 81 582 242 c 2
 687 697 l 1
 752 697 l 1xd8
 648 244 l 2
 611 82 465 -15 342 -15 c 0
 197 -15 120 99 154 248 c 2
EndSplineSet
Substitution2: "'ss01' Style Set 1 in Latin lookup 24 subtable" uniF276
Substitution2: "'salt' Stylistic Alternatives in Latin lookup 22 subtable" uniF276
Substitution2: "'locl' Localized Forms in Latin lookup 6 subtable" uniF276
Substitution2: "'aalt' Access All Alternates lookup 0 subtable" uniF276
EndChar

StartChar: Uacute
Encoding: 312 218 154
Width: 692
Flags: MW
HStem: -15 54<345.5 396.5 345.5 405.5> 677 20G<689 754 754 754> 678 20G<257 327 327 327> 760 90
VStem: 148 68
LayerCount: 2
Fore
SplineSet
441 760 m 1xb8
 611 840 l 1
 636 850 l 1
 640 850 l 1
 650 850 l 1
 727 850 l 1
 606 799 l 2
 545 773 510 760 500 760 c 0
 480 760 461 760 441 760 c 1xb8
156 248 m 2
 257 698 l 1
 327 698 l 1xb8
 222 240 l 2
 213 202 211 169 216 141 c 0
 226 84 262 60 298 48 c 0
 316 42 335 39 356 39 c 0
 437 39 549 81 584 242 c 2
 689 697 l 1
 754 697 l 1xd8
 650 244 l 2
 613 82 467 -15 344 -15 c 0
 199 -15 122 99 156 248 c 2
EndSplineSet
Substitution2: "'ss01' Style Set 1 in Latin lookup 24 subtable" uniF277
Substitution2: "'salt' Stylistic Alternatives in Latin lookup 22 subtable" uniF277
Substitution2: "'locl' Localized Forms in Latin lookup 6 subtable" uniF277
Substitution2: "'aalt' Access All Alternates lookup 0 subtable" uniF277
EndChar

StartChar: Ucircumflex
Encoding: 313 219 155
Width: 692
Flags: MW
HStem: -16 54<346.5 397.5 346.5 406.5> 676 20G<690 755 755 755> 677 20G<258 328 328 328> 857 40<547 547>
VStem: 149 68
LayerCount: 2
Fore
SplineSet
358 727 m 1xb8
 530 897 l 1
 579 897 l 1
 673 727 l 1
 623 727 l 1
 547 857 l 1
 478 792 l 2
 447 763 424 741 409 727 c 1
 358 727 l 1xb8
157 247 m 2
 258 697 l 1
 328 697 l 1xb8
 223 239 l 2
 214 201 212 168 217 140 c 0
 227 83 263 59 299 47 c 0
 317 41 336 38 357 38 c 0
 438 38 550 80 585 241 c 2
 690 696 l 1
 755 696 l 1xd8
 651 243 l 2
 614 81 468 -16 345 -16 c 0
 200 -16 123 98 157 247 c 2
EndSplineSet
EndChar

StartChar: Udieresis
Encoding: 314 220 156
Width: 692
Flags: MW
HStem: -16 54<344.5 395.5 344.5 404.5> 676 20G<688 753 753 753> 677 20G<256 326 326 326> 815 63<400 478 415 463 619 667>
VStem: 147 68
LayerCount: 2
Fore
SplineSet
604 815 m 1xb8
 619 878 l 1
 682 878 l 1
 667 815 l 1
 604 815 l 1xb8
400 815 m 1
 415 878 l 1
 478 878 l 1
 463 815 l 1
 400 815 l 1
155 247 m 2
 256 697 l 1
 326 697 l 1xb8
 221 239 l 2
 212 201 210 168 215 140 c 0
 225 83 261 59 297 47 c 0
 315 41 334 38 355 38 c 0
 436 38 548 80 583 241 c 2
 688 696 l 1
 753 696 l 1xd8
 649 243 l 2
 612 81 466 -16 343 -16 c 0
 198 -16 121 98 155 247 c 2
EndSplineSet
EndChar

StartChar: Yacute
Encoding: 315 221 157
Width: 675
Flags: MW
HStem: 1 21G<303 372 303 303> 676 20G<163 248 248 248 756 832 832 832> 760 90
VStem: 163 669<696 696>
LayerCount: 2
Fore
SplineSet
433 760 m 1
 603 840 l 1
 628 850 l 1
 632 850 l 1
 642 850 l 1
 719 850 l 1
 598 799 l 2
 537 773 502 760 492 760 c 0
 472 760 453 760 433 760 c 1
163 696 m 1
 248 696 l 1
 283 625 l 2
 286 617 292 605 300 590 c 0
 308 575 314 563 318 555 c 2
 369 449 l 2
 392 402 409 367 420 343 c 1
 441 365 553 483 756 696 c 1
 832 696 l 1
 436 279 l 1
 372 1 l 1
 303 1 l 1
 367 279 l 1
 163 696 l 1
EndSplineSet
Substitution2: "'ss01' Style Set 1 in Latin lookup 24 subtable" uniF279
Substitution2: "'salt' Stylistic Alternatives in Latin lookup 22 subtable" uniF279
Substitution2: "'locl' Localized Forms in Latin lookup 6 subtable" uniF279
Substitution2: "'aalt' Access All Alternates lookup 0 subtable" uniF279
EndChar

StartChar: Thorn
Encoding: 316 222 158
Width: 600
Flags: MW
HStem: 0 21G<99 99 99 166> 180 53<312 350> 516 54<295 387 282 443> 516 179<282 323 256 387 282 282>
VStem: 99 532
LayerCount: 2
Fore
SplineSet
99 0 m 1xe8
 256 695 l 1
 323 695 l 1xd8
 295 570 l 1
 443 570 l 2
 486 568 519 562 542 551 c 0
 601 523 645 458 627 375 c 1
 600 287 515 180 350 180 c 2
 208 180 l 1
 166 0 l 1
 99 0 l 1xe8
217 234 m 1
 255 234 293 233 331 233 c 0
 463 233 542 307 558 375 c 0
 573 441 521 516 387 516 c 2
 282 516 l 1
 278 497 l 2
 276 488 274 482 273 478 c 2xe8
 217 234 l 1
EndSplineSet
EndChar

StartChar: germandbls
Encoding: 317 223 159
Width: 492
Flags: MW
HStem: -8 50<268.5 319.5 268.5 324> 0 21G<80 80 80 143> 421 50<299 311> 652 51<370 440.5>
VStem: 449 65
LayerCount: 2
Fore
SplineSet
80 0 m 1x78
 209 562 l 2
 228 646 319 703 417 703 c 0
 513 703 581 647 565 576 c 0
 553 523 496 469 420 444 c 1
 457 419 484 384 500 338 c 0
 516 292 518 243 506 191 c 0
 481 83 379 -8 269 -8 c 0
 238 -8 207 -3 175 7 c 1
 203 55 l 1
 229 46 255 42 282 42 c 0xb8
 357 42 420 103 441 191 c 0
 455 251 450 305 426 350 c 0
 402 395 360 419 299 421 c 1
 311 471 l 1
 425 473 491 523 502 573 c 0
 512 621 474 652 407 652 c 0
 333 652 286 621 272 560 c 2
 143 0 l 1
 80 0 l 1x78
EndSplineSet
EndChar

StartChar: agrave
Encoding: 318 224 160
Width: 492
Flags: MW
HStem: -9 50<127.5 258.5> -1 21G<347 410 347 347> 233 30<397 405> 437 47<330.5 348> 535 129<364 457 364 495>
VStem: 418 67
LayerCount: 2
Fore
SplineSet
82 115 m 1xb4
 81 115 80 114 79 114 c 1
 94 179 177 255 405 263 c 1
 415 305 l 2
 421 332 422 355 418 374 c 0
 410 412 386 426 369 432 c 0
 360 435 352 437 344 437 c 0
 293 437 247 424 206 402 c 2
 175 385 l 1
 183 441 l 1
 242 470 301 484 360 484 c 0
 468 484 501 398 479 300 c 2
 410 -1 l 1
 347 -1 l 1x74
 363 68 l 1
 309 17 242 -9 163 -9 c 0
 92 -9 78 42 78 79 c 0
 78 92 79 104 82 115 c 1xb4
141 116 m 1
 141 116 140 115 140 115 c 1
 131 75 154 51 210 42 c 0
 216 41 221 41 227 41 c 0
 290 41 359 72 376 144 c 2
 397 233 l 1
 265 231 157 186 141 116 c 1
310 665 m 1xbc
 332 665 353 664 375 664 c 1
 495 535 l 1
 457 535 l 2
 440 535 450 530 391 587 c 2
 345 631 l 1
 345 631 345 631 345 631 c 1
 310 665 l 1xbc
EndSplineSet
Substitution2: "'ss01' Style Set 1 in Latin lookup 24 subtable" uniF268
Substitution2: "'salt' Stylistic Alternatives in Latin lookup 22 subtable" uniF268
Substitution2: "'locl' Localized Forms in Latin lookup 6 subtable" uniF268
Substitution2: "'aalt' Access All Alternates lookup 0 subtable" uniF268
EndChar

StartChar: aacute
Encoding: 319 225 161
Width: 492
Flags: MW
HStem: -8 50<127.5 258.5> 0 21G<347 410 347 347> 234 30<397 405> 438 47<330.5 348>
VStem: 418 67
LayerCount: 2
Fore
SplineSet
273 538 m 1xb8
 453 668 l 1
 518 668 l 1
 334 545 l 2
 326 540 318 538 311 538 c 2
 273 538 l 1xb8
82 116 m 1
 81 116 80 115 79 115 c 1
 94 180 177 256 405 264 c 1
 415 306 l 2
 421 333 422 356 418 375 c 0
 410 413 386 427 369 433 c 0
 360 436 352 438 344 438 c 0
 293 438 247 425 206 403 c 2
 175 386 l 1
 183 442 l 1
 242 471 301 485 360 485 c 0
 468 485 501 399 479 301 c 2
 410 0 l 1
 347 0 l 1x78
 363 69 l 1
 309 18 242 -8 163 -8 c 0
 92 -8 78 43 78 80 c 0
 78 93 79 105 82 116 c 1
141 117 m 1
 141 117 140 116 140 116 c 1
 131 76 154 52 210 43 c 0
 216 42 221 42 227 42 c 0
 290 42 359 73 376 145 c 2
 397 234 l 1
 265 232 157 187 141 117 c 1
EndSplineSet
Substitution2: "'ss01' Style Set 1 in Latin lookup 24 subtable" uniF269
Substitution2: "'salt' Stylistic Alternatives in Latin lookup 22 subtable" uniF269
Substitution2: "'locl' Localized Forms in Latin lookup 6 subtable" uniF269
Substitution2: "'aalt' Access All Alternates lookup 0 subtable" uniF269
EndChar

StartChar: acircumflex
Encoding: 320 226 162
Width: 492
Flags: MW
HStem: -9 50<128.5 259.5> -1 21G<348 411 348 348> 233 30<398 406> 437 47<331.5 349> 643 32<399 399>
VStem: 419 67
LayerCount: 2
Fore
SplineSet
219 537 m 1xbc
 382 675 l 1
 457 675 l 1
 532 537 l 1
 481 537 l 1
 399 643 l 1
 384 632 362 614 333 590 c 2
 269 537 l 1
 219 537 l 1xbc
83 115 m 1
 82 115 81 114 80 114 c 1
 95 179 178 255 406 263 c 1
 416 305 l 2
 422 332 423 355 419 374 c 0
 411 412 387 426 370 432 c 0
 361 435 353 437 345 437 c 0
 294 437 248 424 207 402 c 2
 176 385 l 1
 184 441 l 1
 243 470 302 484 361 484 c 0
 469 484 502 398 480 300 c 2
 411 -1 l 1
 348 -1 l 1x7c
 364 68 l 1
 310 17 243 -9 164 -9 c 0
 93 -9 79 42 79 79 c 0
 79 92 80 104 83 115 c 1
142 116 m 1
 142 116 141 115 141 115 c 1
 132 75 155 51 211 42 c 0
 217 41 222 41 228 41 c 0
 291 41 360 72 377 144 c 2
 398 233 l 1
 266 231 158 186 142 116 c 1
EndSplineSet
Substitution2: "'ss01' Style Set 1 in Latin lookup 24 subtable" uniF26B
Substitution2: "'salt' Stylistic Alternatives in Latin lookup 22 subtable" uniF26B
Substitution2: "'locl' Localized Forms in Latin lookup 6 subtable" uniF26B
Substitution2: "'aalt' Access All Alternates lookup 0 subtable" uniF26B
EndChar

StartChar: atilde
Encoding: 321 227 163
Width: 492
Flags: MW
HStem: -7 50<124.5 255.5> 1 21G<344 407 344 344> 235 30<394 402> 439 47<327.5 345> 575 51<468 484.5 466.5 497.5> 623 51<321.5 349>
VStem: 415 67
LayerCount: 2
Fore
SplineSet
224 574 m 1xb6
 221 576 l 1
 239 637 293 674 345 674 c 0xb6
 379 674 451 626 482 626 c 0
 487 626 493 627 498 628 c 0
 519 632 537 650 546 675 c 1
 596 675 l 1
 578 614 524 575 471 575 c 0xba
 465 575 459 576 452 578 c 0
 418 588 361 623 337 623 c 0
 306 623 285 607 274 574 c 1
 224 574 l 1xb6
79 117 m 1
 78 117 77 116 76 116 c 1
 91 181 174 257 402 265 c 1
 412 307 l 2
 418 334 419 357 415 376 c 0
 407 414 383 428 366 434 c 0
 357 437 349 439 341 439 c 0
 290 439 244 426 203 404 c 2
 172 387 l 1
 180 443 l 1
 239 472 298 486 357 486 c 0
 465 486 498 400 476 302 c 2
 407 1 l 1
 344 1 l 1x76
 360 70 l 1
 306 19 239 -7 160 -7 c 0
 89 -7 75 44 75 81 c 0
 75 94 76 106 79 117 c 1
138 118 m 1
 138 118 137 117 137 117 c 1
 128 77 151 53 207 44 c 0
 213 43 218 43 224 43 c 0
 287 43 356 74 373 146 c 2
 394 235 l 1
 262 233 154 188 138 118 c 1
EndSplineSet
Substitution2: "'ss01' Style Set 1 in Latin lookup 24 subtable" uniF26A
Substitution2: "'salt' Stylistic Alternatives in Latin lookup 22 subtable" uniF26A
Substitution2: "'locl' Localized Forms in Latin lookup 6 subtable" uniF26A
Substitution2: "'aalt' Access All Alternates lookup 0 subtable" uniF26A
EndChar

StartChar: adieresis
Encoding: 322 228 164
Width: 492
Flags: MW
HStem: -9 50<127.5 258.5> -1 21G<347 410 347 347> 233 30<397 405> 437 47<330.5 348> 593 63<248 325 262 311 466 515>
VStem: 418 67
LayerCount: 2
Fore
SplineSet
452 593 m 1xbc
 466 656 l 1
 529 656 l 1
 515 593 l 1
 452 593 l 1xbc
248 593 m 1x7c
 262 656 l 1
 325 656 l 1
 311 593 l 1
 248 593 l 1x7c
82 115 m 1
 81 115 80 114 79 114 c 1
 94 179 177 255 405 263 c 1
 415 305 l 2
 421 332 422 355 418 374 c 0
 410 412 386 426 369 432 c 0
 360 435 352 437 344 437 c 0
 293 437 247 424 206 402 c 2
 175 385 l 1xbc
 183 441 l 1
 242 470 301 484 360 484 c 0
 468 484 501 398 479 300 c 2
 410 -1 l 1
 347 -1 l 1
 363 68 l 1
 309 17 242 -9 163 -9 c 0
 92 -9 78 42 78 79 c 0
 78 92 79 104 82 115 c 1
141 116 m 1
 141 116 140 115 140 115 c 1
 131 75 154 51 210 42 c 0
 216 41 221 41 227 41 c 0
 290 41 359 72 376 144 c 2
 397 233 l 1
 265 231 157 186 141 116 c 1
EndSplineSet
EndChar

StartChar: aring
Encoding: 323 229 165
Width: 492
Flags: MW
HStem: -8 50<128.5 259.5> 0 21G<348 411 348 348> 234 30<398 406> 438 47<319.5 417.5> 541 33<363 378.5> 671 32<388.5 427.5>
VStem: 419 68
LayerCount: 2
Fore
SplineSet
277 621 m 0xbe
 288 665 348 703 414 703 c 0
 474 703 520 669 510 623 c 0
 502 586 455 549 395 542 c 0
 388 541 382 541 375 541 c 0
 315 541 267 574 277 621 c 0xbe
337 622 m 0
 329 590 342 574 384 574 c 0
 423 574 446 590 453 621 c 0
 461 654 446 671 409 671 c 0
 368 671 344 655 337 622 c 0
83 116 m 1
 82 116 81 115 80 115 c 1
 95 180 178 256 406 264 c 1
 416 306 l 2
 422 333 423 356 419 375 c 0
 411 413 387 427 370 433 c 0
 361 436 353 438 345 438 c 0
 294 438 248 425 207 403 c 2
 176 386 l 1
 184 442 l 1
 226 463 268 476 310 482 c 0
 327 484 344 485 361 485 c 0
 474 485 502 400 480 301 c 2
 411 0 l 1
 348 0 l 1x7e
 364 69 l 1
 310 18 243 -8 164 -8 c 0
 93 -8 79 43 79 80 c 0
 79 93 80 105 83 116 c 1
142 117 m 1
 142 117 141 116 141 116 c 1
 132 76 155 52 211 43 c 0
 217 42 222 42 228 42 c 0
 291 42 360 73 377 145 c 2
 398 234 l 1
 266 232 158 187 142 117 c 1
EndSplineSet
EndChar

StartChar: ae
Encoding: 324 230 166
Width: 758
Flags: MW
HStem: -7 51<205.5 221.5> 233 39 251 40<485 527.5 485 785 470 527.5> 436 50<639 669.5> 440 48<340.5 378.5>
VStem: 404 57
LayerCount: 2
Fore
SplineSet
83 116 m 0xb4
 85 117 86 117 88 118 c 0
 106 195 200 266 412 272 c 1xb4
 428 338 l 1
 428 338 428 338 428 338 c 1
 435 395 408 440 349 440 c 0
 332 440 315 439 299 435 c 0
 219 416 230 416 180 389 c 1
 188 445 l 1
 249 474 307 488 362 488 c 0
 461 488 481 421 489 397 c 1xcc
 538 450 608 486 670 486 c 0
 712 486 788 472 797 371 c 0
 800 338 796 298 785 251 c 1
 470 251 l 1
 451 169 462 109 503 72 c 1
 503 72 503 72 503 72 c 1
 526 53 552 43 581 43 c 0
 636 43 690 66 743 112 c 1
 734 57 l 1
 680 14 623 -7 567 -7 c 0
 558 -7 550 -7 542 -6 c 0
 482 1 437 35 415 86 c 1
 364 24 280 -7 163 -7 c 0
 89 -7 70 59 83 116 c 0xb4
150 120 m 0
 149 120 148 119 147 119 c 0
 137 74 177 44 234 44 c 0xb4
 279 44 340 64 371 105 c 0
 391 131 389 144 404 233 c 1
 277 231 166 191 150 120 c 0
485 291 m 1
 570 291 656 292 741 292 c 1
 757 416 682 436 657 436 c 0
 598 436 522 379 485 291 c 1
EndSplineSet
EndChar

StartChar: ccedilla
Encoding: 325 231 167
Width: 467
Flags: MW
HStem: -176 21G<106 106 106 164> -176 145<106 267 106 267> -9 51<247 291.5> 430 52<317 390.5>
VStem: 93 62
LayerCount: 2
Fore
SplineSet
101 237 m 1xb8
 100 236 98 235 97 234 c 1
 126 365 247 482 375 482 c 0
 447 482 473 474 529 439 c 1
 506 384 l 1
 434 431 417 430 364 430 c 0
 270 430 189 353 163 234 c 0
 152 186 153 147 165 115 c 0
 183 67 220 42 274 42 c 0
 323 42 392 66 412 80 c 2
 457 110 l 1
 449 54 l 1
 385 12 322 -9 261 -9 c 0
 138 -9 69 102 101 237 c 1xb8
106 -176 m 1
 217 -31 l 1
 267 -31 l 1x78
 164 -176 l 1
 106 -176 l 1
EndSplineSet
EndChar

StartChar: egrave
Encoding: 326 232 168
Width: 467
Flags: MW
HStem: -9 50<250 291> 249 39 432 51<311.5 383.5> 535 129<211 396 211 358>
VStem: 90 61
LayerCount: 2
Fore
SplineSet
97 240 m 1
 96 240 96 239 95 239 c 1
 124 366 241 483 359 483 c 0
 428 483 493 455 500 349 c 0
 502 320 499 287 490 249 c 1
 159 249 l 1
 145 188 149 138 171 99 c 0
 193 60 227 41 273 41 c 0
 331 41 390 64 451 110 c 1
 443 55 l 1
 382 12 321 -9 261 -9 c 0
 138 -9 65 101 97 240 c 1
172 289 m 1
 443 287 l 1
 455 372 422 432 345 432 c 0
 278 432 205 369 172 289 c 1
211 664 m 1
 276 664 l 1
 396 535 l 1
 358 535 l 1
 211 664 l 1
EndSplineSet
Substitution2: "'ss01' Style Set 1 in Latin lookup 24 subtable" uniF26D
Substitution2: "'salt' Stylistic Alternatives in Latin lookup 22 subtable" uniF26D
Substitution2: "'locl' Localized Forms in Latin lookup 6 subtable" uniF26D
Substitution2: "'aalt' Access All Alternates lookup 0 subtable" uniF26D
EndChar

StartChar: eacute
Encoding: 327 233 169
Width: 467
Flags: MW
HStem: -9 50<228 291> 249 39 432 51<310.5 382.5>
VStem: 90 59
LayerCount: 2
Fore
SplineSet
314 538 m 1
 494 667 l 1
 559 667 l 1
 352 538 l 1
 314 538 l 1
97 240 m 1
 96 240 95 239 94 239 c 1
 123 366 240 483 358 483 c 0
 427 483 492 455 499 349 c 0
 501 320 498 287 489 249 c 1
 158 249 l 2
 157 247 157 244 156 242 c 0
 130 127 183 41 273 41 c 0
 331 41 390 64 451 110 c 1
 443 55 l 1
 382 12 321 -9 261 -9 c 0
 138 -9 65 101 97 240 c 1
171 289 m 1
 442 287 l 1
 454 372 421 432 344 432 c 0
 277 432 204 369 171 289 c 1
EndSplineSet
Substitution2: "'ss01' Style Set 1 in Latin lookup 24 subtable" uniF26E
Substitution2: "'salt' Stylistic Alternatives in Latin lookup 22 subtable" uniF26E
Substitution2: "'locl' Localized Forms in Latin lookup 6 subtable" uniF26E
Substitution2: "'aalt' Access All Alternates lookup 0 subtable" uniF26E
EndChar

StartChar: ecircumflex
Encoding: 328 234 170
Width: 467
Flags: MW
HStem: -9 50<250 291> 249 39 432 51<311.5 383.5> 643 32<400 400>
VStem: 90 61
LayerCount: 2
Fore
SplineSet
220 537 m 1
 382 675 l 1
 434 675 l 1
 532 537 l 1
 482 537 l 1
 400 643 l 1
 270 537 l 1
 220 537 l 1
97 240 m 1
 96 240 96 239 95 239 c 1
 124 366 241 483 359 483 c 0
 428 483 493 455 500 349 c 0
 502 320 499 287 490 249 c 1
 159 249 l 1
 145 188 149 138 171 99 c 0
 193 60 227 41 273 41 c 0
 331 41 390 64 451 110 c 1
 443 55 l 1
 382 12 321 -9 261 -9 c 0
 138 -9 65 101 97 240 c 1
172 289 m 1
 443 287 l 1
 455 372 422 432 345 432 c 0
 278 432 205 369 172 289 c 1
EndSplineSet
Substitution2: "'ss01' Style Set 1 in Latin lookup 24 subtable" uniF26F
Substitution2: "'salt' Stylistic Alternatives in Latin lookup 22 subtable" uniF26F
Substitution2: "'locl' Localized Forms in Latin lookup 6 subtable" uniF26F
Substitution2: "'aalt' Access All Alternates lookup 0 subtable" uniF26F
EndChar

StartChar: edieresis
Encoding: 329 235 171
Width: 467
Flags: MW
HStem: -9 50<228 291> 249 39 432 51<310.5 382.5> 593 63<236 313 250 299 454 503>
VStem: 90 59
LayerCount: 2
Fore
SplineSet
440 593 m 1
 454 656 l 1
 517 656 l 1
 503 593 l 1
 440 593 l 1
236 593 m 1
 250 656 l 1
 313 656 l 1
 299 593 l 1
 236 593 l 1
97 240 m 1
 96 240 95 239 94 239 c 1
 123 366 240 483 358 483 c 0
 427 483 492 455 499 349 c 0
 501 320 498 287 489 249 c 1
 158 249 l 2
 157 247 157 244 156 242 c 0
 130 127 183 41 273 41 c 0
 331 41 390 64 451 110 c 1
 443 55 l 1
 382 12 321 -9 261 -9 c 0
 138 -9 65 101 97 240 c 1
171 289 m 1
 442 287 l 1
 454 372 421 432 344 432 c 0
 277 432 204 369 171 289 c 1
EndSplineSet
EndChar

StartChar: igrave
Encoding: 330 236 172
Width: 225
Flags: MW
HStem: 0 21G<82 82 82 145> 452 20G<191 254 254 254> 538 129<106 254 106 291>
VStem: 82 209
LayerCount: 2
Fore
SplineSet
106 667 m 1
 172 667 l 1
 291 538 l 1
 254 538 l 2
 245 538 235 543 224 553 c 2
 106 667 l 1
82 0 m 1
 191 472 l 1
 254 472 l 1
 145 0 l 1
 82 0 l 1
EndSplineSet
Substitution2: "'ss01' Style Set 1 in Latin lookup 24 subtable" uniF270
Substitution2: "'salt' Stylistic Alternatives in Latin lookup 22 subtable" uniF270
Ligature2: "'liga' Standard Ligatures in Latin lookup 10 subtable" i gravecomb
Substitution2: "'locl' Localized Forms in Latin lookup 6 subtable" uniF270
Substitution2: "'aalt' Access All Alternates lookup 0 subtable" uniF270
EndChar

StartChar: iacute
Encoding: 331 237 173
Width: 225
Flags: MW
HStem: 0 21G<80 80 80 143> 452 20G<189 252 252 252>
VStem: 80 317
LayerCount: 2
Fore
SplineSet
80 0 m 1
 189 472 l 1
 252 472 l 1
 143 0 l 1
 80 0 l 1
152 538 m 1
 332 668 l 1
 397 668 l 1
 366 647 330 623 289 596 c 2
 213 545 l 2
 205 540 197 538 190 538 c 2
 152 538 l 1
EndSplineSet
Substitution2: "'ss01' Style Set 1 in Latin lookup 24 subtable" uniF271
Substitution2: "'salt' Stylistic Alternatives in Latin lookup 22 subtable" uniF271
Ligature2: "'liga' Standard Ligatures in Latin lookup 10 subtable" i acutecomb
Ligature2: "'liga' Standard Ligatures in Cyrillic lookup 9 subtable" afii10103 acutecomb
Substitution2: "'locl' Localized Forms in Latin lookup 6 subtable" uniF271
Substitution2: "'aalt' Access All Alternates lookup 0 subtable" uniF271
EndChar

StartChar: icircumflex
Encoding: 332 238 174
Width: 225
Flags: MW
HStem: 0 21G<81 81 81 144> 452 20G<190 253 253 253> 643 32<260 260>
VStem: 80 312<537 537>
LayerCount: 2
Fore
SplineSet
80 537 m 1
 242 675 l 1
 294 675 l 1
 392 537 l 1
 342 537 l 1
 260 643 l 1
 217 608 173 572 130 537 c 1
 80 537 l 1
81 0 m 1
 190 472 l 1
 253 472 l 1
 144 0 l 1
 81 0 l 1
EndSplineSet
Ligature2: "'liga' Standard Ligatures in Latin lookup 10 subtable" i uni0302
EndChar

StartChar: idieresis
Encoding: 333 239 175
Width: 283
Flags: MW
HStem: 0 21G<110 110 110 173> 452 20G<219 282 282 282> 594 63<145 223 160 208 364 412>
VStem: 110 317
LayerCount: 2
Fore
SplineSet
110 0 m 1
 219 472 l 1
 282 472 l 1
 173 0 l 1
 110 0 l 1
145 594 m 1
 160 657 l 1
 223 657 l 1
 208 594 l 1
 145 594 l 1
349 594 m 1
 364 657 l 1
 427 657 l 1
 412 594 l 1
 349 594 l 1
EndSplineSet
Ligature2: "'liga' Standard Ligatures in Latin lookup 10 subtable" i uni0308
EndChar

StartChar: eth
Encoding: 334 240 176
Width: 525
Flags: MW
HStem: -7 40<250.5 320.5 250.5 333.5> 423 51<323 384.5>
VStem: 87 7 482 76
LayerCount: 2
Fore
SplineSet
94 236 m 1
 94 233 94 229 94 226 c 1
 123 357 251 474 374 474 c 0
 410 474 444 464 475 443 c 1
 458 494 429 538 389 575 c 1
 300 531 l 1
 283 581 l 1
 295 586 329 606 341 611 c 1
 300 633 261 646 224 650 c 1
 242 664 l 1
 267 681 l 2
 275 685 276 687 284 687 c 0
 296 687 312 683 332 676 c 0
 352 669 369 662 382 655 c 2
 403 644 l 1
 413 649 428 657 448 668 c 2
 492 692 l 1
 510 642 l 1
 503 639 493 634 479 627 c 0
 465 620 455 615 448 612 c 1
 462 605 547 529 558 392 c 0
 561 353 557 311 546 267 c 0
 546 264 545 262 545 259 c 0
 515 132 407 -7 260 -7 c 0
 143 -7 62 96 94 236 c 1
161 234 m 0
 161 233 162 233 162 232 c 0
 153 195 151 163 155 135 c 0
 166 57 227 33 274 33 c 0
 367 33 451 110 475 229 c 0
 487 288 484 334 463 370 c 0
 442 405 408 423 361 423 c 0
 285 423 191 371 161 234 c 0
EndSplineSet
EndChar

StartChar: ntilde
Encoding: 335 241 177
Width: 517
Flags: MW
HStem: 1 21G<367 431 367 367> 431 41 431 49<362 374.5> 575 51<460 476.5 458.5 489.5> 623 51<313.5 341>
VStem: 445 68
LayerCount: 2
Fore
SplineSet
216 574 m 1xac
 213 576 l 1
 231 637 285 674 337 674 c 0xac
 371 674 443 626 474 626 c 0
 479 626 485 627 490 628 c 0
 511 632 529 650 538 675 c 1
 588 675 l 1
 570 614 516 575 463 575 c 0xb4
 457 575 451 576 444 578 c 0
 410 588 353 623 329 623 c 0
 298 623 277 607 266 574 c 1
 216 574 l 1xac
77 2 m 1
 184 472 l 1
 246 472 l 1xcc
 224 375 l 1
 263 434 325 480 399 480 c 0
 484 480 510 443 513 398 c 0
 515 355 508 329 496 281 c 0
 473 188 452 94 431 1 c 1
 367 1 l 1
 439 312 l 2
 442 325 444 337 445 348 c 0
 446 370 443 388 435 401 c 0
 423 421 396 431 353 431 c 0
 261 431 225 339 211 302 c 1
 142 2 l 1
 77 2 l 1
EndSplineSet
EndChar

StartChar: ograve
Encoding: 336 242 178
Width: 525
Flags: MW
HStem: -7 53<250.5 313 250.5 320.5> 435 51<324 383> 539 129<371 464 371 502>
VStem: 87 69 486 59
LayerCount: 2
Fore
SplineSet
94 236 m 0
 94 237 94 237 94 238 c 0
 123 369 249 486 374 486 c 0
 493 486 571 376 537 237 c 0
 508 106 381 -7 260 -7 c 0
 143 -7 62 96 94 236 c 0
162 247 m 1
 165 247 l 1
 156 209 153 176 156 148 c 0
 164 71 227 46 274 46 c 0
 352 46 443 99 478 247 c 0
 493 314 488 362 462 391 c 0
 436 420 403 435 363 435 c 0
 285 435 193 384 162 247 c 1
317 669 m 1
 339 669 360 668 382 668 c 1
 502 539 l 1
 464 539 l 2
 450 539 420 572 352 635 c 2
 317 669 l 1
EndSplineSet
Substitution2: "'ss01' Style Set 1 in Latin lookup 24 subtable" uniF27A
Substitution2: "'salt' Stylistic Alternatives in Latin lookup 22 subtable" uniF27A
Substitution2: "'locl' Localized Forms in Latin lookup 6 subtable" uniF27A
Substitution2: "'aalt' Access All Alternates lookup 0 subtable" uniF27A
EndChar

StartChar: oacute
Encoding: 337 243 179
Width: 525
Flags: MW
HStem: -6 54<249.5 312 249.5 320.5> 437 50<324 382>
VStem: 87 68 485 60
LayerCount: 2
Fore
SplineSet
331 538 m 1
 511 668 l 1
 576 668 l 1
 545 647 509 623 468 596 c 2
 392 545 l 2
 384 540 376 538 369 538 c 2
 331 538 l 1
94 237 m 0
 94 238 94 238 94 239 c 0
 123 370 249 487 374 487 c 0
 493 487 571 377 537 238 c 0
 508 107 381 -6 260 -6 c 0
 143 -6 62 97 94 237 c 0
162 248 m 1
 163 248 163 249 164 249 c 1
 155 211 152 178 155 150 c 0
 163 73 226 48 273 48 c 0
 351 48 442 101 477 249 c 0
 492 316 487 364 461 393 c 0
 435 422 402 437 362 437 c 0
 286 437 192 385 162 248 c 1
EndSplineSet
Substitution2: "'ss01' Style Set 1 in Latin lookup 24 subtable" uniF27B
Substitution2: "'salt' Stylistic Alternatives in Latin lookup 22 subtable" uniF27B
Substitution2: "'locl' Localized Forms in Latin lookup 6 subtable" uniF27B
Substitution2: "'aalt' Access All Alternates lookup 0 subtable" uniF27B
EndChar

StartChar: ocircumflex
Encoding: 338 244 180
Width: 525
Flags: MW
HStem: -7 54<249.5 312 249.5 320.5> 436 50<324 382> 643 32<410 410>
VStem: 87 68 485 60
LayerCount: 2
Fore
SplineSet
230 537 m 1
 392 675 l 1
 444 675 l 1
 542 537 l 1
 492 537 l 1
 410 643 l 1
 280 537 l 1
 230 537 l 1
94 236 m 0
 94 237 94 237 94 238 c 0
 123 369 249 486 374 486 c 0
 493 486 571 376 537 237 c 0
 508 106 381 -7 260 -7 c 0
 143 -7 62 96 94 236 c 0
162 247 m 1
 163 247 163 248 164 248 c 1
 155 210 152 177 155 149 c 0
 163 72 226 47 273 47 c 0
 351 47 442 100 477 248 c 0
 492 315 487 363 461 392 c 0
 435 421 402 436 362 436 c 0
 286 436 192 384 162 247 c 1
EndSplineSet
Substitution2: "'ss01' Style Set 1 in Latin lookup 24 subtable" uniF27D
Substitution2: "'salt' Stylistic Alternatives in Latin lookup 22 subtable" uniF27D
Substitution2: "'locl' Localized Forms in Latin lookup 6 subtable" uniF27D
Substitution2: "'aalt' Access All Alternates lookup 0 subtable" uniF27D
EndChar

StartChar: otilde
Encoding: 339 245 181
Width: 525
Flags: MW
HStem: -5 53<247.5 310 247.5 317.5> 437 51<321 380> 575 51<464 480.5 462.5 493.5> 623 51<317.5 345>
VStem: 84 69 483 59
LayerCount: 2
Fore
SplineSet
220 574 m 1xdc
 217 576 l 1
 235 637 289 674 341 674 c 0xdc
 375 674 447 626 478 626 c 0
 483 626 489 627 494 628 c 0
 515 632 533 650 542 675 c 1
 592 675 l 1
 574 614 520 575 467 575 c 0xec
 461 575 455 576 448 578 c 0
 414 588 357 623 333 623 c 0
 302 623 281 607 270 574 c 1
 220 574 l 1xdc
91 238 m 0
 91 239 91 239 91 240 c 0
 120 371 246 488 371 488 c 0
 490 488 568 378 534 239 c 0
 505 108 378 -5 257 -5 c 0
 140 -5 59 98 91 238 c 0
159 249 m 1
 162 249 l 1
 153 211 150 178 153 150 c 0
 161 73 224 48 271 48 c 0
 349 48 440 101 475 249 c 0
 490 316 485 364 459 393 c 0
 433 422 400 437 360 437 c 0
 282 437 190 386 159 249 c 1
EndSplineSet
Substitution2: "'ss01' Style Set 1 in Latin lookup 24 subtable" uniF27C
Substitution2: "'salt' Stylistic Alternatives in Latin lookup 22 subtable" uniF27C
Substitution2: "'locl' Localized Forms in Latin lookup 6 subtable" uniF27C
Substitution2: "'aalt' Access All Alternates lookup 0 subtable" uniF27C
EndChar

StartChar: odieresis
Encoding: 340 246 182
Width: 525
Flags: MW
HStem: -7 54<249.5 312 249.5 320.5> 436 50<324 382> 593 63<265 342 279 328 483 532>
VStem: 87 68 485 60
LayerCount: 2
Fore
SplineSet
469 593 m 1
 483 656 l 1
 546 656 l 1
 532 593 l 1
 469 593 l 1
265 593 m 1
 279 656 l 1
 342 656 l 1
 328 593 l 1
 265 593 l 1
94 236 m 0
 94 237 94 237 94 238 c 0
 123 369 249 486 374 486 c 0
 493 486 571 376 537 237 c 0
 508 106 381 -7 260 -7 c 0
 143 -7 62 96 94 236 c 0
162 247 m 1
 163 247 163 248 164 248 c 1
 155 210 152 177 155 149 c 0
 163 72 226 47 273 47 c 0
 351 47 442 100 477 248 c 0
 492 315 487 363 461 392 c 0
 435 421 402 436 362 436 c 0
 286 436 192 384 162 247 c 1
EndSplineSet
EndChar

StartChar: divide
Encoding: 341 247 183
Width: 642
Flags: MW
HStem: -12 118<274 368 309 345> 76 30 244 38<145 152 145 202 202 311 311 443 443 561> 417 118<405 441 379 465>
VStem: 115 525
LayerCount: 2
Fore
SplineSet
121 263 m 1xb8
 115 261 l 1
 118 275 128 282 145 282 c 0
 201 282 256 282 311 282 c 2
 561 282 l 2
 559 282 622 289 637 275 c 0
 640 272 641 268 640 263 c 0
 635 248 626 244 608 244 c 0
 554 244 497 244 443 244 c 2
 202 244 l 2
 182 244 162 244 142 244 c 0
 125 244 118 250 121 263 c 1xb8
273 76 m 2x78
 271 76 l 1
 279 109 302 106 309 106 c 2
 368 106 l 2
 386 106 394 100 394 92 c 0
 394 88 393 83 392 77 c 2
 379 18 l 2
 374 -2 362 -12 345 -12 c 2
 282 -12 l 2
 266 -12 258 -4 258 2 c 0
 258 5 259 18 262 23 c 2
 271 64 l 2xb8
 271 65 273 75 273 76 c 2x78
357 446 m 0x78
 366 481 367 535 405 535 c 2
 465 535 l 2
 485 535 494 530 488 507 c 0
 463 408 469 423 441 417 c 1
 379 417 l 2xb8
 361 419 351 424 357 446 c 0x78
EndSplineSet
EndChar

StartChar: oslash
Encoding: 342 248 184
Width: 525
Flags: MW
HStem: -6 45<260.5 302.5 260.5 320.5> 434 52<326.5 374>
VStem: 88 61 484 58
LayerCount: 2
Fore
SplineSet
96 236 m 0
 96 237 95 237 95 238 c 0
 124 369 250 486 373 486 c 0
 408 486 439 477 467 458 c 1
 559 570 l 1
 559 570 560 570 560 570 c 1
 597 545 l 1
 501 428 l 1
 541 376 552 313 535 238 c 0
 505 106 381 -6 260 -6 c 0
 204 -6 166 18 166 18 c 1
 73 -96 l 1
 35 -70 l 1
 132 49 l 1
 90 96 78 158 96 236 c 0
156 237 m 1
 156 233 l 1
 150 208 149 183 149 165 c 0
 149 150 157 113 168 94 c 1
 197 129 241 182 300 253 c 2
 433 414 l 1
 411 427 387 434 361 434 c 0
 292 434 192 386 156 237 c 1
200 58 m 2
 199 58 199 57 198 57 c 1
 227 45 251 39 270 39 c 0
 335 39 440 83 473 229 c 1
 481 273 l 2
 483 287 483 298 484 307 c 0
 484 338 464 365 464 379 c 1
 200 58 l 2
EndSplineSet
EndChar

StartChar: ugrave
Encoding: 343 249 185
Width: 517
Flags: MW
HStem: -10 47<224 230> -2 21G<372 435 372 372> 537 129<348 441 348 479>
VStem: 102 68
LayerCount: 2
Fore
SplineSet
294 667 m 1xb0
 316 667 337 666 359 666 c 1
 479 537 l 1
 441 537 l 2
 424 537 434 532 375 589 c 2
 329 633 l 1
 329 633 329 633 329 633 c 1
 294 667 l 1xb0
111 132 m 2
 190 468 l 1
 255 468 l 1
 175 120 l 2
 171 105 170 94 169 87 c 0
 167 80 168 70 172 63 c 0
 178 44 202 37 246 37 c 0
 325 37 392 92 411 173 c 2xb0
 480 470 l 1
 544 470 l 1
 435 -2 l 1
 372 -2 l 1
 392 84 l 1x70
 344 26 266 -10 194 -10 c 0
 129 -10 104 20 102 60 c 0
 100 93 104 100 111 132 c 2
EndSplineSet
Substitution2: "'ss01' Style Set 1 in Latin lookup 24 subtable" uniF27E
Substitution2: "'salt' Stylistic Alternatives in Latin lookup 22 subtable" uniF27E
Substitution2: "'locl' Localized Forms in Latin lookup 6 subtable" uniF27E
Substitution2: "'aalt' Access All Alternates lookup 0 subtable" uniF27E
EndChar

StartChar: uacute
Encoding: 344 250 186
Width: 517
Flags: MW
HStem: -8 47<224 230> 0 21G<372 435 372 372> 452 20G<480 544 544 544>
VStem: 102 68
LayerCount: 2
Fore
SplineSet
269 538 m 1xb0
 449 668 l 1
 514 668 l 1
 483 647 447 623 406 596 c 2
 330 545 l 2
 322 540 314 538 307 538 c 2
 269 538 l 1xb0
111 134 m 2
 190 470 l 1
 255 470 l 1
 175 122 l 2
 171 107 170 96 169 89 c 0
 167 82 168 72 172 65 c 0
 178 46 202 39 246 39 c 0xb0
 325 39 392 94 411 175 c 2
 480 472 l 1
 544 472 l 1
 435 0 l 1
 372 0 l 1x70
 392 86 l 1
 344 28 266 -8 194 -8 c 0
 129 -8 104 22 102 62 c 0
 100 95 104 102 111 134 c 2
EndSplineSet
Substitution2: "'ss01' Style Set 1 in Latin lookup 24 subtable" uniF27F
Substitution2: "'salt' Stylistic Alternatives in Latin lookup 22 subtable" uniF27F
Substitution2: "'locl' Localized Forms in Latin lookup 6 subtable" uniF27F
Substitution2: "'aalt' Access All Alternates lookup 0 subtable" uniF27F
EndChar

StartChar: ucircumflex
Encoding: 345 251 187
Width: 517
Flags: MW
HStem: -9 47<224 230> -1 21G<372 435 372 372> 643 32<406 406>
VStem: 102 68
LayerCount: 2
Fore
SplineSet
226 537 m 1xb0
 388 675 l 1
 440 675 l 1
 538 537 l 1
 488 537 l 1
 406 643 l 1
 276 537 l 1
 226 537 l 1xb0
111 133 m 2
 190 469 l 1
 255 469 l 1
 175 121 l 2
 171 106 170 95 169 88 c 0
 167 81 168 71 172 64 c 0
 178 45 202 38 246 38 c 0xb0
 325 38 392 93 411 174 c 2
 480 471 l 1
 544 471 l 1
 435 -1 l 1
 372 -1 l 1x70
 392 85 l 1
 344 27 266 -9 194 -9 c 0
 129 -9 104 21 102 61 c 0
 100 94 104 101 111 133 c 2
EndSplineSet
EndChar

StartChar: udieresis
Encoding: 346 252 188
Width: 517
Flags: MW
HStem: -9 47<224 230> -1 21G<372 435 372 372> 593 63<261 338 275 324 479 528>
VStem: 102 68
LayerCount: 2
Fore
SplineSet
465 593 m 1xb0
 479 656 l 1
 542 656 l 1
 528 593 l 1
 465 593 l 1xb0
261 593 m 1
 275 656 l 1
 338 656 l 1
 324 593 l 1
 261 593 l 1
111 133 m 2
 190 469 l 1
 255 469 l 1
 175 121 l 2
 171 106 170 95 169 88 c 0
 167 81 168 71 172 64 c 0
 178 45 202 38 246 38 c 0xb0
 325 38 392 93 411 174 c 2
 480 471 l 1
 544 471 l 1
 435 -1 l 1
 372 -1 l 1x70
 392 85 l 1
 344 27 266 -9 194 -9 c 0
 129 -9 104 21 102 61 c 0
 100 94 104 101 111 133 c 2
EndSplineSet
EndChar

StartChar: yacute
Encoding: 347 253 189
Width: 458
Flags: MW
HStem: -174 51<65 85 65 109.5> -167 21G<-11 -11> 453 20G<123 133.5 489 552 552 552>
VStem: -11 563 205 44
LayerCount: 2
Fore
SplineSet
298 538 m 1xb0
 478 668 l 1
 543 668 l 1
 359 545 l 2
 351 540 343 538 336 538 c 2
 298 538 l 1xb0
123 473 m 1xa8
 144 473 166 472 187 472 c 1
 209 343 l 2
 240 162 248 100 249 65 c 1
 261 93 489 475 489 473 c 2
 552 473 l 1
 269 13 l 1
 189 -106 153 -174 66 -174 c 0
 42 -174 16 -172 -11 -167 c 1xa8
 -3 -111 l 1x70
 27 -119 53 -123 77 -123 c 0
 93 -123 108 -119 122 -110 c 0
 140 -98 165 -66 196 -15 c 1
 196 -15 196 -15 196 -15 c 1
 201 -8 204 -2 205 2 c 0
 205 3 202 34 198 56 c 2
 123 473 l 1xa8
EndSplineSet
Substitution2: "'ss01' Style Set 1 in Latin lookup 24 subtable" uniF281
Substitution2: "'salt' Stylistic Alternatives in Latin lookup 22 subtable" uniF281
Substitution2: "'locl' Localized Forms in Latin lookup 6 subtable" uniF281
Substitution2: "'aalt' Access All Alternates lookup 0 subtable" uniF281
EndChar

StartChar: thorn
Encoding: 348 254 190
Width: 517
Flags: MW
HStem: -167 21G<41 41 41 106> -8 48<237.5 297.5 237.5 325.5> 427 51<374.5 384>
VStem: 463 70
LayerCount: 2
Fore
SplineSet
41 -167 m 1
 238 693 l 1
 301 693 l 1
 234 402 l 1
 288 453 345 478 404 478 c 0
 453 478 489 455 512 408 c 0
 535 361 539 304 524 237 c 0
 493 99 378 -8 273 -8 c 0
 202 -8 169 39 160 66 c 1
 106 -167 l 1
 41 -167 l 1
223 347 m 1
 223 347 222 348 222 348 c 2
 222 347 222 346 222 344 c 0
 222 342 222 341 222 340 c 2
 173 128 l 2
 168 107 173 87 188 68 c 0
 203 49 224 40 251 40 c 0
 344 40 473 157 463 285 c 1
 463 366 418 427 350 427 c 0
 297 427 231 381 223 347 c 1
EndSplineSet
EndChar

StartChar: ydieresis
Encoding: 349 255 191
Width: 458
Flags: MW
HStem: -175 51<65 85 65 109.5> -168 21G<-11 -11> 452 20G<123 133.5 489 552 552 552> 593 63<232 309 246 295 450 499>
VStem: -11 563 205 44
LayerCount: 2
Fore
SplineSet
436 593 m 1xb8
 450 656 l 1
 513 656 l 1
 499 593 l 1
 436 593 l 1xb8
232 593 m 1
 246 656 l 1
 309 656 l 1
 295 593 l 1
 232 593 l 1
123 472 m 1xb4
 144 472 166 471 187 471 c 1
 209 342 l 2
 240 161 248 99 249 64 c 1
 261 92 489 474 489 472 c 2
 552 472 l 1
 269 12 l 1
 189 -107 153 -175 66 -175 c 0
 42 -175 16 -173 -11 -168 c 1xb4
 -3 -112 l 1x78
 27 -120 53 -124 77 -124 c 0
 93 -124 108 -120 122 -111 c 0
 140 -99 165 -67 196 -16 c 1
 196 -16 196 -16 196 -16 c 1
 201 -9 204 -3 205 1 c 0
 205 2 202 33 198 55 c 2
 123 472 l 1xb4
EndSplineSet
EndChar

StartChar: Amacron
Encoding: 350 256 192
Width: 675
Flags: MW
HStem: -3 21G<28 28 28 93 571 571 571 644> 207 52 626 74<477 478.5> 680 20G<460 536 536 536> 761 37<211.5 807 257 777>
VStem: 28 810<-3 792>
LayerCount: 2
Fore
SplineSet
197 781 m 1xdc
 197 780 197 779 197 778 c 1
 202 799 224 798 257 798 c 2
 807 798 l 2
 809 798 810 798 812 798 c 0
 814 798 815 798 817 798 c 0
 821 798 831 799 833 797 c 0
 834 795 838 793 838 791 c 0
 838 759 815 761 777 761 c 2
 221 761 l 2
 202 761 194 768 197 781 c 1xdc
28 -3 m 1
 460 700 l 1
 536 700 l 1
 644 -3 l 1
 571 -3 l 1
 538 207 l 1
 221 207 l 1
 93 -3 l 1
 28 -3 l 1
255 260 m 1
 532 258 l 1
 512 393 480 626 477 626 c 0xec
 431 551 357 429 255 260 c 1
EndSplineSet
EndChar

StartChar: amacron
Encoding: 351 257 193
Width: 492
Flags: MW
HStem: -9 50<127.5 258.5> -1 21G<347 410 347 347> 233 30<397 405> 437 47<330.5 348> 574 54<209 600 221 588>
VStem: 418 67
LayerCount: 2
Fore
SplineSet
209 574 m 1xbc
 221 628 l 1
 600 628 l 1
 588 574 l 1
 209 574 l 1xbc
82 115 m 1
 81 115 80 114 79 114 c 1
 94 179 177 255 405 263 c 1
 415 305 l 2
 421 332 422 355 418 374 c 0
 410 412 386 426 369 432 c 0
 360 435 352 437 344 437 c 0
 293 437 247 424 206 402 c 2
 175 385 l 1
 183 441 l 1
 242 470 301 484 360 484 c 0
 468 484 501 398 479 300 c 2
 410 -1 l 1
 347 -1 l 1x7c
 363 68 l 1
 309 17 242 -9 163 -9 c 0
 92 -9 78 42 78 79 c 0
 78 92 79 104 82 115 c 1
141 116 m 1
 141 116 140 115 140 115 c 1
 131 75 154 51 210 42 c 0
 216 41 221 41 227 41 c 0
 290 41 359 72 376 144 c 2
 397 233 l 1
 265 231 157 186 141 116 c 1
EndSplineSet
EndChar

StartChar: Abreve
Encoding: 352 258 194
Width: 675
Flags: MW
HStem: 0 21G<28 28 28 93 571 571 571 644> 210 52 629 74<477 478.5> 683 20G<460 536 536 536> 727 56<481.5 539.5 481.5 542>
VStem: 362 53
LayerCount: 2
Fore
SplineSet
366 889 m 1xd4
 415 889 l 1
 403 822 451 783 512 783 c 0
 567 783 637 820 657 890 c 1
 708 890 l 1
 682 793 586 727 498 727 c 0xdc
 409 727 344 792 366 889 c 1xd4
28 0 m 1
 460 703 l 1
 536 703 l 1xd4
 644 0 l 1
 571 0 l 1
 538 210 l 1
 221 210 l 1
 93 0 l 1
 28 0 l 1
255 263 m 1
 532 261 l 1
 512 396 480 629 477 629 c 0xe4
 431 554 357 432 255 263 c 1
EndSplineSet
Substitution2: "'ss01' Style Set 1 in Latin lookup 24 subtable" uniF262
Substitution2: "'salt' Stylistic Alternatives in Latin lookup 22 subtable" uniF262
Substitution2: "'locl' Localized Forms in Latin lookup 6 subtable" uniF262
Substitution2: "'aalt' Access All Alternates lookup 0 subtable" uniF262
EndChar

StartChar: abreve
Encoding: 353 259 195
Width: 492
Flags: MW
HStem: -11 50<125.5 256.5> -3 21G<345 408 345 345> 231 30<395 403> 435 47<328.5 346> 525 54<379 412 379 426.5>
VStem: 242 52 416 67
LayerCount: 2
Fore
SplineSet
245 667 m 1xbe
 294 665 l 1
 281 592 363 579 395 579 c 0
 429 579 516 594 537 665 c 1
 587 665 l 1
 565 577 470 525 383 525 c 0
 296 525 227 578 245 667 c 1xbe
80 113 m 1
 79 113 78 112 77 112 c 1
 92 177 175 253 403 261 c 1
 413 303 l 2
 419 330 420 353 416 372 c 0
 408 410 384 424 367 430 c 0
 358 433 350 435 342 435 c 0
 291 435 245 422 204 400 c 2
 173 383 l 1
 181 439 l 1
 240 468 299 482 358 482 c 0
 466 482 499 396 477 298 c 2
 408 -3 l 1
 345 -3 l 1x7e
 361 66 l 1
 307 15 240 -11 161 -11 c 0
 90 -11 76 40 76 77 c 0
 76 90 77 102 80 113 c 1
139 114 m 1
 139 114 138 113 138 113 c 1
 129 73 152 49 208 40 c 0
 214 39 219 39 225 39 c 0
 288 39 357 70 374 142 c 2
 395 231 l 1
 263 229 155 184 139 114 c 1
EndSplineSet
Substitution2: "'ss01' Style Set 1 in Latin lookup 24 subtable" uniF26C
Substitution2: "'salt' Stylistic Alternatives in Latin lookup 22 subtable" uniF26C
Substitution2: "'locl' Localized Forms in Latin lookup 6 subtable" uniF26C
Substitution2: "'aalt' Access All Alternates lookup 0 subtable" uniF26C
EndChar

StartChar: Aogonek
Encoding: 354 260 196
Width: 675
Flags: MW
HStem: -184 59<528 577> -2 21G<635.5 640 640 643> 0 21G<29 29 29 94> 210 50 627 74 681 20G<459 535 535 535>
VStem: 29 620<-157 0>
LayerCount: 2
Fore
SplineSet
29 0 m 1xb6
 459 701 l 1
 535 701 l 1
 643 -2 l 1
 640 -2 l 2
 631 -2 621 -5 609 -10 c 0
 558 -31 521 -66 517 -91 c 1xd6
 519 -106 517 -108 533 -118 c 0
 541 -123 553 -125 568 -125 c 0
 586 -125 611 -121 629 -115 c 2
 647 -109 l 1
 649 -157 l 1
 606 -175 568 -184 535 -184 c 0
 521 -184 509 -182 498 -179 c 0
 464 -170 448 -144 455 -113 c 0
 465 -71 519 -27 572 0 c 1
 561 70 550 140 539 210 c 1
 222 210 l 1
 94 0 l 1
 29 0 l 1xb6
254 261 m 1
 530 259 l 1
 524 294 516 348 506 420 c 2
 489 540 l 2
 487 556 484 569 482 581 c 2
 479 603 l 2
 478 612 477 620 476 627 c 1xba
 430 552 356 430 254 261 c 1
EndSplineSet
Ligature2: "'liga' Standard Ligatures in Latin lookup 11 subtable" A uni0328
EndChar

StartChar: aogonek
Encoding: 355 261 197
Width: 492
Flags: MW
HStem: -185 60<303 344> -8 49<173 250.5> -1 21G<346 346 392 408 392 392> 232 31<395 403> 436 48<326.5 358>
VStem: 418 66
LayerCount: 2
Fore
SplineSet
82 115 m 1xdc
 80 114 79 114 77 113 c 1
 92 180 172 255 403 263 c 1
 413 305 l 2
 421 340 420 369 410 392 c 0
 397 420 373 436 343 436 c 0
 257 436 218 411 171 385 c 1
 179 441 l 1
 238 470 297 484 356 484 c 0
 470 484 501 398 477 300 c 2
 408 -1 l 1
 392 -1 l 1
 388 -3 l 2
 382 -5 374 -10 365 -15 c 2
 350 -24 l 2
 336 -32 296 -57 291 -86 c 0xbc
 289 -96 292 -105 299 -113 c 0
 306 -121 321 -125 343 -125 c 2
 343 -125 344 -125 344 -125 c 2
 366 -124 392 -119 422 -110 c 1
 424 -158 l 1
 381 -176 343 -185 310 -185 c 0
 296 -185 284 -183 273 -180 c 0
 239 -171 223 -145 230 -114 c 0
 240 -72 291 -28 346 -1 c 1
 362 68 l 1
 314 23 248 -8 176 -8 c 0
 170 -8 165 -9 161 -9 c 0
 91 -9 78 43 78 79 c 0
 78 92 79 104 82 115 c 1xdc
139 115 m 1
 139 115 139 116 139 116 c 1
 130 78 159 49 202 42 c 0
 208 41 216 41 224 41 c 0
 277 41 358 67 374 143 c 2
 395 232 l 1
 263 230 155 185 139 115 c 1
EndSplineSet
EndChar

StartChar: Cacute
Encoding: 356 262 198
Width: 671
Flags: MW
HStem: -16 51<383 436 383 466.5> 659 52<489.5 605 476 606> 760 90
VStem: 151 69
LayerCount: 2
Fore
SplineSet
430 760 m 1
 600 840 l 1
 625 850 l 1
 625 850 626 850 627 850 c 2
 639 850 l 1
 716 850 l 1
 595 799 l 2
 534 773 499 760 489 760 c 0
 469 760 450 760 430 760 c 1
162 348 m 1
 160 348 158 347 156 347 c 1
 201 538 378 711 574 711 c 0
 636 711 698 700 759 677 c 1
 730 608 l 1
 683 636 650 659 562 659 c 0
 417 659 270 520 230 347 c 0
 210 263 219 189 254 128 c 0
 289 66 345 35 421 35 c 0
 451 35 481 38 507 44 c 0
 564 58 570 62 623 91 c 2
 634 97 l 1
 626 39 l 1
 562 6 523 -16 410 -16 c 0
 282 -16 189 61 161 171 c 0
 147 226 147 285 162 348 c 1
EndSplineSet
EndChar

StartChar: cacute
Encoding: 357 263 199
Width: 467
Flags: MW
HStem: -8 51<252.5 288 252.5 292.5> 431 51<320 409>
VStem: 93 65
LayerCount: 2
Fore
SplineSet
288 538 m 1
 468 668 l 1
 533 668 l 1
 349 545 l 2
 341 540 333 538 326 538 c 2
 288 538 l 1
101 238 m 1
 101 237 102 235 102 234 c 1
 131 365 252 482 380 482 c 0
 452 482 478 474 534 439 c 1
 511 384 l 1
 467 412 451 431 367 431 c 0
 273 431 192 354 166 237 c 0
 153 180 157 133 177 97 c 0
 197 61 230 43 275 43 c 0
 301 43 329 48 356 57 c 0
 413 76 416 82 458 111 c 1
 450 55 l 1
 387 13 324 -8 261 -8 c 0
 138 -8 69 103 101 238 c 1
EndSplineSet
EndChar

StartChar: Ccircumflex
Encoding: 358 264 200
Width: 671
Flags: MW
HStem: -17 51<382 435 382 465.5> 658 52<488.5 604 475 605> 867 32<610 610>
VStem: 150 69
LayerCount: 2
Fore
SplineSet
430 761 m 1
 592 899 l 1
 644 899 l 1
 742 761 l 1
 692 761 l 1
 610 867 l 1
 480 761 l 1
 430 761 l 1
161 347 m 1
 159 347 157 346 155 346 c 1
 200 537 377 710 573 710 c 0
 635 710 697 699 758 676 c 1
 729 607 l 1
 682 635 649 658 561 658 c 0
 416 658 269 519 229 346 c 0
 209 262 218 188 253 127 c 0
 288 65 344 34 420 34 c 0
 450 34 480 37 506 43 c 0
 563 57 569 61 622 90 c 2
 633 96 l 1
 625 38 l 1
 561 5 522 -17 409 -17 c 0
 281 -17 188 60 160 170 c 0
 146 225 146 284 161 347 c 1
EndSplineSet
EndChar

StartChar: ccircumflex
Encoding: 359 265 201
Width: 467
Flags: MW
HStem: -9 51<252.5 288 252.5 292.5> 430 51<320 409> 640 32<415 415>
VStem: 93 65
LayerCount: 2
Fore
SplineSet
234 534 m 1
 396 672 l 1
 448 672 l 1
 546 534 l 1
 496 534 l 1
 415 640 l 1
 284 534 l 1
 234 534 l 1
101 237 m 1
 101 236 102 234 102 233 c 1
 131 364 252 481 380 481 c 0
 452 481 478 473 534 438 c 1
 511 383 l 1
 467 411 451 430 367 430 c 0
 273 430 192 353 166 236 c 0
 153 179 157 132 177 96 c 0
 197 60 230 42 275 42 c 0
 301 42 329 47 356 56 c 0
 413 75 416 81 458 110 c 1
 450 54 l 1
 387 12 324 -9 261 -9 c 0
 138 -9 69 102 101 237 c 1
EndSplineSet
EndChar

StartChar: Cdotaccent
Encoding: 360 266 202
Width: 671
Flags: MW
HStem: -17 51<382 435 382 465.5> 658 52<488.5 604 475 605> 762 78<547 643 565 625>
VStem: 150 69
LayerCount: 2
Fore
SplineSet
547 762 m 1
 565 840 l 1
 643 840 l 1
 625 762 l 1
 547 762 l 1
161 347 m 1
 159 347 157 346 155 346 c 1
 200 537 377 710 573 710 c 0
 635 710 697 699 758 676 c 1
 729 607 l 1
 682 635 649 658 561 658 c 0
 416 658 269 519 229 346 c 0
 209 262 218 188 253 127 c 0
 288 65 344 34 420 34 c 0
 450 34 480 37 506 43 c 0
 563 57 569 61 622 90 c 2
 633 96 l 1
 625 38 l 1
 561 5 522 -17 409 -17 c 0
 281 -17 188 60 160 170 c 0
 146 225 146 284 161 347 c 1
EndSplineSet
EndChar

StartChar: cdotaccent
Encoding: 361 267 203
Width: 467
Flags: MW
HStem: -9 51<252.5 288 252.5 292.5> 430 51<320 409> 535 78<352 448 370 430>
VStem: 93 65
LayerCount: 2
Fore
SplineSet
352 535 m 1
 370 613 l 1
 448 613 l 1
 430 535 l 1
 352 535 l 1
101 237 m 1
 101 236 102 234 102 233 c 1
 131 364 252 481 380 481 c 0
 452 481 478 473 534 438 c 1
 511 383 l 1
 467 411 451 430 367 430 c 0
 273 430 192 353 166 236 c 0
 153 179 157 132 177 96 c 0
 197 60 230 42 275 42 c 0
 301 42 329 47 356 56 c 0
 413 75 416 81 458 110 c 1
 450 54 l 1
 387 12 324 -9 261 -9 c 0
 138 -9 69 102 101 237 c 1
EndSplineSet
EndChar

StartChar: Ccaron
Encoding: 362 268 204
Width: 671
Flags: MW
HStem: -17 51<345 435 343 465.5> 658 52<488.5 605> 747 42<589 589 589 607 551 589>
VStem: 150 69
LayerCount: 2
Fore
SplineSet
465 909 m 1
 515 909 l 1
 589 789 l 1
 719 909 l 1
 770 909 l 1
 607 747 l 1
 588 747 570 747 551 747 c 1
 465 909 l 1
161 347 m 1
 159 347 157 346 155 346 c 1
 200 537 377 710 573 710 c 0
 638 710 700 699 758 676 c 1
 729 607 l 1
 682 635 649 658 561 658 c 0
 416 658 269 519 229 346 c 0
 191 181 266 34 420 34 c 0
 450 34 480 37 506 43 c 0
 563 57 569 61 622 90 c 2
 633 96 l 1
 625 38 l 1
 561 5 522 -17 409 -17 c 0
 281 -17 188 60 160 170 c 0
 146 225 146 284 161 347 c 1
EndSplineSet
EndChar

StartChar: ccaron
Encoding: 363 269 205
Width: 467
Flags: MW
HStem: -9 51<252.5 288 252.5 292.5> 430 51<320 409> 536 33<394 394 394 412>
VStem: 93 65
LayerCount: 2
Fore
SplineSet
268 667 m 1
 319 667 l 1
 394 569 l 1
 514 667 l 1
 565 667 l 1
 412 536 l 1
 361 536 l 1
 268 667 l 1
101 237 m 1
 101 236 102 234 102 233 c 1
 131 364 252 481 380 481 c 0
 452 481 478 473 534 438 c 1
 511 383 l 1
 467 411 451 430 367 430 c 0
 273 430 192 353 166 236 c 0
 153 179 157 132 177 96 c 0
 197 60 230 42 275 42 c 0
 301 42 329 47 356 56 c 0
 413 75 416 81 458 110 c 1
 450 54 l 1
 387 12 324 -9 261 -9 c 0
 138 -9 69 102 101 237 c 1
EndSplineSet
EndChar

StartChar: Dcaron
Encoding: 364 270 206
Width: 746
Flags: MW
HStem: 0 53<177 302 302 344 344 348> 641 54<313 481 313 313> 727 42<472 472 472 490 434 472>
VStem: 705 70
LayerCount: 2
Fore
SplineSet
347 889 m 1
 397 889 l 1
 472 769 l 1
 601 889 l 1
 652 889 l 1
 490 727 l 1
 434 727 l 1
 347 889 l 1
98 0 m 1
 256 695 l 1
 504 695 l 2
 690 695 813 549 765 341 c 0
 719 144 537 0 348 0 c 2
 98 0 l 1
177 53 m 1
 302 53 l 2
 316 53 330 53 344 53 c 0
 591 53 699 260 705 418 c 0
 709 529 655 641 481 641 c 2
 313 641 l 1
 177 53 l 1
EndSplineSet
EndChar

StartChar: dcaron
Encoding: 365 271 207
Width: 642
Flags: MW
HStem: -9 49<248 255> 0 40 430 50<339.5 372.5 339.5 384> 578 117<532 627 532 666> 652 43 652 79<662 668 644 740>
VStem: 91 67
LayerCount: 2
Fore
SplineSet
100 236 m 0xaa
 115 303 147 360 195 408 c 1xaa
 195 408 195 408 195 408 c 1
 231 444 268 466 307 475 c 0
 320 478 333 480 346 480 c 0
 399 480 439 457 467 410 c 1
 532 695 l 1
 595 695 l 1
 435 0 l 1
 371 0 l 1
 381 42 l 2
 382 45 383 50 384 57 c 2x6a
 387 72 l 1
 338 18 284 -9 226 -9 c 0
 128 -9 66 95 100 236 c 0xaa
165 236 m 1
 165 233 l 1xb2
 156 195 154 162 158 135 c 0
 169 59 227 40 269 40 c 0
 346 40 393 106 404 140 c 2
 452 351 l 2
 456 369 450 387 435 404 c 0
 420 421 398 430 370 430 c 0
 290 430 197 375 165 236 c 1
627 578 m 1
 668 652 l 1
 644 652 l 1
 662 731 l 1xaa
 740 731 l 1
 731 687 728 659 693 613 c 2xa6
 666 578 l 1
 627 578 l 1
EndSplineSet
EndChar

StartChar: Dcroat
Encoding: 366 272 208
Width: 746
Flags: MW
HStem: 0 53<180 306 306 348 348 349> 315 51<61 183 72 172 252 440> 641 54<316 484 316 316>
VStem: 707 69
LayerCount: 2
Fore
SplineSet
61 315 m 1
 72 366 l 1
 183 366 l 1
 259 695 l 1
 508 695 l 2
 517 695 526 695 535 695 c 0
 705 695 810 529 767 342 c 0
 721 144 538 0 349 0 c 2
 99 0 l 1
 172 315 l 1
 61 315 l 1
180 53 m 1
 306 53 l 1
 348 53 l 2
 433 53 511 81 561 121 c 0
 586 141 608 164 627 190 c 0
 685 269 709 359 707 442 c 0
 704 547 651 641 484 641 c 2
 316 641 l 1
 252 366 l 1
 451 366 l 1
 440 315 l 1
 241 315 l 1
 180 53 l 1
EndSplineSet
Substitution2: "'ss01' Style Set 1 in Latin lookup 24 subtable" uniF25C
Substitution2: "'salt' Stylistic Alternatives in Latin lookup 22 subtable" uniF25C
Substitution2: "'locl' Localized Forms in Latin lookup 6 subtable" uniF25C
Substitution2: "'aalt' Access All Alternates lookup 0 subtable" uniF25C
EndChar

StartChar: dcroat
Encoding: 367 273 209
Width: 517
Flags: MW
HStem: -8 49<249.5 255> 1 21G<371 435 371 371> 431 50<336.5 372.5 319.5 383.5> 559 51<317 501 305 513 576 678> 559 137<305 595 564 564 564 595 532 678>
VStem: 92 64
LayerCount: 2
Fore
SplineSet
100 236 m 0xb4
 114 303 147 361 195 409 c 1
 195 409 195 409 195 409 c 1
 243 457 293 481 346 481 c 0
 399 481 439 458 467 411 c 1
 501 559 l 1
 305 559 l 1
 317 610 l 1
 513 610 l 1xb4
 532 696 l 1
 595 696 l 1xac
 576 610 l 1
 690 610 l 1
 678 559 l 1
 564 559 l 1
 435 1 l 1
 371 1 l 1
 381 43 l 2
 382 46 383 51 384 58 c 2x74
 387 73 l 1
 338 19 284 -8 226 -8 c 0
 130 -8 68 95 100 236 c 0xb4
165 237 m 0
 165 236 165 236 165 235 c 0
 157 204 153 173 156 152 c 0
 159 62 228 41 271 41 c 0
 333 41 394 99 402 134 c 2
 452 352 l 2
 456 371 450 389 434 406 c 0
 418 423 397 431 370 431 c 0
 303 431 201 388 165 237 c 0
EndSplineSet
Substitution2: "'ss01' Style Set 1 in Latin lookup 24 subtable" uniF25D
Substitution2: "'salt' Stylistic Alternatives in Latin lookup 22 subtable" uniF25D
Substitution2: "'locl' Localized Forms in Latin lookup 6 subtable" uniF25D
Substitution2: "'aalt' Access All Alternates lookup 0 subtable" uniF25D
EndChar

StartChar: Emacron
Encoding: 368 274 210
Width: 625
Flags: MW
HStem: -3 56<180 580> 331 53<256 613 244 625> 637 53<315 713 315 315> 761 37<214.5 810 260 780>
VStem: 97 744
LayerCount: 2
Fore
SplineSet
200 781 m 1
 200 780 200 779 200 778 c 1
 205 799 227 798 260 798 c 2
 810 798 l 2
 812 798 813 798 815 798 c 0
 817 798 818 798 820 798 c 0
 822 798 823 798 825 798 c 0
 827 798 829 798 830 798 c 0
 831 798 832 798 833 798 c 0
 834 798 841 794 841 791 c 0
 841 759 818 761 780 761 c 2
 224 761 l 2
 205 761 197 768 200 781 c 1
97 -3 m 1
 257 690 l 1
 725 690 l 1
 713 637 l 1
 315 637 l 1
 256 384 l 1
 625 384 l 1
 613 331 l 1
 244 331 l 1
 180 53 l 1
 593 53 l 1
 580 -3 l 1
 97 -3 l 1
EndSplineSet
EndChar

StartChar: emacron
Encoding: 369 275 211
Width: 467
Flags: MW
HStem: -9 50<228 291> 249 39 432 51<310.5 382.5> 574 54<191 582 203 570>
VStem: 90 59
LayerCount: 2
Fore
SplineSet
191 574 m 1
 203 628 l 1
 582 628 l 1
 570 574 l 1
 191 574 l 1
97 240 m 1
 96 240 95 239 94 239 c 1
 123 366 240 483 358 483 c 0
 427 483 492 455 499 349 c 0
 501 320 498 287 489 249 c 1
 158 249 l 2
 157 247 157 244 156 242 c 0
 130 127 183 41 273 41 c 0
 331 41 390 64 451 110 c 1
 443 55 l 1
 382 12 321 -9 261 -9 c 0
 138 -9 65 101 97 240 c 1
171 289 m 1
 442 287 l 1
 454 372 421 432 344 432 c 0
 277 432 204 369 171 289 c 1
EndSplineSet
EndChar

StartChar: Ebreve
Encoding: 370 276 212
Width: 625
Flags: MW
HStem: 0 56<179 579> 334 53<255 612 243 624> 640 53<314 712 314 314> 762 54<509 549 509 557>
VStem: 373 51
LayerCount: 2
Fore
SplineSet
376 902 m 1
 424 902 l 1
 411 829 493 816 525 816 c 0
 573 816 647 837 666 902 c 1
 717 902 l 1
 695 814 600 762 514 762 c 0
 431 762 358 814 376 902 c 1
96 0 m 1
 256 693 l 1
 724 693 l 1
 712 640 l 1
 314 640 l 1
 255 387 l 1
 624 387 l 1
 612 334 l 1
 243 334 l 1
 179 56 l 1
 592 56 l 1
 579 0 l 1
 96 0 l 1
EndSplineSet
EndChar

StartChar: ebreve
Encoding: 371 277 213
Width: 467
Flags: MW
HStem: -9 50<227 290> 249 39 432 51<309.5 381.5> 535 54<369 407.5 369 414>
VStem: 89 59 230 52
LayerCount: 2
Fore
SplineSet
233 675 m 1
 282 675 l 1
 269 602 353 589 385 589 c 0
 430 589 504 610 523 675 c 1
 574 675 l 1
 552 587 457 535 371 535 c 0
 288 535 215 587 233 675 c 1
96 240 m 1
 95 240 94 239 93 239 c 1
 122 366 239 483 357 483 c 0
 426 483 491 455 498 349 c 0
 500 320 497 287 488 249 c 1
 157 249 l 2
 156 247 156 244 155 242 c 0
 129 127 182 41 272 41 c 0
 330 41 389 64 450 110 c 1
 442 55 l 1
 381 12 320 -9 260 -9 c 0
 137 -9 64 101 96 240 c 1
170 289 m 1
 441 287 l 1
 453 372 420 432 343 432 c 0
 276 432 203 369 170 289 c 1
EndSplineSet
EndChar

StartChar: Edotaccent
Encoding: 372 278 214
Width: 625
Flags: MW
HStem: 0 56<181 581> 334 53<257 614 245 626> 640 53<316 714 316 316> 761 78<476 572 494 554>
VStem: 98 628
LayerCount: 2
Fore
SplineSet
476 761 m 1
 494 839 l 1
 572 839 l 1
 554 761 l 1
 476 761 l 1
98 0 m 1
 258 693 l 1
 726 693 l 1
 714 640 l 1
 316 640 l 1
 257 387 l 1
 626 387 l 1
 614 334 l 1
 245 334 l 1
 181 56 l 1
 594 56 l 1
 581 0 l 1
 98 0 l 1
EndSplineSet
EndChar

StartChar: edotaccent
Encoding: 373 279 215
Width: 467
Flags: MW
HStem: -9 50<228 291> 249 39 432 51<310.5 382.5> 535 78<333 429 351 411>
VStem: 90 59
LayerCount: 2
Fore
SplineSet
333 535 m 1
 351 613 l 1
 429 613 l 1
 411 535 l 1
 333 535 l 1
97 240 m 1
 96 240 95 239 94 239 c 1
 123 366 240 483 358 483 c 0
 427 483 492 455 499 349 c 0
 501 320 498 287 489 249 c 1
 158 249 l 2
 157 247 157 244 156 242 c 0
 130 127 183 41 273 41 c 0
 331 41 390 64 451 110 c 1
 443 55 l 1
 382 12 321 -9 261 -9 c 0
 138 -9 65 101 97 240 c 1
171 289 m 1
 442 287 l 1
 454 372 421 432 344 432 c 0
 277 432 204 369 171 289 c 1
EndSplineSet
EndChar

StartChar: Eogonek
Encoding: 374 280 216
Width: 625
Flags: MW
HStem: -184 60<430 435.5> -1 56<504 518 518 580> 0 55<180 453> 333 53<256 613 244 625> 639 53<315 713 315 315>
VStem: 98 627
LayerCount: 2
Fore
SplineSet
98 0 m 1xbc
 257 692 l 1
 725 692 l 1
 713 639 l 1
 315 639 l 1
 256 386 l 1
 625 386 l 1
 613 333 l 1
 244 333 l 1
 180 55 l 1
 593 55 l 1xbc
 580 -1 l 1
 518 -1 l 2xdc
 490 -1 409 -54 402 -87 c 0
 398 -105 409 -124 451 -124 c 0
 473 -124 499 -119 530 -109 c 1
 533 -157 l 1
 490 -175 452 -184 419 -184 c 0
 362 -184 328 -156 338 -113 c 0
 347 -76 385 -38 453 0 c 1
 98 0 l 1xbc
EndSplineSet
EndChar

StartChar: eogonek
Encoding: 375 281 217
Width: 467
Flags: MW
HStem: -185 60<238.5 296> -9 49<249.5 263.5> 248 40 432 51<309.5 381.5>
VStem: 90 60
LayerCount: 2
Fore
SplineSet
97 239 m 1
 96 239 94 238 93 238 c 1
 122 367 239 483 357 483 c 0
 409 483 483 465 498 366 c 0
 503 333 500 294 489 248 c 1
 158 248 l 1
 144 187 148 137 170 98 c 0
 192 59 226 40 273 40 c 0
 330 40 389 63 450 109 c 1
 442 54 l 1
 428 44 403 29 367 9 c 0
 295 -31 252 -57 246 -90 c 0
 244 -99 247 -107 254 -114 c 0
 261 -121 275 -125 296 -125 c 1
 296 -125 296 -125 296 -125 c 1
 317 -125 344 -120 377 -110 c 1
 379 -158 l 1
 336 -176 299 -185 267 -185 c 0
 210 -185 176 -157 186 -114 c 0
 194 -81 229 -45 290 -7 c 1
 277 -8 267 -9 260 -9 c 0
 136 -9 66 101 97 239 c 1
170 289 m 1
 441 287 l 1
 453 372 420 432 343 432 c 0
 276 432 203 369 170 289 c 1
EndSplineSet
EndChar

StartChar: Ecaron
Encoding: 376 282 218
Width: 625
Flags: MW
HStem: 0 56<181 581> 334 53<257 614 245 626> 640 53<316 714 316 316> 727 42<494 494 494 512 456 494>
VStem: 98 628
LayerCount: 2
Fore
SplineSet
368 889 m 1
 419 889 l 1
 494 769 l 1
 623 889 l 1
 673 889 l 1
 512 727 l 1
 456 727 l 1
 368 889 l 1
98 0 m 1
 258 693 l 1
 726 693 l 1
 714 640 l 1
 316 640 l 1
 257 387 l 1
 626 387 l 1
 614 334 l 1
 245 334 l 1
 181 56 l 1
 594 56 l 1
 581 0 l 1
 98 0 l 1
EndSplineSet
EndChar

StartChar: ecaron
Encoding: 377 283 219
Width: 467
Flags: MW
HStem: -9 50<228 291> 249 39 432 51<310.5 382.5> 536 33<379 379 379 397>
VStem: 90 59
LayerCount: 2
Fore
SplineSet
253 667 m 1
 304 667 l 1
 379 569 l 1
 499 667 l 1
 550 667 l 1
 397 536 l 1
 346 536 l 1
 253 667 l 1
97 240 m 1
 96 240 95 239 94 239 c 1
 123 366 240 483 358 483 c 0
 427 483 492 455 499 349 c 0
 501 320 498 287 489 249 c 1
 158 249 l 2
 157 247 157 244 156 242 c 0
 130 127 183 41 273 41 c 0
 331 41 390 64 451 110 c 1
 443 55 l 1
 382 12 321 -9 261 -9 c 0
 138 -9 65 101 97 240 c 1
171 289 m 1
 442 287 l 1
 454 372 421 432 344 432 c 0
 277 432 204 369 171 289 c 1
EndSplineSet
EndChar

StartChar: Gcircumflex
Encoding: 378 284 220
Width: 700
Flags: MW
HStem: -18 53<346.5 443.5> 274 53<483 627 470 705> 657 53<488.5 599.5> 867 32<614 614>
VStem: 151 71
LayerCount: 2
Fore
SplineSet
434 761 m 1
 596 899 l 1
 648 899 l 1
 746 761 l 1
 696 761 l 1
 614 867 l 1
 484 761 l 1
 434 761 l 1
161 347 m 1
 161 347 160 346 160 346 c 1
 205 537 381 710 576 710 c 0
 645 710 711 694 773 662 c 1
 745 593 l 1
 693 636 633 657 566 657 c 0
 411 657 268 511 231 346 c 0
 192 173 275 35 418 35 c 0
 504 35 573 59 579 62 c 1
 627 274 l 1
 470 274 l 1
 483 327 l 1
 705 327 l 1
 636 31 l 1
 556 -2 480 -18 407 -18 c 0
 221 -18 115 147 161 347 c 1
EndSplineSet
EndChar

StartChar: gcircumflex
Encoding: 379 285 221
Width: 517
Flags: MW
HStem: -185 50<190 263.5> 16 47<269.5 271> 428 51<347.5 380 347.5 386.5> 640 32<389 389>
VStem: 94 67 447 14
LayerCount: 2
Fore
SplineSet
208 534 m 1
 370 672 l 1
 422 672 l 1
 520 534 l 1
 470 534 l 1
 389 640 l 1
 258 534 l 1
 208 534 l 1
101 237 m 1
 100 236 99 236 98 235 c 1
 124 345 217 457 319 476 c 0
 330 478 342 479 353 479 c 0
 407 479 443 450 461 392 c 1
 481 479 l 1
 544 479 l 1
 435 8 l 2
 409 -109 313 -185 214 -185 c 0
 153 -185 95 -170 40 -140 c 1
 52 -86 l 1
 115 -121 154 -135 226 -135 c 0
 325 -135 360 -58 387 68 c 2
 399 125 l 1
 364 69 306 16 236 16 c 0
 140 16 71 107 101 237 c 1
163 235 m 0
 164 234 165 234 166 233 c 0
 147 156 181 80 246 66 c 0
 255 64 264 63 275 63 c 0
 363 63 406 167 429 247 c 1
 444 313 l 2
 450 338 447 363 436 389 c 0
 425 415 403 428 370 428 c 0
 284 428 188 341 163 235 c 0
EndSplineSet
EndChar

StartChar: Gbreve
Encoding: 380 286 222
Width: 700
Flags: MW
HStem: -17 53<346.5 443.5> 275 53<483 627 470 705> 658 53<488.5 599.5> 747 56<563.5 619.5 563.5 623>
VStem: 151 71 442 55
LayerCount: 2
Fore
SplineSet
446 909 m 1
 463 909 480 910 497 910 c 1
 485 841 534 803 593 803 c 0
 646 803 719 839 739 910 c 1
 789 910 l 1
 763 813 667 747 579 747 c 0
 490 747 426 812 446 909 c 1
161 348 m 1
 161 348 160 347 160 347 c 1
 205 538 381 711 576 711 c 0
 646 711 712 695 773 663 c 1
 745 594 l 1
 693 637 633 658 566 658 c 0
 411 658 268 512 231 347 c 0
 192 174 275 36 418 36 c 0
 504 36 573 60 579 63 c 1
 627 275 l 1
 470 275 l 1
 483 328 l 1
 705 328 l 1
 636 32 l 1
 556 -1 480 -17 407 -17 c 0
 221 -17 115 148 161 348 c 1
EndSplineSet
EndChar

StartChar: gbreve
Encoding: 381 287 223
Width: 517
Flags: MW
HStem: -186 50<187 260.5> 15 47<266.5 268> 427 51<344.5 377 344.5 383.5> 537 54<378 440.5 378 443> 675 20G<263 271 554 605 605 605>
VStem: 91 67 260 51 444 14
LayerCount: 2
Fore
SplineSet
263 695 m 1
 279 695 295 694 311 694 c 1
 299 627 348 591 408 591 c 0
 473 591 536 631 554 695 c 1
 605 695 l 1
 579 599 488 537 398 537 c 0
 309 537 245 601 263 695 c 1
98 236 m 1
 97 235 96 235 95 234 c 1
 121 344 214 456 316 475 c 0
 327 477 339 478 350 478 c 0
 404 478 440 449 458 391 c 1
 478 478 l 1
 541 478 l 1
 432 7 l 2
 406 -110 310 -186 211 -186 c 0
 150 -186 92 -171 37 -141 c 1
 49 -87 l 1
 112 -122 151 -136 223 -136 c 0
 322 -136 357 -59 384 67 c 2
 396 124 l 1
 361 68 303 15 233 15 c 0
 137 15 68 106 98 236 c 1
160 234 m 0
 161 233 162 233 163 232 c 0
 144 155 178 79 243 65 c 0
 252 63 261 62 272 62 c 0
 360 62 403 166 426 246 c 1
 441 312 l 2
 447 337 444 362 433 388 c 0
 422 414 400 427 367 427 c 0
 281 427 185 340 160 234 c 0
EndSplineSet
EndChar

StartChar: Gdotaccent
Encoding: 382 288 224
Width: 700
Flags: MW
HStem: -18 53<346.5 443.5> 274 53<483 627 470 705> 657 53<488.5 599.5> 762 78<551 647 569 629>
VStem: 151 71
LayerCount: 2
Fore
SplineSet
551 762 m 1
 569 840 l 1
 647 840 l 1
 629 762 l 1
 551 762 l 1
161 347 m 1
 161 347 160 346 160 346 c 1
 205 537 381 710 576 710 c 0
 645 710 711 694 773 662 c 1
 745 593 l 1
 693 636 633 657 566 657 c 0
 411 657 268 511 231 346 c 0
 192 173 275 35 418 35 c 0
 504 35 573 59 579 62 c 1
 627 274 l 1
 470 274 l 1
 483 327 l 1
 705 327 l 1
 636 31 l 1
 556 -2 480 -18 407 -18 c 0
 221 -18 115 147 161 347 c 1
EndSplineSet
EndChar

StartChar: gdotaccent
Encoding: 383 289 225
Width: 517
Flags: MW
HStem: -185 50<190 263.5> 16 47<269.5 271> 428 51<347.5 380 347.5 386.5> 534 78<325 421 343 403>
VStem: 94 67 447 14
LayerCount: 2
Fore
SplineSet
325 534 m 1
 343 612 l 1
 421 612 l 1
 403 534 l 1
 325 534 l 1
101 237 m 1
 100 236 99 236 98 235 c 1
 124 345 217 457 319 476 c 0
 330 478 342 479 353 479 c 0
 407 479 443 450 461 392 c 1
 481 479 l 1
 544 479 l 1
 435 8 l 2
 409 -109 313 -185 214 -185 c 0
 153 -185 95 -170 40 -140 c 1
 52 -86 l 1
 115 -121 154 -135 226 -135 c 0
 325 -135 360 -58 387 68 c 2
 399 125 l 1
 364 69 306 16 236 16 c 0
 140 16 71 107 101 237 c 1
163 235 m 0
 164 234 165 234 166 233 c 0
 147 156 181 80 246 66 c 0
 255 64 264 63 275 63 c 0
 363 63 406 167 429 247 c 1
 444 313 l 2
 450 338 447 363 436 389 c 0
 425 415 403 428 370 428 c 0
 284 428 188 341 163 235 c 0
EndSplineSet
EndChar

StartChar: Hcircumflex
Encoding: 384 292 226
Width: 708
Flags: MW
HStem: 0 21G<98 98 98 168 539 539 539 609> 335 53<258 616 245 629> 675 20G<258 328 328 328 699 769 769 769> 867 32<554 554>
VStem: 98 671
LayerCount: 2
Fore
SplineSet
374 761 m 1
 536 899 l 1
 588 899 l 1
 686 761 l 1
 636 761 l 1
 554 867 l 1
 424 761 l 1
 374 761 l 1
98 0 m 1
 258 695 l 1
 328 695 l 1
 258 388 l 1
 629 388 l 1
 699 695 l 1
 769 695 l 1
 609 0 l 1
 539 0 l 1
 616 335 l 1
 245 335 l 1
 168 0 l 1
 98 0 l 1
EndSplineSet
EndChar

StartChar: hcircumflex
Encoding: 385 293 227
Width: 517
Flags: MW
HStem: -1 21G<370 434 370 370> 0 21G<80 80 80 145> 429 49<363 399.5> 675 20G<239 302 302 302> 850 32<454 454>
VStem: 448 68
LayerCount: 2
Fore
SplineSet
274 744 m 1x7c
 436 882 l 1
 488 882 l 1
 586 744 l 1
 536 744 l 1
 454 850 l 1
 324 744 l 1
 274 744 l 1x7c
80 0 m 1
 239 695 l 1
 302 695 l 1
 239 421 l 2
 238 416 237 409 235 399 c 2
 231 377 l 1
 264 426 324 478 402 478 c 0
 487 478 513 441 516 396 c 0
 518 360 513 348 507 314 c 2
 434 -1 l 1
 370 -1 l 1xbc
 442 310 l 2
 460 387 443 429 356 429 c 0
 264 429 228 337 214 300 c 1
 145 0 l 1
 80 0 l 1
EndSplineSet
EndChar

StartChar: hbar
Encoding: 386 295 228
Width: 579
Flags: MW
HStem: 0 21G<142 207 142 142> 432 49<429 464.5> 533 51<149 278 162 265 342 477> 533 162<149 367 149 367 330 330 330 367 303 477>
VStem: 513 69
LayerCount: 2
Fore
SplineSet
149 533 m 1xe8
 162 584 l 1
 278 584 l 1xe8
 303 695 l 1
 367 695 l 1xd8
 342 584 l 1
 489 584 l 1
 477 533 l 1
 330 533 l 1
 294 378 l 1
 327 427 390 481 468 481 c 0
 550 481 579 445 582 399 c 0
 584 363 579 351 573 317 c 2
 500 2 l 1
 435 2 l 1
 507 313 l 2
 525 391 507 432 422 432 c 0
 311 432 281 319 267 262 c 0
 246 175 227 87 207 0 c 1
 142 0 l 1
 265 533 l 1
 149 533 l 1xe8
EndSplineSet
EndChar

StartChar: Itilde
Encoding: 387 296 229
Width: 267
Flags: MW
HStem: 0 21G<96 96 96 166> 675 20G<256 326 326 326> 812 52<394.5 408.5 394.5 424.5> 882 49<249 272 240.5 277.5>
VStem: 96 425
LayerCount: 2
Fore
SplineSet
147 813 m 1
 144 813 l 1
 161 877 211 931 270 931 c 0
 274 931 278 930 283 929 c 0xd8
 307 923 338 900 357 881 c 0
 372 870 387 864 402 864 c 0
 415 864 428 869 441 879 c 0
 454 889 464 906 471 930 c 1
 521 930 l 1
 503 865 454 812 395 812 c 0
 390 812 385 812 381 813 c 0xf8
 369 815 353 825 347 830 c 0
 301 866 292 882 263 882 c 0
 235 882 209 856 197 813 c 1
 147 813 l 1
96 0 m 1
 256 695 l 1
 326 695 l 1
 166 0 l 1
 96 0 l 1
EndSplineSet
EndChar

StartChar: itilde
Encoding: 388 297 230
Width: 225
Flags: MW
HStem: 455 20G<189 252 252 252> 592 50<324 337.5 324 353.5> 658 54<177 201 170 208>
VStem: 73 377<592.5 710>
LayerCount: 2
Fore
SplineSet
74 590 m 2
 74 591 73 592 73 593 c 0
 90 657 141 712 199 712 c 0
 203 712 207 711 212 710 c 0xb0
 234 705 263 681 286 660 c 0
 300 647 317 642 331 642 c 0
 344 642 357 647 370 657 c 0xf0
 383 667 393 685 400 710 c 1
 450 710 l 1xb0
 432 645 383 592 324 592 c 0xf0
 284 592 225 658 191 658 c 0
 163 658 138 636 124 590 c 1
 74 590 l 2
80 3 m 1
 189 475 l 1
 252 475 l 1
 143 3 l 1
 80 3 l 1
EndSplineSet
EndChar

StartChar: Imacron
Encoding: 389 298 231
Width: 267
Flags: MW
HStem: 0 21G<98 98 98 168> 675 20G<258 328 328 328> 761 54<119 510 131 498>
VStem: 98 412
LayerCount: 2
Fore
SplineSet
119 761 m 1
 131 815 l 1
 510 815 l 1
 498 761 l 1
 119 761 l 1
98 0 m 1
 258 695 l 1
 328 695 l 1
 168 0 l 1
 98 0 l 1
EndSplineSet
EndChar

StartChar: imacron
Encoding: 390 299 232
Width: 382
Flags: MW
HStem: 0 21G<238 238 238 301> 452 20G<347 410 410 410> 574 54<213 604 225 592>
VStem: 213 391<574 628>
LayerCount: 2
Fore
SplineSet
213 574 m 1
 225 628 l 1
 604 628 l 1
 592 574 l 1
 213 574 l 1
238 0 m 1
 347 472 l 1
 410 472 l 1
 301 0 l 1
 238 0 l 1
EndSplineSet
Ligature2: "'liga' Standard Ligatures in Latin lookup 10 subtable" i uni0304
EndChar

StartChar: Ibreve
Encoding: 391 300 233
Width: 267
Flags: MW
HStem: 0 21G<96 96 96 166> 675 20G<256 326 326 326> 762 54<303 343 303 351>
VStem: 167 51
LayerCount: 2
Fore
SplineSet
170 902 m 1
 218 902 l 1
 205 829 287 816 319 816 c 0
 367 816 441 837 460 902 c 1
 511 902 l 1
 489 814 394 762 308 762 c 0
 225 762 152 814 170 902 c 1
96 0 m 1
 256 695 l 1
 326 695 l 1
 166 0 l 1
 96 0 l 1
EndSplineSet
EndChar

StartChar: ibreve
Encoding: 392 301 234
Width: 364
Flags: MW
HStem: 0 21G<218 218 218 281> 452 20G<327 390 390 390> 535 54<372 410.5 372 417>
VStem: 233 52
LayerCount: 2
Fore
SplineSet
236 675 m 1
 285 675 l 1
 272 602 356 589 388 589 c 0
 433 589 507 610 526 675 c 1
 577 675 l 1
 555 587 460 535 374 535 c 0
 291 535 218 587 236 675 c 1
218 0 m 1
 327 472 l 1
 390 472 l 1
 281 0 l 1
 218 0 l 1
EndSplineSet
Ligature2: "'liga' Standard Ligatures in Latin lookup 10 subtable" i uni0306
EndChar

StartChar: Idotaccent
Encoding: 393 304 235
Width: 267
Flags: MW
HStem: 0 21G<98 98 98 168> 675 20G<258 328 328 328> 782 78<275 371 293 353>
VStem: 98 273
LayerCount: 2
Fore
SplineSet
98 0 m 1
 258 695 l 1
 328 695 l 1
 168 0 l 1
 98 0 l 1
275 782 m 1
 293 860 l 1
 371 860 l 1
 353 782 l 1
 275 782 l 1
EndSplineSet
EndChar

StartChar: dotlessi
Encoding: 394 305 236
Width: 225
Flags: MW
HStem: 0 21G<80 80 80 143> 452 20G<189 252 252 252>
VStem: 80 172
LayerCount: 2
Fore
SplineSet
80 0 m 1
 189 472 l 1
 252 472 l 1
 143 0 l 1
 80 0 l 1
EndSplineSet
EndChar

StartChar: IJ
Encoding: 395 306 237
Width: 733
Flags: MW
HStem: -17 51<439 512.5 433.5 534> -1 21G<70 70 70 140> 674 20G<230 300 300 300 751 820 820 820>
VStem: 70 750<-1 694>
LayerCount: 2
Fore
SplineSet
300 25 m 1xb0
 325 87 l 1
 366 52 410 34 457 34 c 0
 568 34 609 98 621 133 c 0
 623 139 625 147 627 156 c 2
 751 694 l 1
 820 694 l 1
 694 148 l 2
 673 57 599 -17 469 -17 c 0
 409 -17 353 -3 300 25 c 1xb0
70 -1 m 1x70
 230 694 l 1
 300 694 l 1
 140 -1 l 1
 70 -1 l 1x70
EndSplineSet
Ligature2: "'dlig' Discretionary Ligatures in Latin lookup 13 subtable" I J
Ligature2: "'liga' Standard Ligatures in Latin lookup 12 subtable" I J
EndChar

StartChar: ij
Encoding: 396 307 238
Width: 546
Flags: MW
HStem: -175 51<288.5 320.5 282.5 341.5> -2 21G<87 87 87 150> 629 63<233 310 247 296 567 616>
VStem: 87 543
LayerCount: 2
Fore
SplineSet
195 -146 m 1
 219 -97 l 1
 243 -115 269 -124 296 -124 c 0
 345 -124 384 -102 395 -56 c 2
 517 471 l 1
 581 471 l 1
 473 3 l 2
 469 -14 465 -32 461 -49 c 0
 443 -129 374 -175 309 -175 c 0
 268 -175 230 -165 195 -146 c 1
553 629 m 1
 567 692 l 1
 630 692 l 1
 616 629 l 1
 553 629 l 1
87 -2 m 1
 196 470 l 1
 259 470 l 1
 150 -2 l 1
 87 -2 l 1
233 629 m 1
 247 692 l 1
 310 692 l 1
 296 629 l 1
 233 629 l 1
EndSplineSet
Ligature2: "'dlig' Discretionary Ligatures in Latin lookup 13 subtable" i j
Ligature2: "'liga' Standard Ligatures in Latin lookup 12 subtable" i j
EndChar

StartChar: Jcircumflex
Encoding: 397 308 239
Width: 483
Flags: MW
HStem: -17 50<188.5 251 183 261> 867 32<574 574>
VStem: 49 657
LayerCount: 2
Fore
SplineSet
394 761 m 1
 556 899 l 1
 608 899 l 1
 706 761 l 1
 656 761 l 1
 574 867 l 1
 444 761 l 1
 394 761 l 1
49 25 m 1
 73 86 l 1
 113 51 158 33 208 33 c 0
 294 33 354 75 373 155 c 2
 497 693 l 1
 566 693 l 1
 442 153 l 2
 409 12 303 -17 219 -17 c 0
 158 -17 101 -3 49 25 c 1
EndSplineSet
EndChar

StartChar: jcircumflex
Encoding: 398 309 240
Width: 254
Flags: MW
HStem: -175 53<-14 13.5> 452 20G<217 281 281 281> 640 32<290 290>
VStem: -110 531
LayerCount: 2
Fore
SplineSet
109 534 m 1
 271 672 l 1
 323 672 l 1
 421 534 l 1
 371 534 l 1
 290 640 l 1
 159 534 l 1
 109 534 l 1
-110 -146 m 1
 -83 -95 l 1
 -59 -113 -33 -122 -5 -122 c 0
 44 -122 85 -100 95 -55 c 2
 217 472 l 1
 281 472 l 1
 162 -45 l 2
 156 -72 126 -151 45 -171 c 0
 33 -174 20 -175 7 -175 c 0
 -35 -175 -74 -165 -110 -146 c 1
EndSplineSet
Ligature2: "'liga' Standard Ligatures in Latin lookup 11 subtable" j uni0302
EndChar

StartChar: Lacute
Encoding: 399 313 241
Width: 567
Flags: MW
HStem: 2 53<179 522> 677 20G<257 327 327 327> 760 91
VStem: 97 437<2 55>
LayerCount: 2
Fore
SplineSet
194 760 m 2
 194 761 193 761 193 762 c 0
 415 864 383 851 400 851 c 2
 445 851 l 2
 461 851 472 851 480 850 c 1
 359 799 l 2
 298 773 263 760 253 760 c 2
 194 760 l 2
97 2 m 1
 257 697 l 1
 327 697 l 1
 179 55 l 1
 534 55 l 1
 522 2 l 1
 97 2 l 1
EndSplineSet
EndChar

StartChar: lacute
Encoding: 400 314 242
Width: 225
Flags: MW
HStem: 1 21G<78 78 78 141> 676 20G<238 301 301 301> 760 91
VStem: 78 413
LayerCount: 2
Fore
SplineSet
208 760 m 1
 396 854 394 851 412 851 c 2
 439 851 l 1
 465 851 l 2
 476 851 485 851 491 850 c 2
 434 826 l 1
 434 826 434 826 434 826 c 1
 354 792 l 1
 308 771 l 2
 294 764 282 759 278 760 c 2
 267 760 l 2
 247 760 228 760 208 760 c 1
78 1 m 1
 238 696 l 1
 301 696 l 1
 141 1 l 1
 78 1 l 1
EndSplineSet
EndChar

StartChar: Lcaron
Encoding: 401 317 243
Width: 567
Flags: MW
HStem: 0 53<180 523> 675 20G<258 328 328 328 533 557 533 533> 695 78<551 557 533 629>
VStem: 98 531
LayerCount: 2
Fore
SplineSet
516 620 m 1xd0
 557 695 l 1
 533 695 l 1
 551 773 l 1
 629 773 l 1
 624 751 619 730 614 708 c 2
 608 690 l 2xb0
 604 679 600 678 582 655 c 2
 555 620 l 1
 516 620 l 1xd0
98 0 m 1
 258 695 l 1
 328 695 l 1xd0
 180 53 l 1
 535 53 l 1
 523 0 l 1
 98 0 l 1
EndSplineSet
EndChar

StartChar: lcaron
Encoding: 402 318 244
Width: 351
Flags: MW
HStem: -1 21G<81 81 81 144> 581 113<241 335 241 374> 654 40 654 79<371 377 353 450>
VStem: 81 369
LayerCount: 2
Fore
SplineSet
335 581 m 1xc8
 377 654 l 1
 353 654 l 1
 371 733 l 1xa8
 450 733 l 1
 444 707 440 671 428 652 c 2
 419 638 l 1
 419 638 419 638 419 638 c 1x98
 374 581 l 1
 335 581 l 1xc8
81 -1 m 1
 241 694 l 1
 304 694 l 1
 144 -1 l 1
 81 -1 l 1
EndSplineSet
EndChar

StartChar: Lslash
Encoding: 403 321 245
Width: 654
Flags: MW
HStem: 0 53<267 609> 675 20G<345 415 415 415>
VStem: 144 477<53 279>
LayerCount: 2
Fore
SplineSet
144 279 m 1
 269 366 l 1
 345 695 l 1
 415 695 l 1
 353 425 l 1
 522 544 l 1
 546 503 l 1
 337 356 l 1
 267 53 l 1
 621 53 l 1
 609 0 l 1
 185 0 l 1
 254 297 l 1
 169 238 l 1
 144 279 l 1
EndSplineSet
EndChar

StartChar: lslash
Encoding: 404 322 246
Width: 314
Flags: MW
HStem: 0 21G<124 187 124 124> 675 20G<284 347 347 347>
VStem: 90 313<284 450>
LayerCount: 2
Fore
SplineSet
90 284 m 1
 209 368 l 1
 284 695 l 1
 347 695 l 1
 284 421 l 1
 380 488 l 1
 403 450 l 1
 269 355 l 1
 187 0 l 1
 124 0 l 1
 194 302 l 1
 113 245 l 1
 90 284 l 1
EndSplineSet
EndChar

StartChar: Nacute
Encoding: 405 323 247
Width: 708
Flags: MW
HStem: 1 58<511 559 559 559 559 609> 638 58<311 311> 760 90
VStem: 101 668
LayerCount: 2
Fore
SplineSet
406 760 m 1
 576 840 l 1
 601 850 l 2
 602 850 604 850 607 850 c 2
 615 850 l 1
 692 850 l 1
 571 799 l 2
 510 773 475 760 465 760 c 2
 406 760 l 1
101 1 m 1
 261 696 l 1
 359 696 l 1
 559 59 l 1
 706 696 l 1
 769 696 l 1
 609 1 l 1
 511 1 l 1
 311 638 l 1
 164 1 l 1
 101 1 l 1
EndSplineSet
EndChar

StartChar: nacute
Encoding: 406 324 248
Width: 517
Flags: MW
HStem: 0 21G<370 434 370 370> 1 21G<80 80 80 145> 430 41 430 49<365 377.5>
VStem: 448 68
LayerCount: 2
Fore
SplineSet
298 538 m 1x58
 478 668 l 1
 543 668 l 1
 359 545 l 2
 351 540 343 538 336 538 c 2
 298 538 l 1x58
80 1 m 1
 187 471 l 1
 249 471 l 1x68
 227 374 l 1
 266 433 328 479 402 479 c 0
 487 479 513 442 516 397 c 0
 518 354 511 328 499 280 c 0
 476 187 455 93 434 0 c 1
 370 0 l 1x98
 442 311 l 2
 445 324 447 336 448 347 c 0
 449 369 446 387 438 400 c 0
 426 420 399 430 356 430 c 0
 264 430 228 338 214 301 c 1
 145 1 l 1
 80 1 l 1
EndSplineSet
EndChar

StartChar: Ncaron
Encoding: 407 327 249
Width: 708
Flags: MW
HStem: 0 58<510 558 558 558 558 608> 637 58<310 310> 727 42<532 532 532 550 494 532>
VStem: 100 668
LayerCount: 2
Fore
SplineSet
406 889 m 1
 457 889 l 1
 532 769 l 1
 661 889 l 1
 711 889 l 1
 550 727 l 1
 494 727 l 1
 406 889 l 1
100 0 m 1
 260 695 l 1
 358 695 l 1
 558 58 l 1
 705 695 l 1
 768 695 l 1
 608 0 l 1
 510 0 l 1
 310 637 l 1
 163 0 l 1
 100 0 l 1
EndSplineSet
EndChar

StartChar: ncaron
Encoding: 408 328 250
Width: 517
Flags: MW
HStem: -1 21G<370 434 370 370> 0 21G<80 80 80 145> 429 41 429 49<365 377.5> 536 33<349 349 349 367>
VStem: 448 68
LayerCount: 2
Fore
SplineSet
223 667 m 1x5c
 274 667 l 1
 349 569 l 1
 469 667 l 1
 520 667 l 1
 367 536 l 1
 316 536 l 1
 223 667 l 1x5c
80 0 m 1
 187 470 l 1
 249 470 l 1x6c
 227 373 l 1
 266 432 328 478 402 478 c 0
 487 478 513 441 516 396 c 0
 518 353 511 327 499 279 c 0
 476 186 455 92 434 -1 c 1
 370 -1 l 1x9c
 442 310 l 2
 445 323 447 335 448 346 c 0
 449 368 446 386 438 399 c 0
 426 419 399 429 356 429 c 0
 264 429 228 337 214 300 c 1
 145 0 l 1
 80 0 l 1
EndSplineSet
EndChar

StartChar: Eng
Encoding: 409 330 251
Width: 775
Flags: MW
HStem: -17 52<529 593.5 519.5 596.5> 0 21G<98 98 98 168> 674 20G<253 323 323 323> 679 64<528 630>
VStem: 755 69
LayerCount: 2
Fore
SplineSet
98 0 m 1x58
 253 694 l 1
 323 694 l 1xa8
 311 638 l 1
 393 708 481 743 575 743 c 0
 746 743 855 622 816 450 c 2
 748 154 l 2
 719 29 639 -17 554 -17 c 0
 504 -17 457 -3 413 25 c 1
 438 88 l 1
 465 53 499 35 540 35 c 0x98
 647 35 678 127 681 152 c 0
 682 156 682 160 683 164 c 2
 748 447 l 2
 780 585 697 679 563 679 c 0
 435 679 303 582 279 479 c 2
 168 0 l 1
 98 0 l 1x58
EndSplineSet
EndChar

StartChar: eng
Encoding: 410 331 252
Width: 517
Flags: MW
HStem: -176 53<248 272> 0 21G<80 80 80 145> 430 47<365 380.5>
VStem: 448 68
LayerCount: 2
Fore
SplineSet
80 0 m 1
 187 469 l 1
 249 469 l 1
 227 372 l 1
 266 431 328 477 402 477 c 0
 487 477 513 440 516 395 c 0
 518 351 511 332 500 286 c 2
 494 260 l 2
 474 173 454 85 434 -2 c 0
 416 -78 363 -149 302 -170 c 0
 290 -174 278 -176 266 -176 c 0
 226 -176 188 -166 151 -147 c 1
 186 -96 l 1
 213 -114 237 -123 259 -123 c 0
 304 -123 351 -88 366 -20 c 2
 374 16 l 2
 378 35 380 46 381 48 c 2
 442 311 l 2
 445 325 447 337 448 348 c 0
 450 370 446 387 439 398 c 0
 426 419 400 430 361 430 c 0
 280 430 232 371 204 257 c 2
 145 0 l 1
 80 0 l 1
EndSplineSet
EndChar

StartChar: Omacron
Encoding: 411 332 253
Width: 783
Flags: MW
HStem: -21 52<359.5 471.5 359.5 475> 655 52<466 578.5> 761 37<265.5 861 311 831>
VStem: 126 68 744 67
LayerCount: 2
Fore
SplineSet
251 781 m 1
 251 780 251 779 251 778 c 1
 256 799 278 798 311 798 c 2
 861 798 l 2
 863 798 864 798 866 798 c 0
 868 798 869 798 871 798 c 0
 875 798 885 799 887 797 c 0
 888 795 892 793 892 791 c 0
 892 759 869 761 831 761 c 2
 275 761 l 2
 256 761 248 768 251 781 c 1
137 344 m 1
 137 343 137 343 137 342 c 1
 184 546 373 707 553 707 c 0
 734 707 848 547 801 343 c 0
 754 140 565 -21 385 -21 c 0
 203 -21 89 139 137 344 c 1
207 342 m 1
 207 342 206 342 206 342 c 1
 184 252 194 180 230 123 c 0
 268 62 322 31 397 31 c 0
 546 31 693 175 732 342 c 0
 754 437 746 513 709 570 c 1
 709 570 709 570 709 570 c 1
 672 627 616 655 541 655 c 0
 391 655 251 531 207 342 c 1
EndSplineSet
EndChar

StartChar: omacron
Encoding: 412 333 254
Width: 525
Flags: MW
HStem: -7 54<249.5 312 249.5 320.5> 436 50<324 382> 574 54<205 596 217 584>
VStem: 87 68 485 60
LayerCount: 2
Fore
SplineSet
205 574 m 1
 217 628 l 1
 596 628 l 1
 584 574 l 1
 205 574 l 1
94 236 m 0
 94 237 94 237 94 238 c 0
 123 369 249 486 374 486 c 0
 493 486 571 376 537 237 c 0
 508 106 381 -7 260 -7 c 0
 143 -7 62 96 94 236 c 0
162 247 m 1
 163 247 163 248 164 248 c 1
 155 210 152 177 155 149 c 0
 163 72 226 47 273 47 c 0
 351 47 442 100 477 248 c 0
 492 315 487 363 461 392 c 0
 435 421 402 436 362 436 c 0
 286 436 192 384 162 247 c 1
EndSplineSet
EndChar

StartChar: Obreve
Encoding: 413 334 255
Width: 783
Flags: MW
HStem: -18 52<358.5 470.5 358.5 474> 658 52<465 577.5> 762 54<561 601 561 609>
VStem: 125 68 425 51 743 67
LayerCount: 2
Fore
SplineSet
428 902 m 1
 476 902 l 1
 463 829 545 816 577 816 c 0
 625 816 699 837 718 902 c 1
 769 902 l 1
 747 814 652 762 566 762 c 0
 483 762 410 814 428 902 c 1
136 347 m 1
 136 346 136 346 136 345 c 1
 183 549 372 710 552 710 c 0
 733 710 847 550 800 346 c 0
 753 143 564 -18 384 -18 c 0
 202 -18 88 142 136 347 c 1
206 345 m 1
 206 345 205 345 205 345 c 1
 183 255 193 183 229 126 c 0
 267 65 321 34 396 34 c 0
 545 34 692 178 731 345 c 0
 753 440 745 516 708 573 c 1
 708 573 708 573 708 573 c 1
 671 630 615 658 540 658 c 0
 390 658 250 534 206 345 c 1
EndSplineSet
EndChar

StartChar: obreve
Encoding: 414 335 256
Width: 525
Flags: MW
HStem: -7 54<248.5 311 248.5 319.5> 436 50<323 381> 535 54<383 421.5 383 428>
VStem: 86 68 244 52 484 60
LayerCount: 2
Fore
SplineSet
247 675 m 1
 296 675 l 1
 283 602 367 589 399 589 c 0
 444 589 518 610 537 675 c 1
 588 675 l 1
 566 587 471 535 385 535 c 0
 302 535 229 587 247 675 c 1
93 236 m 0
 93 237 93 237 93 238 c 0
 122 369 248 486 373 486 c 0
 492 486 570 376 536 237 c 0
 507 106 380 -7 259 -7 c 0
 142 -7 61 96 93 236 c 0
161 247 m 1
 162 247 162 248 163 248 c 1
 154 210 151 177 154 149 c 0
 162 72 225 47 272 47 c 0
 350 47 441 100 476 248 c 0
 491 315 486 363 460 392 c 0
 434 421 401 436 361 436 c 0
 285 436 191 384 161 247 c 1
EndSplineSet
EndChar

StartChar: Ohungarumlaut
Encoding: 415 336 257
Width: 783
Flags: MW
HStem: -18 53<386 476> 658 52<467 600> 760 89<583 585 583 600 583 640>
VStem: 127 68 744 68
LayerCount: 2
Fore
SplineSet
574 760 m 1
 761 849 l 1
 794 849 827 850 860 850 c 1
 640 760 l 1
 618 760 596 760 574 760 c 1
399 760 m 1
 583 849 l 1
 617 849 651 850 685 850 c 1
 462 760 l 1
 441 760 420 760 399 760 c 1
138 347 m 1
 138 346 138 346 138 345 c 1
 185 549 374 710 554 710 c 0
 735 710 849 550 802 346 c 0
 755 143 566 -18 386 -18 c 0
 204 -18 90 142 138 347 c 1
208 345 m 1
 204 345 l 1
 174 214 221 70 342 41 c 0
 359 37 376 35 396 35 c 0
 612 35 771 301 741 497 c 0
 727 588 658 658 542 658 c 0
 392 658 252 534 208 345 c 1
EndSplineSet
EndChar

StartChar: ohungarumlaut
Encoding: 416 337 258
Width: 525
Flags: MW
HStem: -5 54<249.5 312 249.5 320.5> 438 50<324 382> 539 129<419 489 424 457>
VStem: 87 68 485 60
LayerCount: 2
Fore
SplineSet
244 538 m 1
 424 668 l 1
 489 668 l 1
 458 647 422 623 381 596 c 2
 305 545 l 2
 297 540 289 538 282 538 c 2
 244 538 l 1
419 539 m 1
 599 669 l 1
 664 669 l 1
 633 648 597 624 556 597 c 2
 480 546 l 2
 472 541 464 539 457 539 c 2
 419 539 l 1
94 238 m 0
 94 239 94 239 94 240 c 0
 123 371 249 488 374 488 c 0
 493 488 571 378 537 239 c 0
 508 108 381 -5 260 -5 c 0
 143 -5 62 98 94 238 c 0
162 249 m 1
 163 249 163 250 164 250 c 1
 155 212 152 179 155 151 c 0
 163 74 226 49 273 49 c 0
 351 49 442 102 477 250 c 0
 492 317 487 365 461 394 c 0
 435 423 402 438 362 438 c 0
 286 438 192 386 162 249 c 1
EndSplineSet
EndChar

StartChar: OE
Encoding: 417 338 259
Width: 1008
Flags: MW
HStem: -18 51<292 381> 0 56<509 977 565 964> 335 53<642 997 629 1010> 641 54<700 1097 700 700> 661 50<438.5 542.5 432 543.5>
VStem: 86 72
LayerCount: 2
Fore
SplineSet
96 346 m 1x74
 95 346 95 346 94 346 c 1x6c
 139 545 338 711 526 711 c 0
 559 711 645 696 668 695 c 2
 1109 695 l 1
 1097 641 l 1
 700 641 l 1
 642 388 l 1
 1010 388 l 1
 997 335 l 1
 629 335 l 1
 565 56 l 1
 977 56 l 1
 964 0 l 1x74
 565 0 l 2
 453 0 401 -18 361 -18 c 0xb4
 177 -18 48 141 96 346 c 1x74
166 360 m 1x74
 167 360 167 359 168 359 c 1
 129 189 209 33 375 33 c 0
 488 33 505 92 534 229 c 0
 535 234 536 237 536 239 c 2
 585 449 l 2
 605 536 612 593 605 620 c 0xac
 598 647 569 661 518 661 c 0
 359 661 203 519 166 360 c 1x74
EndSplineSet
EndChar

StartChar: oe
Encoding: 418 339 260
Width: 817
Flags: MW
HStem: -7 51<237.5 274> -6 50<618.5 652.5> 252 39<537 791 537 841 525 791> 435 52<318 376.5>
VStem: 88 59 467 49 793 60
LayerCount: 2
Fore
SplineSet
95 238 m 0xbe
 95 239 94 239 94 240 c 0
 123 372 246 487 365 487 c 0
 449 487 502 433 520 372 c 1
 565 431 644 487 723 487 c 0
 787 487 849 454 853 351 c 0
 854 322 850 289 841 252 c 1
 525 252 l 1
 509 183 514 131 540 96 c 1
 540 96 540 96 540 96 c 1
 566 61 599 44 638 44 c 0
 694 44 748 67 801 113 c 1xbe
 793 58 l 1
 736 15 680 -6 625 -6 c 0
 612 -6 600 -5 588 -3 c 0x7e
 529 8 486 46 461 111 c 1
 381 8 296 -7 252 -7 c 0
 139 -7 63 101 95 238 c 0xbe
157 246 m 1
 142 246 146 151 147 146 c 0
 158 67 213 44 262 44 c 0
 296 44 332 55 370 83 c 0
 427 125 477 250 467 338 c 0
 459 410 400 435 353 435 c 0
 283 435 188 387 157 246 c 1
537 291 m 1
 791 291 l 1
 791 297 793 316 793 323 c 0
 796 425 724 434 709 434 c 0
 647 434 573 376 537 291 c 1
EndSplineSet
EndChar

StartChar: Racute
Encoding: 419 340 261
Width: 671
Flags: MW
HStem: 1 21G<98 98 98 167 571 571 571 641> 323 50<250 396 396 429 241 396> 641 54<312 485 485 489 312 312> 760 90
VStem: 663 66
LayerCount: 2
Fore
SplineSet
366 760 m 1
 536 840 l 1
 559 850 l 2
 561 850 564 850 567 850 c 2
 575 850 l 1
 652 850 l 1
 531 799 l 2
 470 773 435 760 425 760 c 2
 366 760 l 1
98 1 m 1
 255 695 l 1
 485 695 l 2
 651 695 706 628 724 568 c 0
 730 547 731 527 726 507 c 0
 706 423 603 349 493 331 c 1
 519 270 614 62 641 1 c 1
 571 1 l 1
 429 323 l 1
 241 323 l 1
 167 1 l 1
 98 1 l 1
250 373 m 1
 396 373 l 2
 551 373 639 418 660 507 c 0
 678 587 609 641 489 641 c 2
 312 641 l 1
 250 373 l 1
EndSplineSet
EndChar

StartChar: racute
Encoding: 420 341 262
Width: 346
Flags: MW
HStem: 0 21G<80 80 80 143> 460 20G<440 440>
VStem: 80 374
LayerCount: 2
Fore
SplineSet
210 538 m 1
 390 667 l 1
 454 667 l 1
 333 586 271 545 267 543 c 0
 261 540 255 538 248 538 c 2
 210 538 l 1
80 0 m 1
 188 470 l 1
 248 470 l 1
 230 394 l 2
 229 389 227 381 225 371 c 2
 221 348 l 1
 264 410 336 476 440 480 c 1
 427 424 l 1
 306 422 219 332 197 236 c 2
 143 0 l 1
 80 0 l 1
EndSplineSet
EndChar

StartChar: Rcaron
Encoding: 421 344 263
Width: 671
Flags: MW
HStem: 0 21G<98 98 98 167 571 571 571 641> 322 50<250 396 396 429 241 396> 640 54<312 485 485 489 312 312> 727 42<492 492 492 510 454 492>
VStem: 663 66
LayerCount: 2
Fore
SplineSet
367 889 m 1
 417 889 l 1
 492 769 l 1
 621 889 l 1
 672 889 l 1
 510 727 l 1
 454 727 l 1
 367 889 l 1
98 0 m 1
 255 694 l 1
 485 694 l 2
 651 694 706 627 724 567 c 0
 730 546 731 526 726 506 c 0
 706 422 603 348 493 330 c 1
 519 269 614 61 641 0 c 1
 571 0 l 1
 429 322 l 1
 241 322 l 1
 167 0 l 1
 98 0 l 1
250 372 m 1
 396 372 l 2
 551 372 639 417 660 506 c 0
 678 586 609 640 489 640 c 2
 312 640 l 1
 250 372 l 1
EndSplineSet
EndChar

StartChar: rcaron
Encoding: 422 345 264
Width: 346
Flags: MW
HStem: 0 21G<80 80 80 143> 460 20G<440 440> 536 33<352 352 352 370>
VStem: 80 443
LayerCount: 2
Fore
SplineSet
226 667 m 1
 277 667 l 1
 352 569 l 1
 472 667 l 1
 523 667 l 1
 370 536 l 1
 319 536 l 1
 226 667 l 1
80 0 m 1
 188 470 l 1
 248 470 l 1
 230 394 l 2
 229 389 227 381 225 371 c 2
 221 348 l 1
 264 410 336 476 440 480 c 1
 427 424 l 1
 306 422 219 332 197 236 c 2
 143 0 l 1
 80 0 l 1
EndSplineSet
EndChar

StartChar: Sacute
Encoding: 423 346 265
Width: 583
Flags: MW
HStem: -16 52<257.5 347 257.5 364> 656 53<454 465>
VStem: 175 66 506 67
LayerCount: 2
Fore
SplineSet
328 760 m 1
 498 840 l 1
 523 850 l 1
 523 850 523 850 523 850 c 1
 537 850 l 1
 614 850 l 1
 477 792 405 762 397 761 c 0
 382 756 348 760 328 760 c 1
59 54 m 1
 86 118 l 1
 148 63 218 36 297 36 c 0
 397 36 485 103 503 176 c 0
 509 202 506 227 494 250 c 0
 482 273 462 291 435 303 c 1
 435 303 435 303 435 303 c 1
 422 308 395 315 354 323 c 0
 273 339 217 365 187 426 c 1
 187 426 187 426 187 426 c 1
 173 456 172 487 179 519 c 0
 199 607 301 697 429 708 c 0
 439 709 449 709 459 709 c 0
 525 709 585 693 640 661 c 1
 612 592 l 2
 611 593 592 609 590 610 c 2
 578 618 l 2
 565 627 564 625 551 634 c 0
 528 649 485 656 445 656 c 0
 329 656 241 581 241 508 c 0
 241 466 274 426 328 411 c 0
 361 401 463 377 469 374 c 0
 528 350 578 293 573 220 c 0
 562 105 444 -16 284 -16 c 0
 200 -16 125 7 59 54 c 1
EndSplineSet
EndChar

StartChar: sacute
Encoding: 424 347 266
Width: 402
Flags: MW
HStem: -8 47<217 254.5> 262 14 433 50<293 324.5>
VStem: 38 454
LayerCount: 2
Fore
SplineSet
38 39 m 1
 61 91 l 1
 94 69 l 2
 122 50 164 40 217 39 c 0
 292 39 338 66 350 120 c 0
 361 172 323 190 288 201 c 0
 269 207 138 220 117 292 c 0
 112 309 112 329 117 351 c 0
 137 439 204 483 319 483 c 0
 370 483 419 472 466 449 c 1
 443 394 l 1
 399 420 351 433 298 433 c 0
 288 433 279 433 271 432 c 0
 211 425 186 392 178 360 c 0
 172 338 181 319 189 309 c 0
 206 287 298 274 334 262 c 1
 334 262 413 244 413 167 c 0
 413 50 326 -8 207 -8 c 0
 144 -8 88 8 38 39 c 1
247 532 m 1
 427 662 l 1
 492 662 l 1
 308 539 l 2
 300 534 292 532 285 532 c 2
 247 532 l 1
EndSplineSet
EndChar

StartChar: Scircumflex
Encoding: 425 348 267
Width: 583
Flags: MW
HStem: -17 52<256.5 346 256.5 363> 655 53<453 464> 867 32<485 485>
VStem: 174 66 505 67
LayerCount: 2
Fore
SplineSet
305 761 m 1
 467 899 l 1
 519 899 l 1
 617 761 l 1
 567 761 l 1
 485 867 l 1
 355 761 l 1
 305 761 l 1
58 53 m 1
 85 117 l 1
 147 62 217 35 296 35 c 0
 396 35 484 102 502 175 c 0
 508 201 505 226 493 249 c 0
 481 272 461 290 434 302 c 1
 434 302 434 302 434 302 c 1
 421 307 394 314 353 322 c 0
 272 338 216 364 186 425 c 1
 186 425 186 425 186 425 c 1
 172 455 171 486 178 518 c 0
 198 606 300 696 428 707 c 0
 438 708 448 708 458 708 c 0
 524 708 584 692 639 660 c 1
 611 591 l 2
 610 592 591 608 589 609 c 2
 577 617 l 2
 564 626 563 624 550 633 c 0
 527 648 484 655 444 655 c 0
 328 655 240 580 240 507 c 0
 240 465 273 425 327 410 c 0
 360 400 462 376 468 373 c 0
 527 349 577 292 572 219 c 0
 561 104 443 -17 283 -17 c 0
 199 -17 124 6 58 53 c 1
EndSplineSet
EndChar

StartChar: scircumflex
Encoding: 426 349 268
Width: 402
Flags: MW
HStem: -8 50<187.5 261.5 187.5 269> 201 74 433 50<259.5 323.5> 640 32<352 352>
VStem: 350 61
LayerCount: 2
Fore
SplineSet
171 534 m 1
 333 672 l 1
 385 672 l 1
 483 534 l 1
 433 534 l 1
 352 640 l 1
 221 534 l 1
 171 534 l 1
38 39 m 1
 60 95 l 1
 60 95 60 95 60 95 c 1
 107 60 159 42 216 42 c 0
 307 42 350 93 350 143 c 0
 350 171 321 193 298 201 c 1
 259 201 142 222 117 293 c 0
 111 310 110 329 115 350 c 0
 127 410 187 483 317 483 c 0
 368 483 417 472 464 449 c 1
 441 394 l 1
 397 420 349 433 298 433 c 0
 221 433 183 394 175 357 c 0
 168 327 181 305 209 293 c 0
 269 267 440 271 407 132 c 0
 390 62 332 -8 206 -8 c 0
 144 -8 88 8 38 39 c 1
EndSplineSet
EndChar

StartChar: Scedilla
Encoding: 427 350 269
Width: 583
Flags: MW
HStem: -199 145<127 287 127 287> -17 53<257.5 349.5> 655 53<388 466>
VStem: 176 66 506 67
LayerCount: 2
Fore
SplineSet
58 53 m 1
 86 118 l 1
 148 63 218 36 297 36 c 0
 409 36 506 119 506 202 c 0
 506 247 471 293 418 308 c 0
 299 340 229 342 188 425 c 1
 188 425 188 425 188 425 c 1
 179 447 173 470 176 494 c 0
 188 599 302 708 460 708 c 0
 526 708 586 692 641 660 c 1
 613 591 l 2
 612 592 593 608 591 609 c 2
 579 617 l 2
 566 626 565 624 552 633 c 0
 529 648 486 655 446 655 c 0
 330 655 242 580 242 507 c 0
 242 468 269 434 313 416 c 1
 295 420 454 379 469 373 c 0
 538 346 590 276 568 186 c 0
 544 77 416 -17 283 -17 c 0
 198 -17 124 6 58 53 c 1
127 -199 m 1
 237 -54 l 1
 254 -54 270 -54 287 -54 c 1
 185 -199 l 1
 127 -199 l 1
EndSplineSet
EndChar

StartChar: scedilla
Encoding: 428 351 270
Width: 402
Flags: MW
HStem: -182 21G<57 57 57 115> -182 145<57 217 57 217> -8 51<216 253.5 216 266.5> 433 50<261.5 324.5>
VStem: 38 428<39 449>
LayerCount: 2
Fore
SplineSet
38 39 m 1xb8
 61 97 l 1
 124 54 158 45 216 43 c 0
 291 43 337 70 349 124 c 0
 360 171 333 193 264 210 c 0
 195 224 131 241 117 297 c 0
 113 313 112 331 117 351 c 0
 136 439 204 483 319 483 c 0
 370 483 419 472 466 449 c 1
 443 394 l 1
 399 420 351 433 298 433 c 0
 218 433 188 398 178 360 c 0
 172 338 181 319 189 309 c 0
 203 291 242 286 275 278 c 0
 279 277 282 276 284 275 c 2
 295 273 l 2
 311 268 315 268 334 262 c 1
 334 262 413 244 413 167 c 0
 413 50 326 -8 207 -8 c 0
 144 -8 88 8 38 39 c 1xb8
57 -182 m 1
 167 -37 l 1
 217 -37 l 1x78
 115 -182 l 1
 57 -182 l 1
EndSplineSet
EndChar

StartChar: Scaron
Encoding: 429 352 271
Width: 583
Flags: MW
HStem: -17 52<256.5 346 256.5 353.5> 655 53<387 464> 757 42<475 475 475 494 438 475>
VStem: 174 66 505 67
LayerCount: 2
Fore
SplineSet
350 919 m 1
 401 919 l 1
 475 799 l 1
 605 919 l 1
 655 919 l 1
 494 757 l 1
 475 757 457 757 438 757 c 1
 350 919 l 1
58 53 m 1
 85 117 l 1
 147 62 217 35 296 35 c 0
 396 35 484 102 502 175 c 0
 508 201 505 226 493 249 c 0
 481 272 461 290 434 302 c 1
 434 302 434 302 434 302 c 1
 421 307 394 314 353 322 c 0
 272 338 216 364 186 425 c 1
 186 425 186 425 186 425 c 1
 172 455 170 486 178 518 c 0
 200 615 316 708 458 708 c 0
 520 708 580 692 639 660 c 1
 611 591 l 2
 610 592 591 608 589 609 c 2
 577 617 l 2
 564 626 563 624 550 633 c 0
 527 648 484 655 444 655 c 0
 328 655 240 580 240 507 c 0
 240 465 273 425 327 410 c 0
 360 400 462 376 468 373 c 0
 537 345 588 277 567 186 c 0
 543 82 424 -17 283 -17 c 0
 199 -17 124 6 58 53 c 1
EndSplineSet
EndChar

StartChar: scaron
Encoding: 430 353 272
Width: 402
Flags: MW
HStem: -8 50<215 252.5 215 263.5> 434 50<290.5 323.5> 533 33<327 327 327 345>
VStem: 347 65
LayerCount: 2
Fore
SplineSet
38 39 m 1
 59 94 l 1
 92 73 l 2
 126 51 168 43 215 42 c 0
 290 42 334 69 347 123 c 0
 352 142 349 158 338 171 c 0
 316 196 289 204 241 213 c 0
 166 227 97 265 116 352 c 0
 135 440 203 484 318 484 c 0
 369 484 418 473 465 450 c 1
 442 395 l 1
 398 421 350 434 297 434 c 0
 284 434 272 434 261 432 c 0
 210 425 185 392 177 360 c 0
 164 309 208 294 240 286 c 0
 247 284 258 282 274 279 c 0
 381 258 425 207 408 130 c 1
 408 130 408 130 408 130 c 1
 408 130 408 130 408 130 c 1
 387 38 320 -8 207 -8 c 0
 144 -8 88 8 38 39 c 1
201 664 m 1
 252 664 l 1
 327 566 l 1
 447 664 l 1
 498 664 l 1
 345 533 l 1
 294 533 l 1
 201 664 l 1
EndSplineSet
EndChar

StartChar: Tcommaaccent
Encoding: 431 354 273
Width: 725
Flags: MW
HStem: -163 145<222 383 222 383> 0 21G<327 397 327 327> 639 53<185 846 197 475 545 545 545 834>
VStem: 185 661<639 692>
LayerCount: 2
Fore
SplineSet
222 -163 m 1
 333 -18 l 1
 383 -18 l 1
 280 -163 l 1
 222 -163 l 1
185 639 m 1
 197 692 l 1
 846 692 l 1
 834 639 l 1
 545 639 l 1
 397 0 l 1
 327 0 l 1x70
 475 639 l 1
 185 639 l 1
EndSplineSet
EndChar

StartChar: tcommaaccent
Encoding: 432 355 274
Width: 379
Flags: MW
HStem: -193 145<69 230 69 230> -8 52<188 258.5> 422 50<116 221 125 211 125 270 282 425>
VStem: 134 64
LayerCount: 2
Fore
SplineSet
116 422 m 1
 125 472 l 1
 221 472 l 1
 252 607 l 1
 313 607 l 1
 282 472 l 1
 437 472 l 1
 425 422 l 1
 270 422 l 1
 203 132 l 2
 189 73 202 44 240 44 c 0
 277 44 315 58 354 85 c 1
 354 69 355 52 355 36 c 1
 302 7 248 -8 193 -8 c 0
 183 -8 175 -7 168 -5 c 0
 146 1 135 16 134 40 c 0
 133 56 133 70 135 83 c 0
 137 96 140 111 144 128 c 2
 211 422 l 1
 116 422 l 1
69 -193 m 1
 180 -48 l 1
 230 -48 l 1
 127 -193 l 1
 69 -193 l 1
EndSplineSet
EndChar

StartChar: Tcaron
Encoding: 433 356 275
Width: 725
Flags: MW
HStem: 0 21G<327 397 327 327> 639 53<185 846 197 475 545 545 545 834> 727 42<540 540 540 558 502 540>
VStem: 185 661<639 692>
LayerCount: 2
Fore
SplineSet
414 889 m 1
 465 889 l 1
 540 769 l 1
 669 889 l 1
 719 889 l 1
 558 727 l 1
 502 727 l 1
 414 889 l 1
185 639 m 1
 197 692 l 1
 846 692 l 1
 834 639 l 1
 545 639 l 1
 397 0 l 1
 327 0 l 1
 475 639 l 1
 185 639 l 1
EndSplineSet
EndChar

StartChar: tcaron
Encoding: 434 357 276
Width: 379
Flags: MW
HStem: -8 52<173.5 257> 422 50<116 222 126 211 126 271 283 426> 533 74<430 452> 607 78<430 526 448 454>
VStem: 134 65
LayerCount: 2
Fore
SplineSet
116 422 m 1xd8
 126 472 l 1
 222 472 l 1
 253 607 l 1
 314 607 l 1xe8
 283 472 l 1
 438 472 l 1
 426 422 l 1
 271 422 l 1
 204 132 l 2
 190 73 203 44 241 44 c 0
 273 44 311 58 354 85 c 1
 354 69 355 52 355 36 c 1
 300 7 246 -8 193 -8 c 0
 154 -8 136 8 134 40 c 0
 133 56 133 70 135 83 c 0
 137 96 140 111 144 128 c 2
 211 422 l 1
 116 422 l 1xd8
413 533 m 1
 454 607 l 1
 430 607 l 1
 448 685 l 1
 526 685 l 1
 519 664 518 641 511 621 c 2
 505 603 l 2xd8
 501 592 497 591 479 568 c 2
 452 533 l 1
 413 533 l 1
EndSplineSet
EndChar

StartChar: Utilde
Encoding: 435 360 277
Width: 692
Flags: MW
HStem: -15 54<343.5 394.5 343.5 403.5> 677 20G<687 752 752 752> 678 20G<255 325 325 325> 814 51<609.5 624 609.5 638.5> 882 50<469 484.5>
VStem: 146 68
LayerCount: 2
Fore
SplineSet
360 813 m 1xbc
 360 813 359 814 359 814 c 1
 376 878 426 932 485 932 c 0
 489 932 493 931 498 930 c 0
 523 925 552 900 572 882 c 0
 585 870 602 865 617 865 c 0xbc
 631 865 644 871 656 882 c 0
 668 893 678 910 685 932 c 1
 735 932 l 1
 717 867 668 814 609 814 c 0
 589 814 566 825 540 848 c 0
 514 871 493 882 476 882 c 0xb4
 462 882 449 876 437 864 c 1
 437 864 437 864 437 864 c 1
 437 864 437 864 437 864 c 1
 425 852 416 835 411 813 c 1
 360 813 l 1xbc
154 248 m 2
 255 698 l 1
 325 698 l 1
 220 240 l 2
 211 202 209 169 214 141 c 0xb4
 224 84 260 60 296 48 c 0
 314 42 333 39 354 39 c 0
 435 39 547 81 582 242 c 2
 687 697 l 1
 752 697 l 1
 648 244 l 2
 611 82 465 -15 342 -15 c 0
 197 -15 120 99 154 248 c 2
EndSplineSet
EndChar

StartChar: utilde
Encoding: 436 361 278
Width: 517
Flags: MW
HStem: -9 47<224 230> -1 21G<372 435 372 372> 592 50<455.5 469 455.5 483.5> 658 51<307 332.5 301 338>
VStem: 102 68
LayerCount: 2
Fore
SplineSet
204 590 m 1x98
 221 654 272 709 330 709 c 0x98
 335 709 341 708 346 707 c 0
 362 704 405 668 417 660 c 0
 434 648 449 642 462 642 c 0xb8
 476 642 489 648 501 659 c 0
 513 670 523 687 530 710 c 1x98
 580 710 l 1xb8
 562 645 513 592 454 592 c 0
 414 592 355 658 321 658 c 0
 293 658 268 636 254 590 c 1
 229 590 l 1
 204 590 l 1x98
111 133 m 2
 190 469 l 1
 255 469 l 1
 175 121 l 2
 171 106 170 95 169 88 c 0
 167 81 168 71 172 64 c 0x98
 178 45 202 38 246 38 c 0
 325 38 392 93 411 174 c 2
 480 471 l 1
 544 471 l 1
 435 -1 l 1x58
 372 -1 l 1
 392 85 l 1
 344 27 266 -9 194 -9 c 0
 129 -9 104 21 102 61 c 0
 100 94 104 101 111 133 c 2
EndSplineSet
EndChar

StartChar: Umacron
Encoding: 437 362 279
Width: 692
Flags: MW
HStem: -19 54<343.5 394.5 343.5 403.5> 674 20G<255 325 325 325> 761 37<220.5 816 266 786>
VStem: 146 68
LayerCount: 2
Fore
SplineSet
206 781 m 1
 206 780 206 779 206 778 c 1
 211 799 233 798 266 798 c 2
 816 798 l 2
 818 798 819 798 821 798 c 0
 823 798 824 798 826 798 c 0
 830 798 840 799 842 797 c 0
 843 795 847 793 847 791 c 0
 847 759 824 761 786 761 c 2
 230 761 l 2
 211 761 203 768 206 781 c 1
154 244 m 2
 255 694 l 1
 325 694 l 1
 220 236 l 2
 211 198 209 165 214 137 c 0
 224 80 260 56 296 44 c 0
 314 38 333 35 354 35 c 0
 435 35 547 77 582 238 c 2
 687 693 l 1
 752 693 l 1
 648 240 l 2
 611 78 465 -19 342 -19 c 0
 197 -19 120 95 154 244 c 2
EndSplineSet
EndChar

StartChar: umacron
Encoding: 438 363 280
Width: 517
Flags: MW
HStem: -9 47<224 230> -1 21G<372 435 372 372> 574 54<201 592 213 580>
VStem: 102 68
LayerCount: 2
Fore
SplineSet
201 574 m 1xb0
 213 628 l 1
 592 628 l 1
 580 574 l 1
 201 574 l 1xb0
111 133 m 2
 190 469 l 1
 255 469 l 1
 175 121 l 2
 171 106 170 95 169 88 c 0
 167 81 168 71 172 64 c 0
 178 45 202 38 246 38 c 0xb0
 325 38 392 93 411 174 c 2
 480 471 l 1
 544 471 l 1
 435 -1 l 1
 372 -1 l 1x70
 392 85 l 1
 344 27 266 -9 194 -9 c 0
 129 -9 104 21 102 61 c 0
 100 94 104 101 111 133 c 2
EndSplineSet
EndChar

StartChar: Ubreve
Encoding: 439 364 281
Width: 692
Flags: MW
HStem: -16 54<342.5 393.5 342.5 402.5> 676 20G<686 751 751 751> 677 20G<254 324 324 324> 762 54<516 556 516 564>
VStem: 145 68 380 51
LayerCount: 2
Fore
SplineSet
383 902 m 1xbc
 431 902 l 1
 418 829 500 816 532 816 c 0
 580 816 654 837 673 902 c 1
 724 902 l 1
 702 814 607 762 521 762 c 0
 438 762 365 814 383 902 c 1xbc
153 247 m 2
 254 697 l 1
 324 697 l 1xbc
 219 239 l 2
 210 201 208 168 213 140 c 0
 223 83 259 59 295 47 c 0
 313 41 332 38 353 38 c 0
 434 38 546 80 581 241 c 2
 686 696 l 1
 751 696 l 1xdc
 647 243 l 2
 610 81 464 -16 341 -16 c 0
 196 -16 119 98 153 247 c 2
EndSplineSet
EndChar

StartChar: ubreve
Encoding: 440 365 282
Width: 517
Flags: MW
HStem: -9 47<223 229> -1 21G<371 434 371 371> 535 54<379 417.5 379 424>
VStem: 101 68 240 52
LayerCount: 2
Fore
SplineSet
243 675 m 1xb8
 292 675 l 1
 279 602 363 589 395 589 c 0
 440 589 514 610 533 675 c 1
 584 675 l 1
 562 587 467 535 381 535 c 0
 298 535 225 587 243 675 c 1xb8
110 133 m 2
 189 469 l 1
 254 469 l 1
 174 121 l 2
 170 106 169 95 168 88 c 0
 166 81 167 71 171 64 c 0
 177 45 201 38 245 38 c 0xb8
 324 38 391 93 410 174 c 2
 479 471 l 1
 543 471 l 1
 434 -1 l 1
 371 -1 l 1x78
 391 85 l 1
 343 27 265 -9 193 -9 c 0
 128 -9 103 21 101 61 c 0
 99 94 103 101 110 133 c 2
EndSplineSet
EndChar

StartChar: Uring
Encoding: 441 366 283
Width: 692
Flags: MW
HStem: -18 54<344.5 395.5 344.5 404.5> 674 20G<688 753 753 753> 675 20G<256 326 326 326> 678 47<492 535.5> 844 50<521 565.5>
VStem: 147 68
LayerCount: 2
Fore
SplineSet
411 786 m 1xac
 411 786 411 785 411 785 c 1
 425 842 487 894 552 894 c 0
 611 894 658 849 644 787 c 0
 631 730 568 678 503 678 c 0x9c
 444 678 397 721 411 786 c 1xac
469 784 m 1
 469 784 469 783 469 783 c 1
 461 745 471 725 513 725 c 0x9c
 559 725 579 745 587 785 c 0
 597 823 587 844 544 844 c 0
 498 844 479 824 469 784 c 1
155 245 m 2
 256 695 l 1
 326 695 l 1xac
 221 237 l 2
 212 199 210 166 215 138 c 0
 225 81 261 57 297 45 c 0
 315 39 334 36 355 36 c 0
 436 36 548 78 583 239 c 2
 688 694 l 1
 753 694 l 1xcc
 649 241 l 2
 612 79 466 -18 343 -18 c 0
 198 -18 121 96 155 245 c 2
EndSplineSet
EndChar

StartChar: uring
Encoding: 442 367 284
Width: 517
Flags: MW
HStem: -9 47<224 230> -1 21G<372 435 372 372> 508 32<364 403 364 411> 637 33<386.5 424.5>
VStem: 102 68
LayerCount: 2
Fore
SplineSet
111 133 m 2xb8
 190 469 l 1
 255 469 l 1
 175 121 l 2
 171 106 170 95 169 88 c 0
 167 81 168 71 172 64 c 0
 178 45 202 38 246 38 c 0xb8
 325 38 392 93 411 174 c 2
 480 471 l 1
 544 471 l 1
 435 -1 l 1
 372 -1 l 1x78
 392 85 l 1
 344 27 266 -9 194 -9 c 0
 129 -9 104 21 102 61 c 0
 100 94 104 101 111 133 c 2xb8
278 588 m 0
 288 628 344 670 413 670 c 0
 473 670 523 637 511 590 c 0
 501 548 446 508 376 508 c 0
 316 508 268 541 278 588 c 0
337 588 m 1
 337 588 336 589 336 589 c 1
 328 550 344 540 384 540 c 0
 422 540 444 556 452 587 c 0
 461 626 443 637 406 637 c 0
 367 637 344 621 337 588 c 1
EndSplineSet
EndChar

StartChar: Uhungarumlaut
Encoding: 443 368 285
Width: 692
Flags: MW
HStem: -16 54<344.5 395.5 344.5 404.5> 676 20G<688 753 753 753> 677 20G<256 326 326 326> 760 89<529 563.5 548 563.5 548 588>
VStem: 147 68
LayerCount: 2
Fore
SplineSet
529 760 m 1xb8
 723 849 l 1
 754 849 784 850 815 850 c 1
 588 760 l 1
 568 760 549 760 529 760 c 1xb8
354 760 m 1
 548 849 l 1
 579 849 609 850 640 850 c 1
 413 760 l 1
 354 760 l 1
155 247 m 2
 256 697 l 1
 326 697 l 1xb8
 221 239 l 2
 212 201 210 168 215 140 c 0
 225 83 261 59 297 47 c 0
 315 41 334 38 355 38 c 0
 436 38 548 80 583 241 c 2
 688 696 l 1
 753 696 l 1xd8
 649 243 l 2
 612 81 466 -16 343 -16 c 0
 198 -16 121 98 155 247 c 2
EndSplineSet
EndChar

StartChar: uhungarumlaut
Encoding: 444 369 286
Width: 517
Flags: MW
HStem: -7 47<224 230> 1 21G<372 435 372 372> 453 20G<480 544 544 544> 538 131<414 485 420 452>
VStem: 102 68
LayerCount: 2
Fore
SplineSet
414 538 m 1xb8
 594 668 l 1
 659 668 l 1
 628 647 592 623 551 596 c 2
 475 545 l 2
 467 540 459 538 452 538 c 2
 414 538 l 1xb8
240 539 m 1
 420 669 l 1
 485 669 l 1
 454 648 418 624 377 597 c 2
 301 546 l 2
 293 541 285 539 278 539 c 2
 240 539 l 1
111 135 m 2
 190 471 l 1
 255 471 l 1
 175 123 l 2
 171 108 170 97 169 90 c 0
 167 83 168 73 172 66 c 0
 178 47 202 40 246 40 c 0xb8
 325 40 392 95 411 176 c 2
 480 473 l 1
 544 473 l 1
 435 1 l 1
 372 1 l 1x78
 392 87 l 1
 344 29 266 -7 194 -7 c 0
 129 -7 104 23 102 63 c 0
 100 96 104 103 111 135 c 2
EndSplineSet
EndChar

StartChar: Wcircumflex
Encoding: 445 372 287
Width: 967
Flags: MW
HStem: -5 21G<225 295 225 225> -4 21G<666 738 666 666> -4 70 631 65 676 20G<609 679 679 679 1050 1111 1111 1111> 678 20G<240 240> 867 32<682 682>
VStem: 174 937<695 696> 666 54
LayerCount: 2
Fore
SplineSet
502 761 m 1x47
 664 899 l 1
 716 899 l 1
 814 761 l 1
 764 761 l 1
 682 867 l 1
 552 761 l 1
 502 761 l 1x47
174 695 m 1
 240 698 l 1x47
 268 263 281 125 279 68 c 1
 286 84 293 98 300 111 c 0
 311 132 326 163 349 204 c 0
 382 264 393 292 412 325 c 2
 434 363 l 1
 609 696 l 1
 679 696 l 1
 711 255 l 2
 716 170 719 107 720 66 c 1x2a80
 728 85 749 127 783 191 c 2
 1050 696 l 1
 1111 696 l 1
 738 -4 l 1
 666 -4 l 1
 656 108 647 231 639 367 c 0
 634 451 626 543 626 631 c 1x5280
 598 557 555 486 518 416 c 2
 295 -5 l 1
 225 -5 l 1x87
 174 695 l 1
EndSplineSet
EndChar

StartChar: wcircumflex
Encoding: 446 373 288
Width: 692
Flags: MW
HStem: -5 21G<456 528 456 456> -5 68<507 507 507 528 456 507> -3 21G<158 223 158 158> 452 20G<123 123> 640 32<493 493>
VStem: 123 660<470 472> 433 47 456 51
LayerCount: 2
Fore
SplineSet
312 534 m 1x3c
 474 672 l 1
 526 672 l 1
 624 534 l 1
 574 534 l 1
 493 640 l 1
 362 534 l 1
 312 534 l 1x3c
123 472 m 1
 184 470 l 1
 199 266 207 130 209 63 c 1
 220 91 291 227 422 470 c 1
 480 470 l 1x5a
 497 235 506 99 507 63 c 1
 537 122 l 2x59
 547 141 558 161 568 180 c 2
 722 470 l 1
 783 470 l 1
 528 -5 l 1
 456 -5 l 1x99
 439 238 431 375 433 406 c 1x3a
 420 370 223 -4 223 -3 c 2
 158 -3 l 1
 123 472 l 1
EndSplineSet
EndChar

StartChar: Ycircumflex
Encoding: 447 374 289
Width: 675
Flags: MW
HStem: 0 21G<302 371 302 302> 675 20G<162 247 247 247 755 831 831 831> 867 32<536 536>
VStem: 162 669<695 695>
LayerCount: 2
Fore
SplineSet
356 761 m 1
 518 899 l 1
 570 899 l 1
 668 761 l 1
 618 761 l 1
 536 867 l 1
 406 761 l 1
 356 761 l 1
162 695 m 1
 247 695 l 1
 282 624 l 2
 285 616 291 604 299 589 c 0
 307 574 313 562 317 554 c 2
 368 448 l 2
 391 401 408 366 419 342 c 1
 440 364 552 482 755 695 c 1
 831 695 l 1
 435 278 l 1
 371 0 l 1
 302 0 l 1
 366 278 l 1
 162 695 l 1
EndSplineSet
EndChar

StartChar: ycircumflex
Encoding: 448 375 290
Width: 458
Flags: MW
HStem: -175 51<65 85 65 109.5> -168 21G<-11 -11> 452 20G<123 133.5 489 552 552 552> 640 32<376 376>
VStem: -11 563 205 44
LayerCount: 2
Fore
SplineSet
195 534 m 1xb8
 357 672 l 1
 409 672 l 1
 507 534 l 1
 457 534 l 1
 376 640 l 1
 245 534 l 1
 195 534 l 1xb8
123 472 m 1xb4
 144 472 166 471 187 471 c 1
 209 342 l 2
 240 161 248 99 249 64 c 1
 261 92 489 474 489 472 c 2
 552 472 l 1
 269 12 l 1
 189 -107 153 -175 66 -175 c 0
 42 -175 16 -173 -11 -168 c 1xb4
 -3 -112 l 1x78
 27 -120 53 -124 77 -124 c 0
 93 -124 108 -120 122 -111 c 0
 140 -99 165 -67 196 -16 c 1
 196 -16 196 -16 196 -16 c 1
 201 -9 204 -3 205 1 c 0
 205 2 202 33 198 55 c 2
 123 472 l 1xb4
EndSplineSet
EndChar

StartChar: Ydieresis
Encoding: 449 376 291
Width: 675
Flags: MW
HStem: 0 21G<302 371 302 302> 675 20G<162 247 247 247 755 831 831 831> 815 63<391 469 406 454 610 658>
VStem: 162 669<695 695>
LayerCount: 2
Fore
SplineSet
595 815 m 1
 610 878 l 1
 673 878 l 1
 658 815 l 1
 595 815 l 1
391 815 m 1
 406 878 l 1
 469 878 l 1
 454 815 l 1
 391 815 l 1
162 695 m 1
 247 695 l 1
 282 624 l 2
 285 616 291 604 299 589 c 0
 307 574 313 562 317 554 c 2
 368 448 l 2
 391 401 408 366 419 342 c 1
 440 364 552 482 755 695 c 1
 831 695 l 1
 435 278 l 1
 371 0 l 1
 302 0 l 1
 366 278 l 1
 162 695 l 1
EndSplineSet
EndChar

StartChar: Zacute
Encoding: 450 377 292
Width: 642
Flags: MW
HStem: 1 53<165 590> 644 52<234 638 222 744> 644 206<582 590 590 596 596 638>
VStem: 59 685
LayerCount: 2
Fore
SplineSet
387 760 m 1xb0
 557 840 l 1
 582 850 l 2
 584 850 587 850 590 850 c 2
 596 850 l 1
 673 850 l 1
 552 799 l 2
 491 773 456 760 446 760 c 2
 387 760 l 1xb0
59 1 m 1
 67 37 l 1
 638 644 l 1
 222 644 l 1
 234 696 l 1
 744 696 l 1
 736 661 l 1xd0
 165 54 l 1
 602 54 l 1
 590 1 l 1
 59 1 l 1
EndSplineSet
EndChar

